<svg width="161" height="160" viewBox="0 0 161 160" fill="none" xmlns="http://www.w3.org/2000/svg">
<path d="M28.9766 20.0463L31.5154 18.7769C30.6427 19.1603 29.7964 19.5702 28.9766 20.0463Z" stroke="#EC2639" stroke-width="0.793388" stroke-linecap="round" stroke-linejoin="round"/>
<path d="M117.835 91.2264C115.878 84.8926 113.432 78.7306 110.51 72.7669C109.174 70.0033 107.72 67.2926 106.173 64.6083C105.168 62.876 104.123 61.1703 103.026 59.4909C98.8603 52.9851 94.1264 46.9025 88.8503 41.2298C82.2123 34.1157 75.1247 28.3769 67.5743 24.0132C60.0239 19.6628 52.9363 17.2165 46.2983 16.6612C46.0603 16.6347 45.8222 16.6215 45.5842 16.6083C40.3479 16.2777 35.6537 16.9917 31.5148 18.7769L28.976 20.0463C24.0702 22.8496 20.1826 27.2264 17.3131 33.1901C14.4569 39.1537 13.0156 46.4661 13.0156 55.1273C13.0156 63.7884 14.4569 72.7537 17.3131 82.0231C20.1826 91.2926 24.0702 100.152 28.976 108.628C33.8818 117.091 39.6603 124.893 46.2983 132.007C52.9363 139.121 60.0239 144.86 67.5743 149.223C75.1247 153.574 82.2123 156.033 88.8503 156.575C95.4884 157.117 101.267 155.993 106.173 153.19C110.1 150.955 113.379 147.689 116.011 143.405C116.659 142.347 117.267 141.236 117.835 140.046C120.692 134.096 122.133 126.783 122.133 118.122C122.133 109.461 120.692 100.496 117.835 91.2264ZM75.4553 91.438L76.0239 92.4165L94.8537 124.906L87.2107 129.256L67.5743 95.3785L58.5561 100.522L47.938 106.579L40.295 93.4083L51.0851 87.2595L59.9313 82.2083L40.295 48.3306L47.938 43.9802L48.176 44.3901L67.5743 77.8579L85.571 67.5967L87.2107 66.6579L94.8537 79.8281L75.2173 91.0281L75.4553 91.438Z" stroke="#EC2639" stroke-width="0.793388" stroke-linecap="round" stroke-linejoin="round"/>
<path d="M73.7627 92.2843L67.5743 95.3785L58.5561 100.522L47.9379 106.579L40.2949 93.4083L51.3891 87.8678L66.7412 80.1851L73.7627 92.2843Z" stroke="#EC2639" stroke-width="0.793388" stroke-linecap="round" stroke-linejoin="round"/>
<path d="M130.08 141.236C130.953 140.853 131.799 140.443 132.619 139.967L130.08 141.236Z" stroke="#EC2639" stroke-width="0.793388" stroke-linecap="round" stroke-linejoin="round"/>
<path d="M48.1759 44.3901L40.2949 48.3306L47.9379 43.9802L48.1759 44.3901Z" stroke="#EC2639" stroke-width="0.793388" stroke-linecap="round" stroke-linejoin="round"/>
<path d="M94.8536 124.906L87.2106 129.256L67.5742 95.3785L73.7626 92.2843L75.4552 91.438L76.0238 92.4165L94.8536 124.906Z" stroke="#EC2639" stroke-width="0.793388" stroke-linecap="round" stroke-linejoin="round"/>
<path d="M86.3776 68.9851L59.9313 82.2083L40.2949 48.3306L48.1759 44.3901L67.5743 77.8578L85.571 67.5967L86.3776 68.9851Z" stroke="#EC2639" stroke-width="0.793388" stroke-linecap="round" stroke-linejoin="round"/>
<path d="M86.3776 68.9851L66.7412 80.1851L51.3891 87.8678L40.2949 93.4083L51.085 87.2595L59.9313 82.2083L86.3776 68.9851Z" stroke="#EC2639" stroke-width="0.793388" stroke-linecap="round" stroke-linejoin="round"/>
<path d="M148.58 104.899C148.58 113.56 147.139 120.873 144.282 126.823C141.413 132.787 137.526 137.177 132.62 139.967L130.081 141.236L106.173 153.19C110.101 150.955 113.38 147.689 116.011 143.405C116.659 142.347 117.268 141.236 117.836 140.046C120.692 134.096 122.134 126.783 122.134 118.122C122.134 109.461 120.692 100.496 117.836 91.2264C115.879 84.8926 113.433 78.7306 110.511 72.7669C109.175 70.0033 107.721 67.2926 106.173 64.6083C105.169 62.876 104.124 61.1703 103.026 59.4909C98.8611 52.9851 94.1272 46.9025 88.8512 41.2298C82.2131 34.1157 75.1255 28.3769 67.5751 24.0132C60.0247 19.6628 52.9371 17.2165 46.2991 16.6612C46.0611 16.6347 45.8231 16.6215 45.585 16.6083C40.3487 16.2777 35.6545 16.9917 31.5156 18.7769L55.4231 6.82315C60.3288 4.01984 66.1074 2.89588 72.7454 3.43802C79.3834 3.9934 86.471 6.43968 94.0214 10.7901C101.572 15.1537 108.659 20.8926 115.297 28.0066C121.935 35.1339 127.714 42.9223 132.62 51.3851C137.526 59.8612 141.413 68.7339 144.282 78.0033C147.139 87.2727 148.58 96.238 148.58 104.899Z" stroke="#EC2639" stroke-width="0.793388" stroke-linecap="round" stroke-linejoin="round"/>
</svg>
