<svg width="40" height="40" viewBox="0 0 40 40" fill="none" xmlns="http://www.w3.org/2000/svg">
<rect x="0.5" y="0.5" width="39" height="39" rx="19.5" stroke="#79797C"/>
<path d="M10.5 20C10.5 15.5217 10.5 13.2825 11.8912 11.8912C13.2825 10.5 15.5217 10.5 20 10.5C24.4783 10.5 26.7175 10.5 28.1088 11.8912C29.5 13.2825 29.5 15.5217 29.5 20C29.5 24.4783 29.5 26.7175 28.1088 28.1088C26.7175 29.5 24.4783 29.5 20 29.5C15.5217 29.5 13.2825 29.5 11.8912 28.1088C10.5 26.7175 10.5 24.4783 10.5 20Z" stroke="#79797C" stroke-width="1.5"/>
<path d="M19 15H25" stroke="#79797C" stroke-width="1.5" stroke-linecap="round"/>
<path d="M15 15H16" stroke="#79797C" stroke-width="1.5" stroke-linecap="round"/>
<path d="M15 20H16" stroke="#79797C" stroke-width="1.5" stroke-linecap="round"/>
<path d="M15 25H16" stroke="#79797C" stroke-width="1.5" stroke-linecap="round"/>
<path d="M19 20H25" stroke="#79797C" stroke-width="1.5" stroke-linecap="round"/>
<path d="M19 25H25" stroke="#79797C" stroke-width="1.5" stroke-linecap="round"/>
</svg>
