<svg width="40" height="40" viewBox="0 0 40 40" fill="none" xmlns="http://www.w3.org/2000/svg">
<rect x="0.5" y="0.5" width="39" height="39" rx="19.5" stroke="#79797C"/>
<path d="M27.0008 25.5C28.4236 25.5 29.0618 25.5 29.5138 25.0126C29.5332 24.9917 29.5521 24.9702 29.5706 24.9482C30 24.435 30 23.6275 30 22.0125C30 20.7875 30 20.175 29.76 19.6578C29.5093 19.1178 29.0577 18.7814 28.1078 18.0931C27.1644 17.4095 26.4936 16.641 25.8545 15.5824C24.9429 14.0726 24.4871 13.3178 23.8036 12.9089C23.1201 12.5 22.3139 12.5 20.7016 12.5H20.0028M20.0028 12.5L21.1208 15.9798C21.6687 17.6847 21.9426 18.5372 22.5139 19.0186C23.0851 19.5 23.8227 19.5 25.2978 19.5H29.0001M20.0028 12.5L20.0027 25.5M17.0037 25.5H23.002M30.0002 22.5H29.0002M20.0027 19.5H11.0053C11.0053 19.5 10.6838 19.5044 10.4054 19.5C9.94385 19.4928 10.0055 19.48 10.0055 19.54V20.5C10.0055 20.5 9.98554 23.8 10.0215 24.1932C10.0215 24.4519 10.2255 24.6634 10.5854 24.88C10.8208 25.0365 11.1908 25.2856 11.4851 25.4044C11.845 25.54 13.0047 25.5 13.0047 25.5" stroke="#79797C" stroke-width="1.5" stroke-linecap="round" stroke-linejoin="round"/>
<path d="M25.0015 27.5C26.1057 27.5 27.0009 26.6046 27.0009 25.5C27.0009 24.3954 26.1057 23.5 25.0015 23.5C23.8972 23.5 23.002 24.3954 23.002 25.5C23.002 26.6046 23.8972 27.5 25.0015 27.5Z" stroke="#79797C" stroke-width="1.5"/>
<path d="M15.0043 27.5C16.1086 27.5 17.0038 26.6046 17.0038 25.5C17.0038 24.3954 16.1086 23.5 15.0043 23.5C13.9001 23.5 13.0049 24.3954 13.0049 25.5C13.0049 26.6046 13.9001 27.5 15.0043 27.5Z" stroke="#79797C" stroke-width="1.5"/>
</svg>
