<svg width="40" height="40" viewBox="0 0 40 40" fill="none" xmlns="http://www.w3.org/2000/svg">
<rect x="0.5" y="0.5" width="39" height="39" rx="19.5" stroke="#79797C"/>
<path d="M22.9805 15.0156C22.9805 15.0156 23.4805 15.5156 23.9805 16.5156C23.9805 16.5156 25.5687 14.0156 26.9805 13.5156" stroke="#79797C" stroke-width="1.5" stroke-linecap="round" stroke-linejoin="round"/>
<path d="M17.9949 10.0213C15.4964 9.91556 13.5661 10.2034 13.5661 10.2034C12.3473 10.2905 10.0115 10.9739 10.0115 14.9645C10.0115 18.9213 9.98564 23.7993 10.0115 25.7439C10.0115 26.932 10.7471 29.7033 13.2933 29.8518C16.3881 30.0324 21.9627 30.0708 24.5204 29.8518C25.2051 29.8132 27.4846 29.2757 27.7731 26.7956C28.072 24.2263 28.0125 22.4407 28.0125 22.0157" stroke="#79797C" stroke-width="1.5" stroke-linecap="round" stroke-linejoin="round"/>
<path d="M29.9998 15.0156C29.9998 17.777 27.7591 20.0156 24.995 20.0156C22.2309 20.0156 19.9902 17.777 19.9902 15.0156C19.9902 12.2541 22.2309 10.0156 24.995 10.0156C27.7591 10.0156 29.9998 12.2541 29.9998 15.0156Z" stroke="#79797C" stroke-width="1.5" stroke-linecap="round"/>
<path d="M14.9805 21.0156H18.9804" stroke="#79797C" stroke-width="1.5" stroke-linecap="round"/>
<path d="M14.9805 25.0156H22.9804" stroke="#79797C" stroke-width="1.5" stroke-linecap="round"/>
</svg>
