<svg width="501" height="431" viewBox="0 0 501 431" fill="none" xmlns="http://www.w3.org/2000/svg">
<g clip-path="url(#clip0_2387_3690)">
<path d="M208.484 374.092L213.945 356.307C207.374 349.076 199.138 343.557 189.95 340.231C198.926 355.102 190.228 374.501 193.853 391.488C195.024 396.778 197.37 401.736 200.718 405.996C204.066 410.255 208.329 413.707 213.192 416.094L221.479 426.362C225.824 418.772 228.471 410.33 229.239 401.618C230.007 392.906 228.877 384.131 225.926 375.898C224.226 371.296 221.952 366.926 219.159 362.892C214.235 368.681 208.484 374.092 208.484 374.092Z" fill="#F2F2F2"/>
<path d="M178.456 376.365L175.412 358.011C166.306 354.469 156.473 353.203 146.767 354.323C161.433 363.63 162.299 384.872 173.119 398.46C176.527 402.672 180.838 406.064 185.734 408.383C190.63 410.702 195.985 411.89 201.403 411.859L213.4 417.353C213.903 408.622 212.507 399.885 209.309 391.745C206.111 383.605 201.186 376.255 194.874 370.202C191.299 366.841 187.315 363.944 183.016 361.579C181.19 368.957 178.456 376.365 178.456 376.365Z" fill="#F2F2F2"/>
<path d="M357.191 421.798L348.779 421.798L344.777 389.352L357.193 389.353L357.191 421.798Z" fill="#FFB6B6"/>
<path d="M359.336 429.952L332.213 429.951V429.608C332.213 426.808 333.325 424.123 335.305 422.143C337.285 420.164 339.97 419.051 342.77 419.051H342.771L347.725 415.292L356.969 419.052L359.336 419.052L359.336 429.952Z" fill="#31413B"/>
<path d="M493.072 391.116L487.337 397.269L460.873 378.075L469.338 368.994L493.072 391.116Z" fill="#FFB6B6"/>
<path d="M500.499 395.106L482.005 414.947L481.754 414.713C479.706 412.804 478.5 410.16 478.402 407.362C478.304 404.563 479.321 401.841 481.229 399.793L481.858 393.605L490.911 389.406L492.525 387.674L500.499 395.106Z" fill="#31413B"/>
<path d="M480.626 372.882L471.735 391.477L417.138 355.328L409.196 344.506L383.153 309.023L372.566 325.82L365.2 343.38C362.8 344.946 360.777 347.025 359.278 349.468C357.779 351.911 356.841 354.657 356.532 357.506L356.195 360.615L360.849 402.459L343.158 407.891L332.997 351.679L336.319 339.499L339.738 322.401L356.955 268.371H403.027L429.452 324.618L431.384 336.079L438.876 344.678L480.626 372.882Z" fill="#31413B"/>
<path d="M384.879 179.973L392.635 185.878L401.988 188.753C401.988 188.753 405.855 243.144 409.339 246.628C412.824 250.112 409.681 250.206 410.381 254.732C411.081 259.258 412.783 268.536 412.783 268.536C389.265 280.985 368.99 281.319 352.704 266.752C352.496 265.85 352.601 264.905 353.004 264.072C353.406 263.24 354.081 262.57 354.917 262.173C357.948 260.565 352.123 253.058 354.6 251.803C357.077 250.548 353.593 239.66 353.593 239.66L355.879 216.943L354.073 213.312L358.48 191.092L366.126 188.299L369.18 180.94L384.879 179.973Z" fill="#3D544C"/>
<path d="M389.737 276.644C389.702 275.662 389.883 274.684 390.267 273.779C390.651 272.875 391.229 272.065 391.96 271.408C392.69 270.751 393.556 270.262 394.497 269.975C395.437 269.689 396.428 269.612 397.402 269.75L408.332 248.505L414.421 259.325L403.108 277.841C402.768 279.46 401.845 280.898 400.515 281.883C399.184 282.867 397.539 283.329 395.891 283.182C394.243 283.034 392.706 282.287 391.572 281.082C390.437 279.878 389.784 278.298 389.737 276.644Z" fill="#FFB6B6"/>
<path d="M408.145 271.447L431.589 235.112L431.511 234.945C431.423 234.754 426.114 223.288 420.97 212.786C420.178 211.169 419.389 209.574 418.625 208.048C418.295 207.389 417.97 206.743 417.649 206.112C415.489 201.853 413.601 198.332 412.475 196.66C409.982 192.879 406.272 190.064 401.959 188.683L401.851 188.655L401.747 188.698C399.638 189.588 397.894 191.171 396.805 193.185C395.715 195.198 395.345 197.523 395.754 199.776C397.787 210.642 402.319 220.886 408.99 229.701L412.79 234.711L399.583 263.425L408.145 271.447Z" fill="#3D544C"/>
<path d="M327.529 132.169C328.175 132.911 328.65 133.784 328.921 134.729C329.193 135.674 329.254 136.666 329.1 137.637C328.946 138.608 328.581 139.533 328.031 140.348C327.481 141.162 326.759 141.846 325.916 142.352L330.803 165.738L319.259 161.168L316.388 139.66C315.633 138.188 315.444 136.489 315.858 134.887C316.271 133.285 317.258 131.89 318.632 130.966C320.005 130.043 321.669 129.655 323.309 129.877C324.949 130.099 326.45 130.914 327.529 132.169Z" fill="#FFB6B6"/>
<path d="M316.501 147.798L321.169 190.787L321.334 190.868C321.471 190.935 327.385 193.836 334.645 197.29C335.869 197.873 335.694 200.398 336.974 201.001C337.855 201.417 340.184 199.909 341.074 200.325C349.01 204.036 357.033 207.644 360.231 208.622C364.548 209.99 369.203 209.84 373.423 208.197L373.525 208.151L373.578 208.052C374.656 206.032 375.014 203.705 374.592 201.455C374.17 199.204 372.994 197.165 371.258 195.672C362.836 188.512 352.865 183.407 342.132 180.76L336.025 179.262L328.204 148.638L316.501 147.798Z" fill="#3D544C"/>
<path d="M376.609 177.537C385.082 177.537 391.95 170.669 391.95 162.196C391.95 153.724 385.082 146.855 376.609 146.855C368.137 146.855 361.269 153.724 361.269 162.196C361.269 170.669 368.137 177.537 376.609 177.537Z" fill="#FFB6B6"/>
<path d="M361.379 151.916C362.64 148.246 368.921 145.7 379.102 145.346C389.283 144.992 391.866 156.991 391.866 156.991C398.662 162.504 384.608 177.266 383.928 176.734L384.234 173.961C384.74 169.367 386.891 165.783 384.155 160.995L381.529 161.025C378.136 161.678 374.743 162.33 371.35 162.982L375.367 159.446L375.254 159.271C373.545 160.161 371.686 160.725 369.771 160.935C367.612 161.062 365.252 160.203 364.218 158.304C363.942 157.782 363.773 157.21 363.722 156.621C360.811 157.784 359.479 161.373 359.479 161.373C359.479 161.373 360.117 155.587 361.379 151.916Z" fill="#31413B"/>
<path d="M62.3079 152.837C62.0997 152.573 61.8756 152.322 61.6367 152.085C61.6951 152.005 61.7535 151.918 61.8119 151.837L62.3079 152.837Z" fill="#31413B"/>
<path d="M65.2907 214.537C62.7812 218.995 57.7696 221.482 52.8018 222.7C47.2217 224.162 41.3458 224.048 35.8265 222.372C35.1262 222.146 34.4258 221.883 33.7474 221.592C34.0736 220.725 34.3321 219.835 34.5207 218.929C34.7746 217.703 34.9017 216.453 34.9 215.201C34.3473 216.28 33.6312 217.266 32.7772 218.126C32.1184 218.819 31.3701 219.42 30.5522 219.914C28.0154 218.374 25.8187 216.334 24.0962 213.917C24.2056 213.647 24.3151 213.377 24.4172 213.108C24.9469 211.698 25.3664 210.249 25.6719 208.774C26.0864 206.78 26.2942 204.749 26.292 202.712C25.3925 204.467 24.226 206.072 22.8342 207.468C22.4169 207.915 21.9736 208.336 21.5065 208.731C20.7833 206.534 20.5037 204.216 20.684 201.91C20.8643 199.605 21.501 197.358 22.557 195.301C25.4458 189.961 31.0483 186.787 36.038 183.337C41.035 179.886 46.0321 175.218 46.4552 169.156C46.7397 165.063 44.843 160.963 45.6017 156.936C45.9208 155.238 46.6997 153.66 47.8537 152.375C49.0077 151.089 50.4924 150.144 52.1462 149.644C53.8 149.143 55.5594 149.106 57.2327 149.537C58.906 149.967 60.429 150.849 61.6359 152.085C58.8055 156.098 55.9897 160.248 54.8444 165.019C53.6772 169.878 54.6328 175.575 58.4627 178.792C59.7757 179.901 61.3879 180.689 62.4019 182.075C63.7515 183.913 63.7588 186.364 63.9776 188.626C64.4153 193.025 65.8524 197.256 66.6257 201.611C67.4063 205.958 67.45 210.678 65.2907 214.537Z" fill="#31413B"/>
<path d="M13.8496 395.441L20.5076 400.584L43.5175 377.352L33.6909 369.76L13.8496 395.441Z" fill="#A0616A"/>
<path d="M14.1317 390.414L25.1415 397.918L21.6574 402.427L26.3235 417.069C26.5541 417.792 26.5475 418.57 26.3046 419.289C26.0618 420.008 25.5954 420.631 24.9736 421.066C24.3518 421.502 23.6072 421.727 22.8484 421.709C22.0896 421.691 21.3564 421.431 20.7558 420.967L8.22614 411.285L9.51284 405.156L5.22321 408.965L0.499023 405.314L14.1317 390.414Z" fill="#31413B"/>
<path d="M47.627 165.797C47.626 168.398 48.2636 170.96 49.4838 173.258C50.704 175.555 52.4695 177.518 54.6253 178.973C56.7811 180.429 59.2613 181.333 61.8482 181.607C64.4351 181.88 67.0495 181.514 69.462 180.542C71.8745 179.569 74.0113 178.018 75.6849 176.027C77.3584 174.035 78.5175 171.664 79.0604 169.12C79.6033 166.576 79.5134 163.937 78.7985 161.436C78.0837 158.935 76.7659 156.648 74.9606 154.775L74.8844 154.698C74.7572 154.565 74.6301 154.431 74.4966 154.304L74.4941 154.304L74.4921 154.302L74.4907 154.3L74.4903 154.298C74.325 154.145 74.1597 153.993 73.988 153.847C71.1911 151.393 67.2601 148.73 63.249 148.73C54.4704 148.73 47.627 157.019 47.627 165.797Z" fill="#31413B"/>
<path d="M138.208 157.636C138.284 158.484 138.173 159.338 137.884 160.138C137.594 160.938 137.132 161.665 136.531 162.268C135.93 162.87 135.204 163.333 134.405 163.625C133.606 163.917 132.752 164.03 131.904 163.956L92.5523 199.486L85.7803 188.791L126.591 157.228C126.81 155.812 127.54 154.526 128.644 153.612C129.748 152.699 131.149 152.222 132.581 152.273C134.013 152.323 135.376 152.897 136.413 153.885C137.45 154.874 138.089 156.208 138.208 157.636Z" fill="#A0616A"/>
<path d="M75.7335 210.211C75.7335 210.211 77.1977 212.915 82.1991 208.739C86.2031 205.397 105.386 190.884 109.519 184.937C110.462 185.311 111.504 185.36 112.478 185.077C113.453 184.794 114.306 184.195 114.903 183.374L103.579 173.457C100.192 173.847 100.264 176.123 100.617 177.415L92.0757 181.285L70.0195 195.38L74.6404 208.275L75.7335 210.211Z" fill="#60F1BC"/>
<path d="M54.366 235.125L53.5412 239.053L52.8408 253.541L83.6748 255.236L82.7173 232.952L79.7286 228.042L54.366 235.125Z" fill="#A0616A"/>
<path d="M67.4343 182.8C74.7939 182.8 80.7601 176.834 80.7601 169.474C80.7601 162.114 74.7939 156.148 67.4343 156.148C60.0746 156.148 54.1084 162.114 54.1084 169.474C54.1084 176.834 60.0746 182.8 67.4343 182.8Z" fill="#A0616A"/>
<path d="M43.7753 218.626L43.6934 207.549C43.6915 203.563 45.0402 199.695 47.5196 196.574C49.999 193.453 53.4627 191.265 57.3456 190.366L57.3959 190.354L60.0309 186.804L70.7366 187.875L72.6988 191.885L80.4562 196.504L83.443 206.106C84.7385 206.969 85.8425 208.09 86.6866 209.398C87.5307 210.706 88.0967 212.174 88.3495 213.71C89.3636 220.187 84.8285 226.668 84.2891 227.411L82.8992 235.239L52.6629 240.574L52.4173 240.605L43.7753 218.626Z" fill="#60F1BC"/>
<path d="M83.7409 167.098C82.1865 168.083 80.5738 168.972 78.9116 169.761C77.2245 170.571 75.4599 171.209 73.6447 171.665C73.1253 170.525 72.4897 169.442 71.748 168.433C71.9388 169.629 71.9437 170.847 71.7626 172.044C68.7537 172.53 65.672 172.277 62.7825 171.308L60.273 167.098L60.0834 171.796C58.0043 172.176 55.9325 172.533 53.8535 172.905C53.7295 172.92 53.6055 172.949 53.4887 172.971C52.1975 167.149 54.0286 160.737 58.0992 156.856C60.1202 154.95 62.6413 153.656 65.3689 153.127C68.0965 152.597 70.9184 152.853 73.5061 153.865C73.8343 153.997 74.1699 154.143 74.4909 154.296L74.4914 154.299L74.4929 154.301L74.4953 154.303L74.4982 154.303C74.6878 154.398 74.8483 154.624 75.0599 154.602C84.1639 153.588 84.4558 160.65 83.7409 167.098Z" fill="#31413B"/>
<path d="M61.5713 378.258L68.2395 383.388L91.2029 360.109L81.3613 352.537L61.5713 378.258Z" fill="#A0616A"/>
<path d="M62.4493 373.696L73.4742 381.177L69.9991 385.693L74.6949 400.326C74.9269 401.049 74.9218 401.826 74.6804 402.546C74.439 403.266 73.9739 403.889 73.353 404.326C72.7321 404.762 71.9879 404.989 71.2291 404.972C70.4703 404.956 69.7365 404.698 69.135 404.235L56.5858 394.578L57.8601 388.447L53.5782 392.264L48.8467 388.623L62.4493 373.696Z" fill="#31413B"/>
<path d="M39.9337 349.846L39.9334 349.759L43.0937 344.313L39.8666 337.224L39.7698 319.011L40.2929 316.277C40.9965 312.599 40.7918 308.806 39.6966 305.226L39.6376 294.139C39.5242 291.362 43.8266 288.919 42.8233 286.604C33.3399 264.719 52.5074 248.024 52.6369 247.89L53.0286 247.483L55.1538 249.092L57.1765 249.095L84.4731 254.069L84.6702 254.436C85.7438 256.45 87.8158 263.391 87.9387 266.532C89.2992 268.107 104.795 286.039 106.173 287.285C115.482 295.707 120.811 309.648 123.16 317.208C123.743 319.077 123.86 321.059 123.502 322.984C123.144 324.908 122.32 326.715 121.104 328.249L85.8634 366.848L76.38 358.094L95.4481 323.348L94.0731 319.822C91.606 319.367 89.3733 318.07 87.7559 316.152L83.8947 311.569C82.8257 310.304 82.1463 308.755 81.939 307.112L79.5974 306.83L71.2099 298.024L65.3908 350.722L63.8088 354.885L36.2578 387.274L24.5859 379.979L39.9337 349.846Z" fill="#31413B"/>
<path d="M35.7262 123.569C35.1969 124.235 34.8201 125.009 34.6224 125.837C34.4247 126.665 34.4109 127.526 34.582 128.359C34.753 129.193 35.1048 129.979 35.6125 130.662C36.1202 131.345 36.7714 131.908 37.5204 132.312L28.7598 158.248L35.9133 185.733L47.4484 180.518L40.3303 159.787L45.6558 129.611C46.2512 128.308 46.3479 126.832 45.9275 125.462C45.5071 124.092 44.5989 122.924 43.3749 122.18C42.151 121.435 40.6963 121.165 39.2866 121.421C37.8769 121.677 36.6101 122.441 35.7262 123.569Z" fill="#A0616A"/>
<path d="M46.2846 208.379C46.2846 208.379 43.5753 209.834 41.6911 203.597C40.1826 198.604 29.917 171.494 29.732 164.254C28.7381 164.048 27.8411 163.517 27.1822 162.745C26.5233 161.973 26.1401 161.003 26.0928 159.99L41.0024 157.926C43.6187 160.114 42.3074 161.975 41.3026 162.861L46.3807 171.463L56.9948 194.684L48.2616 207.362L46.2846 208.379Z" fill="#60F1BC"/>
<path d="M53.8496 172.904C55.3807 168.287 58.1262 164.166 61.7981 160.975C65.4699 157.784 69.9328 155.64 74.7186 154.768C74.7376 154.762 74.8012 154.737 74.8839 154.698C74.9347 154.667 74.9983 154.635 75.0619 154.603C74.8712 154.495 74.6868 154.4 74.4961 154.304L74.4936 154.304L74.4916 154.302L74.4902 154.3L74.4898 154.298C74.3245 154.145 74.1592 153.993 73.9876 153.847L73.5045 153.866C73.5045 153.866 56.5258 151.177 53.8496 172.904Z" fill="#FD6584"/>
<path d="M272.936 321.4C274.789 318.615 273.692 314.628 270.486 312.495C267.28 310.362 263.179 310.891 261.326 313.676C259.473 316.461 260.57 320.448 263.776 322.581C266.982 324.714 271.083 324.185 272.936 321.4Z" fill="#F2F2F2"/>
<path d="M235.321 217.444C237.174 214.659 236.077 210.672 232.871 208.539C229.665 206.406 225.564 206.935 223.711 209.72C221.858 212.505 222.954 216.492 226.16 218.625C229.366 220.758 233.468 220.229 235.321 217.444Z" fill="#F2F2F2"/>
<path d="M392.622 377.482C394.476 374.697 393.379 370.71 390.173 368.577C386.967 366.444 382.866 366.972 381.012 369.758C379.159 372.543 380.256 376.53 383.462 378.663C386.668 380.796 390.769 380.267 392.622 377.482Z" fill="#F2F2F2"/>
<path d="M74.599 43.0438C76.4521 40.2585 75.3553 36.2715 72.1493 34.1385C68.9432 32.0056 64.8421 32.5343 62.989 35.3196C61.136 38.1048 62.2328 42.0919 65.4388 44.2248C68.6448 46.3578 72.746 45.829 74.599 43.0438Z" fill="#F2F2F2"/>
<path d="M223.01 10.2154C224.863 7.43019 223.766 3.44319 220.56 1.31021C217.354 -0.822761 213.253 -0.293999 211.4 2.49125C209.547 5.2765 210.644 9.26355 213.85 11.3965C217.056 13.5295 221.157 13.0007 223.01 10.2154Z" fill="#F2F2F2"/>
<path d="M152.772 285.641C154.625 282.856 153.528 278.869 150.322 276.736C147.116 274.603 143.015 275.132 141.162 277.917C139.309 280.702 140.406 284.689 143.612 286.822C146.818 288.955 150.919 288.426 152.772 285.641Z" fill="#E6E6E6"/>
<path d="M458.909 430.607H14.1586C13.9431 430.607 13.7366 430.52 13.5844 430.368C13.4321 430.215 13.3467 430.008 13.3467 429.793C13.3467 429.577 13.4321 429.37 13.5844 429.218C13.7366 429.065 13.9431 428.979 14.1586 428.979H458.909C459.125 428.979 459.332 429.064 459.485 429.217C459.638 429.37 459.724 429.577 459.724 429.793C459.724 430.009 459.638 430.216 459.485 430.369C459.332 430.521 459.125 430.607 458.909 430.607Z" fill="#CCCCCC"/>
<path d="M96.938 160.149C93.1969 160.138 89.5909 158.748 86.8095 156.246C84.0281 153.744 82.2663 150.305 81.861 146.586L73.1784 65.9469C72.7518 61.9431 73.9308 57.9336 76.4568 54.7981C78.9827 51.6625 82.6493 49.657 86.6521 49.2215L344.46 21.4625C348.463 21.0357 352.473 22.2146 355.609 24.7405C358.744 27.2664 360.75 30.9331 361.186 34.9359L369.868 115.575C370.295 119.579 369.116 123.588 366.59 126.724C364.064 129.86 360.397 131.865 356.394 132.301L98.5867 160.06C98.0391 160.119 97.4888 160.148 96.938 160.149Z" fill="#E6E6E6"/>
<path d="M341.621 25.2061C341.136 25.2063 340.652 25.2324 340.171 25.2843L91.6583 52.0424C89.9206 52.2295 88.2368 52.757 86.703 53.5949C85.1692 54.4327 83.8154 55.5645 82.719 56.9255C81.6226 58.2865 80.805 59.8501 80.3129 61.5271C79.8208 63.2041 79.6638 64.9617 79.8509 66.6993L84.241 107.471C84.9506 114.062 86.9515 120.449 90.1295 126.267C93.3075 132.085 97.6003 137.22 102.763 141.379C107.925 145.538 113.857 148.64 120.218 150.506C126.579 152.373 133.245 152.969 139.837 152.259L314.582 133.443C321.153 132.736 327.521 130.741 333.321 127.572C339.122 124.404 344.241 120.124 348.387 114.977C352.533 109.831 355.625 103.917 357.486 97.5757C359.347 91.2339 359.941 84.5877 359.234 78.0164L354.827 37.0916C354.476 33.8318 352.934 30.8163 350.497 28.6231C348.06 26.4298 344.899 25.2131 341.621 25.2061Z" fill="white"/>
<path d="M289.287 67.6379L150.39 82.5935C149.993 82.6368 149.592 82.6014 149.208 82.4893C148.825 82.3772 148.467 82.1906 148.156 81.9401C147.844 81.6897 147.586 81.3804 147.394 81.0299C147.202 80.6793 147.082 80.2944 147.039 79.8972C146.996 79.5 147.032 79.0983 147.145 78.715C147.257 78.3317 147.444 77.9743 147.695 77.6634C147.946 77.3525 148.256 77.094 148.607 76.9029C148.957 76.7117 149.342 76.5915 149.74 76.5493L288.636 61.5938C289.034 61.5505 289.435 61.5859 289.819 61.698C290.202 61.8101 290.56 61.9967 290.871 62.2471C291.182 62.4975 291.441 62.8069 291.633 63.1574C291.825 63.5079 291.945 63.8928 291.988 64.29C292.031 64.6872 291.995 65.089 291.882 65.4723C291.77 65.8556 291.583 66.2129 291.332 66.5239C291.081 66.8348 290.771 67.0932 290.42 67.2844C290.07 67.4756 289.685 67.5957 289.287 67.6379Z" fill="#60F1BC"/>
<path d="M291.284 86.1879L152.387 101.143C151.586 101.23 150.783 100.994 150.155 100.488C149.527 99.9826 149.126 99.2482 149.04 98.4467C148.954 97.6452 149.189 96.8423 149.695 96.2145C150.201 95.5867 150.935 95.1855 151.737 95.0992L290.633 80.1437C291.435 80.0574 292.238 80.293 292.866 80.7988C293.493 81.3045 293.895 82.0389 293.981 82.8404C294.067 83.6419 293.832 84.4449 293.326 85.0726C292.82 85.7004 292.086 86.1016 291.284 86.1879Z" fill="#60F1BC"/>
<path d="M170.571 117.95L154.384 119.693C153.583 119.779 152.78 119.544 152.152 119.038C151.524 118.532 151.123 117.798 151.037 116.996C150.951 116.195 151.186 115.392 151.692 114.764C152.198 114.136 152.932 113.735 153.734 113.649L169.92 111.906C170.317 111.863 170.719 111.898 171.102 112.01C171.486 112.122 171.844 112.309 172.155 112.559C172.466 112.81 172.725 113.119 172.917 113.47C173.108 113.82 173.229 114.205 173.272 114.602C173.314 114.999 173.278 115.401 173.166 115.784C173.053 116.168 172.866 116.525 172.615 116.836C172.364 117.147 172.055 117.405 171.704 117.597C171.353 117.788 170.968 117.908 170.571 117.95Z" fill="#60F1BC"/>
<path d="M91.4733 69.3495C94.4951 69.3495 96.9447 66.8999 96.9447 63.8781C96.9447 60.8564 94.4951 58.4067 91.4733 58.4067C88.4516 58.4067 86.002 60.8564 86.002 63.8781C86.002 66.8999 88.4516 69.3495 91.4733 69.3495Z" fill="#3D544C"/>
<path d="M336.317 41.9926C339.339 41.9926 341.788 39.5429 341.788 36.5212C341.788 33.4994 339.339 31.0498 336.317 31.0498C333.295 31.0498 330.846 33.4994 330.846 36.5212C330.846 39.5429 333.295 41.9926 336.317 41.9926Z" fill="#3D544C"/>
<path d="M262.347 154.318C261.844 153.876 261.446 153.328 261.182 152.714C260.917 152.099 260.793 151.433 260.818 150.764C261.093 142.817 259.784 134.895 256.967 127.459C256.729 126.833 256.632 126.163 256.685 125.496C256.738 124.829 256.938 124.182 257.273 123.602C257.593 123.045 258.031 122.564 258.557 122.195C259.082 121.825 259.683 121.575 260.315 121.462C266.675 117.624 273.194 116.546 279.696 118.26C280.745 118.106 281.814 118.33 282.712 118.893C283.61 119.456 284.277 120.32 284.595 121.331C287.228 129.878 288.692 138.741 288.948 147.68C288.973 148.752 288.61 149.797 287.925 150.623C287.241 151.449 286.282 152.001 285.224 152.177L265.983 155.355C265.338 155.463 264.677 155.426 264.048 155.247C263.419 155.067 262.838 154.75 262.347 154.318Z" fill="#60F1BC"/>
<path d="M264.056 131.163L280.251 128.488C280.384 128.466 280.511 128.418 280.626 128.347C280.741 128.276 280.84 128.183 280.919 128.074C280.998 127.964 281.054 127.84 281.085 127.709C281.115 127.577 281.12 127.441 281.098 127.308C281.076 127.175 281.028 127.047 280.957 126.933C280.885 126.818 280.792 126.719 280.682 126.641C280.572 126.562 280.448 126.506 280.317 126.476C280.185 126.445 280.049 126.441 279.916 126.463L263.722 129.139C263.454 129.184 263.214 129.333 263.056 129.554C262.899 129.775 262.835 130.05 262.879 130.318C262.923 130.586 263.072 130.825 263.293 130.984C263.513 131.142 263.788 131.207 264.056 131.163Z" fill="white"/>
<path d="M265.394 139.26L281.588 136.585C281.857 136.541 282.097 136.391 282.255 136.17C282.413 135.949 282.478 135.674 282.433 135.406C282.389 135.137 282.24 134.897 282.019 134.739C281.797 134.58 281.522 134.516 281.254 134.561L265.059 137.236C264.926 137.258 264.798 137.306 264.684 137.377C264.569 137.448 264.47 137.541 264.391 137.65C264.312 137.76 264.256 137.884 264.225 138.015C264.194 138.147 264.19 138.283 264.212 138.416C264.234 138.549 264.282 138.676 264.353 138.791C264.425 138.906 264.518 139.005 264.628 139.083C264.737 139.162 264.862 139.218 264.993 139.248C265.124 139.279 265.261 139.283 265.394 139.26Z" fill="white"/>
<path d="M266.731 147.358L282.926 144.682C283.194 144.638 283.434 144.489 283.593 144.268C283.751 144.046 283.815 143.771 283.771 143.503C283.726 143.234 283.577 142.995 283.356 142.836C283.135 142.678 282.86 142.614 282.591 142.658L266.397 145.333C266.264 145.355 266.137 145.403 266.022 145.474C265.908 145.546 265.808 145.639 265.73 145.748C265.652 145.858 265.595 145.982 265.565 146.113C265.534 146.244 265.53 146.38 265.552 146.513C265.574 146.646 265.622 146.773 265.693 146.887C265.764 147.002 265.857 147.101 265.967 147.18C266.076 147.258 266.2 147.314 266.331 147.345C266.462 147.375 266.598 147.38 266.731 147.358Z" fill="white"/>
</g>
<defs>
<clipPath id="clip0_2387_3690">
<rect width="500" height="430.607" fill="white" transform="translate(0.5)"/>
</clipPath>
</defs>
</svg>
