<svg width="28" height="28" viewBox="0 0 28 28" fill="none" xmlns="http://www.w3.org/2000/svg">
<path d="M14 0L14.0027 13.9862L19.3576 1.06568L14.0078 13.9884L23.8995 4.10051L14.0116 13.9922L26.9343 8.6424L14.0138 13.9973L28 14L14.0138 14.0027L26.9343 19.3576L14.0116 14.0078L23.8995 23.8995L14.0078 14.0116L19.3576 26.9343L14.0027 14.0138L14 28L13.9973 14.0138L8.6424 26.9343L13.9922 14.0116L4.10051 23.8995L13.9884 14.0078L1.06568 19.3576L13.9862 14.0027L0 14L13.9862 13.9973L1.06568 8.6424L13.9884 13.9922L4.10051 4.10051L13.9922 13.9884L8.6424 1.06568L13.9973 13.9862L14 0Z" stroke="white" stroke-width="0.451613"/>
</svg>
