<svg width="507" height="301" viewBox="0 0 507 301" fill="none" xmlns="http://www.w3.org/2000/svg">
<g clip-path="url(#clip0_14_1167)">
<path d="M451.083 88.4145H221.253C218.018 88.4174 214.916 89.7039 212.629 91.9915C210.341 94.279 209.055 97.3808 209.052 100.616V137.863C209.055 141.098 210.341 144.199 212.629 146.487C214.916 148.775 218.018 150.061 221.253 150.064H451.083C454.318 150.061 457.42 148.775 459.707 146.487C461.995 144.199 463.281 141.098 463.284 137.863V100.616C463.281 97.3808 461.995 94.279 459.707 91.9915C457.419 89.7039 454.318 88.4174 451.083 88.4145Z" fill="#F2F2F2"/>
<path d="M135.668 301H44.2315C44.0375 301 43.8514 300.923 43.7142 300.786C43.5771 300.649 43.5 300.463 43.5 300.269C43.5 300.075 43.5771 299.889 43.7142 299.751C43.8514 299.614 44.0375 299.537 44.2315 299.537H135.668C135.862 299.537 136.048 299.614 136.185 299.751C136.322 299.889 136.399 300.075 136.399 300.269C136.399 300.463 136.322 300.649 136.185 300.786C136.048 300.923 135.862 301 135.668 301Z" fill="#35435E"/>
<path d="M122.242 71.9661C121.394 72.5013 120.674 73.216 120.132 74.0597C119.59 74.9035 119.24 75.8557 119.106 76.8495C118.972 77.8433 119.057 78.8543 119.356 79.8115C119.655 80.7686 120.161 81.6486 120.836 82.3894L114.189 96.5844L121.83 102.728L130.936 82.55C132.105 81.3321 132.787 79.7277 132.852 78.0407C132.918 76.3536 132.362 74.7012 131.29 73.3966C130.219 72.092 128.706 71.2258 127.038 70.9621C125.371 70.6985 123.664 71.0557 122.242 71.9661Z" fill="#6C5050"/>
<path d="M84.0426 77.7265C86.1464 76.4629 88.6558 76.0574 91.0505 76.5942C93.4452 77.131 95.5414 78.569 96.9043 80.6098L110.506 100.976L115.228 90.566C115.523 89.9159 116.046 89.3961 116.697 89.1043C117.348 88.8126 118.084 88.769 118.765 88.9818L125.892 91.2082C126.265 91.3245 126.61 91.5141 126.908 91.7658C127.206 92.0175 127.451 92.3263 127.628 92.6739C127.805 93.0216 127.91 93.4011 127.938 93.7902C127.967 94.1793 127.917 94.5701 127.791 94.9396L122.913 109.346C122.296 111.168 121.264 112.823 119.9 114.179C118.536 115.536 116.876 116.558 115.05 117.165C113.225 117.773 111.283 117.949 109.378 117.679C107.473 117.41 105.656 116.702 104.071 115.613C103.33 115.104 102.646 114.516 102.032 113.859L81.987 92.4417C81.0137 91.4017 80.2852 90.1571 79.8551 88.7991C79.4249 87.4411 79.304 86.0041 79.501 84.5933C79.6981 83.1825 80.2082 81.8337 80.994 80.6455C81.7798 79.4574 82.8215 78.46 84.0426 77.7265Z" fill="#CCCCCC"/>
<path d="M128.044 56.6829C128.409 56.692 128.756 56.8457 129.007 57.1103C129.259 57.3748 129.395 57.7286 129.386 58.0937L129.269 62.821L129.506 62.8426L129.421 66.0534L129.189 66.0245L128.769 82.9603C128.754 83.5399 128.529 84.0946 128.136 84.5206C127.743 84.9467 127.208 85.2151 126.631 85.2759L115.863 86.4096C115.6 86.4372 115.335 86.4071 115.086 86.3214C114.837 86.2358 114.609 86.0966 114.419 85.9137C114.229 85.7308 114.082 85.5085 113.987 85.2626C113.892 85.0166 113.852 84.7528 113.87 84.4898L115.503 60.3745C115.537 59.868 115.743 59.3882 116.086 59.014C116.429 58.6399 116.889 58.3936 117.391 58.3156L127.787 56.7006C127.872 56.6867 127.958 56.6808 128.044 56.6829Z" fill="#35435E"/>
<path d="M119.71 59.1928L125.175 58.3438C125.273 58.3285 125.364 58.2812 125.433 58.2092C125.502 58.1373 125.545 58.0446 125.556 57.9457C125.568 57.8336 125.617 57.7287 125.695 57.6471C125.772 57.5656 125.875 57.5121 125.986 57.4948L127.138 57.3159C127.295 57.2915 127.455 57.3019 127.608 57.3463C127.761 57.3907 127.902 57.4681 128.021 57.5729C128.141 57.6778 128.236 57.8076 128.299 57.9532C128.363 58.0988 128.394 58.2566 128.391 58.4155L127.799 82.9695C127.791 83.2742 127.672 83.5656 127.464 83.7879C127.255 84.0103 126.972 84.1481 126.669 84.1751L115.908 85.1318C115.77 85.144 115.632 85.1265 115.502 85.0803C115.372 85.0342 115.254 84.9606 115.155 84.8645C115.056 84.7684 114.98 84.6522 114.93 84.5236C114.88 84.3951 114.859 84.2574 114.867 84.1198L116.319 60.2273C116.34 59.8753 116.481 59.5412 116.719 59.2804C116.956 59.0197 117.276 58.8479 117.624 58.7938L118.838 58.6053C118.883 58.795 118.997 58.961 119.159 59.0699C119.32 59.1788 119.517 59.2227 119.71 59.1928Z" fill="white"/>
<path d="M94.3545 292.121L102.717 292.12L106.694 259.864L94.3516 259.866L94.3545 292.121Z" fill="#6C5050"/>
<path d="M118.845 299.884L92.563 299.887L92.5621 289.732L108.69 289.731C110.023 289.73 111.344 289.993 112.576 290.503C113.808 291.013 114.927 291.761 115.87 292.704C116.813 293.647 117.561 294.766 118.072 295.998C118.582 297.23 118.845 298.551 118.845 299.884Z" fill="#2E3141"/>
<path d="M68.6528 292.121L77.0152 292.12L80.9923 259.864L68.6499 259.866L68.6528 292.121Z" fill="#6C5050"/>
<path d="M93.144 299.884L66.8618 299.887L66.8609 289.732L82.9886 289.731C85.6818 289.73 88.2647 290.8 90.1692 292.704C92.0737 294.608 93.1438 297.191 93.144 299.884Z" fill="#2E3141"/>
<path d="M93.1439 66.764C103.066 66.764 111.11 58.7203 111.11 48.7979C111.11 38.8754 103.066 30.8317 93.1439 30.8317C83.2214 30.8317 75.1777 38.8754 75.1777 48.7979C75.1777 58.7203 83.2214 66.764 93.1439 66.764Z" fill="#6C5050"/>
<path d="M102.39 96.8659C102.244 92.2468 100.943 87.7379 98.6078 83.75C96.2723 79.7622 92.9759 76.4222 89.0191 74.0345C84.3775 71.2994 79.297 70.2327 75.255 74.2747C72.828 76.7626 70.8843 79.6798 69.5231 82.8778C65.7841 91.5926 65.5395 101.411 68.8399 110.302L78.4601 136.88L100.726 139.292C101.144 139.337 101.567 139.292 101.966 139.159C102.366 139.026 102.731 138.808 103.039 138.521C103.346 138.234 103.588 137.884 103.748 137.494C103.908 137.105 103.982 136.686 103.965 136.266L102.39 96.8659Z" fill="#2E3141"/>
<path d="M79.8718 133.607C79.8718 133.607 63.2368 139.817 67.586 166.113C71.4887 189.71 68.3873 268.031 67.7094 283.863C67.6771 284.618 67.9382 285.356 68.4379 285.922C68.9375 286.489 69.637 286.84 70.3898 286.902L80.1003 287.711C80.8609 287.774 81.6161 287.538 82.2049 287.052C82.7937 286.567 83.1695 285.87 83.2521 285.112L88.2671 239.047C88.2868 238.866 88.3731 238.699 88.5092 238.579C88.6453 238.458 88.8214 238.393 89.0032 238.395C89.185 238.397 89.3595 238.467 89.4926 238.591C89.6257 238.715 89.708 238.884 89.7232 239.065L93.4602 283.39C93.5231 284.136 93.8703 284.831 94.43 285.329C94.9897 285.827 95.7193 286.092 96.4683 286.068L104.625 285.81C105.009 285.798 105.387 285.71 105.738 285.552C106.088 285.393 106.404 285.167 106.667 284.887C106.93 284.606 107.135 284.277 107.27 283.917C107.406 283.557 107.469 283.174 107.456 282.79L102.652 136.678L79.8718 133.607Z" fill="#2E3141"/>
<path d="M96.7496 47.6141C102.758 50.0785 110.432 47.1998 113.337 41.3914C116.242 35.583 113.943 27.7164 108.367 24.3867C102.791 21.057 94.7751 22.7637 91.0393 28.076C88.0004 22.6011 80.0392 21.2053 74.5732 24.2602C69.1072 27.3152 66.1299 33.714 65.7768 39.9658C65.4237 46.2176 67.3244 52.3765 69.643 58.1931C73.3934 67.602 85.4673 72.6681 94.8086 68.7524C90.5321 62.3831 91.3763 53.0624 96.7496 47.6141Z" fill="#2E3141"/>
<path d="M120.963 74.1444C120.803 74.1447 120.647 74.0929 120.519 73.997L120.511 73.991L118.841 72.7132C118.764 72.6539 118.699 72.5799 118.65 72.4955C118.601 72.4111 118.569 72.318 118.557 72.2213C118.544 72.1247 118.55 72.0265 118.576 71.9323C118.601 71.8381 118.644 71.7498 118.704 71.6725C118.763 71.5951 118.837 71.5302 118.921 71.4814C119.006 71.4326 119.099 71.4009 119.195 71.3882C119.292 71.3754 119.39 71.3818 119.484 71.407C119.579 71.4322 119.667 71.4757 119.744 71.535L120.826 72.3647L123.383 69.0291C123.442 68.9518 123.516 68.8868 123.601 68.8381C123.685 68.7893 123.778 68.7577 123.875 68.7449C123.971 68.7322 124.069 68.7386 124.164 68.7637C124.258 68.7889 124.346 68.8324 124.423 68.8917C124.579 69.0116 124.682 69.1886 124.708 69.3837C124.734 69.5788 124.681 69.7761 124.561 69.9324L121.554 73.854C121.484 73.9443 121.395 74.0175 121.292 74.0677C121.19 74.1179 121.078 74.1438 120.963 74.1435L120.963 74.1444Z" fill="#04A1F7"/>
<path d="M451.298 0.295898H221.469C218.234 0.298829 215.132 1.58529 212.845 3.87287C210.557 6.16046 209.271 9.26223 209.268 12.4974V49.7439C209.271 52.9791 210.557 56.0809 212.845 58.3685C215.132 60.656 218.234 61.9425 221.469 61.9454H451.298C454.534 61.9425 457.635 60.656 459.923 58.3685C462.211 56.0809 463.497 52.9791 463.5 49.7439V12.4974C463.497 9.26223 462.211 6.16044 459.923 3.87286C457.635 1.58528 454.534 0.298829 451.298 0.295898ZM462.216 49.7439C462.211 52.6381 461.06 55.4125 459.013 57.459C456.967 59.5054 454.193 60.6569 451.298 60.661H221.469C218.575 60.6569 215.8 59.5054 213.754 57.459C211.708 55.4125 210.556 52.6381 210.552 49.7439V12.4974C210.556 9.60323 211.708 6.8288 213.754 4.78233C215.8 2.73587 218.575 1.58435 221.469 1.58026H451.298C454.193 1.58435 456.967 2.73587 459.013 4.78233C461.06 6.8288 462.211 9.60323 462.216 12.4974V49.7439Z" fill="#35435E"/>
<path d="M268.24 52.3574C264.04 52.3574 259.934 51.112 256.441 48.7785C252.949 46.4449 250.227 43.1282 248.62 39.2477C247.012 35.3672 246.592 31.0972 247.411 26.9777C248.23 22.8581 250.253 19.0741 253.223 16.104C256.193 13.134 259.977 11.1114 264.097 10.2919C268.216 9.47249 272.486 9.89304 276.367 11.5004C280.247 13.1078 283.564 15.8297 285.897 19.3221C288.231 22.8145 289.476 26.9204 289.476 31.1206C289.47 36.751 287.231 42.1489 283.249 46.1302C279.268 50.1115 273.87 52.351 268.24 52.3574Z" fill="#04A1F7"/>
<path d="M419.94 48.4596H309.557C308.194 48.4596 306.888 47.9184 305.924 46.9549C304.961 45.9914 304.419 44.6847 304.419 43.3222C304.419 41.9596 304.961 40.6529 305.924 39.6894C306.888 38.726 308.194 38.1847 309.557 38.1847H419.94C421.303 38.1847 422.61 38.726 423.573 39.6894C424.537 40.6529 425.078 41.9596 425.078 43.3222C425.078 44.6847 424.537 45.9914 423.573 46.9549C422.61 47.9184 421.303 48.4596 419.94 48.4596Z" fill="#CCCCCC"/>
<path d="M346.089 26.6253H309.557C308.194 26.6253 306.888 26.0841 305.924 25.1206C304.961 24.1571 304.419 22.8504 304.419 21.4879C304.419 20.1253 304.961 18.8186 305.924 17.8551C306.888 16.8917 308.194 16.3504 309.557 16.3504H346.089C347.452 16.3504 348.759 16.8917 349.722 17.8551C350.686 18.8186 351.227 20.1253 351.227 21.4879C351.227 22.8504 350.686 24.1571 349.722 25.1206C348.759 26.0841 347.452 26.6253 346.089 26.6253Z" fill="#CCCCCC"/>
<path d="M267.155 38.5906C266.628 38.5915 266.115 38.4211 265.694 38.105L265.667 38.0854L260.163 33.8747C259.908 33.6795 259.693 33.4358 259.532 33.1576C259.371 32.8794 259.266 32.5722 259.223 32.2534C259.181 31.9347 259.202 31.6107 259.285 31.3C259.368 30.9894 259.511 30.6981 259.707 30.4429C259.903 30.1877 260.147 29.9736 260.425 29.8128C260.704 29.652 261.011 29.5477 261.33 29.5059C261.649 29.464 261.973 29.4855 262.283 29.5689C262.594 29.6524 262.885 29.7963 263.14 29.9923L266.705 32.7263L275.13 21.7352C275.325 21.4803 275.569 21.2665 275.847 21.1058C276.125 20.9452 276.432 20.8408 276.75 20.7988C277.068 20.7567 277.392 20.7778 277.702 20.8608C278.012 20.9437 278.303 21.087 278.558 21.2824L278.558 21.2829L278.506 21.3555L278.56 21.2829C279.074 21.678 279.41 22.2609 279.495 22.9037C279.58 23.5465 279.406 24.1967 279.012 24.7116L269.103 37.6338C268.873 37.9316 268.579 38.1725 268.241 38.3379C267.904 38.5034 267.533 38.5888 267.157 38.5878L267.155 38.5906Z" fill="white"/>
<path d="M352.547 100.51H122.718C119.483 100.513 116.381 101.799 114.094 104.087C111.806 106.375 110.52 109.476 110.517 112.711V149.958C110.52 153.193 111.806 156.295 114.094 158.583C116.381 160.87 119.483 162.157 122.718 162.16H352.547C355.783 162.157 358.884 160.87 361.172 158.583C363.46 156.295 364.746 153.193 364.749 149.958V112.711C364.746 109.476 363.46 106.375 361.172 104.087C358.884 101.799 355.783 100.513 352.547 100.51Z" fill="white"/>
<path d="M352.547 100.51H122.718C119.483 100.513 116.381 101.799 114.094 104.087C111.806 106.375 110.52 109.476 110.517 112.711V149.958C110.52 153.193 111.806 156.295 114.094 158.583C116.381 160.87 119.483 162.157 122.718 162.16H352.547C355.783 162.157 358.884 160.87 361.172 158.583C363.46 156.295 364.746 153.193 364.749 149.958V112.711C364.746 109.476 363.46 106.375 361.172 104.087C358.884 101.799 355.783 100.513 352.547 100.51ZM363.465 149.958C363.46 152.852 362.309 155.627 360.262 157.673C358.216 159.72 355.442 160.871 352.547 160.875H122.718C119.824 160.871 117.049 159.72 115.003 157.673C112.957 155.627 111.805 152.852 111.801 149.958V112.711C111.805 109.817 112.957 107.043 115.003 104.996C117.049 102.95 119.824 101.798 122.718 101.794H352.547C355.442 101.798 358.216 102.95 360.262 104.996C362.309 107.043 363.46 109.817 363.465 112.711V149.958Z" fill="#35435E"/>
<path d="M169.489 152.571C165.289 152.571 161.183 151.326 157.69 148.993C154.198 146.659 151.476 143.342 149.869 139.462C148.261 135.581 147.841 131.311 148.66 127.192C149.479 123.072 151.502 119.288 154.472 116.318C157.442 113.348 161.226 111.325 165.346 110.506C169.465 109.687 173.735 110.107 177.616 111.714C181.496 113.322 184.813 116.044 187.146 119.536C189.48 123.029 190.726 127.134 190.726 131.335C190.719 136.965 188.48 142.363 184.498 146.344C180.517 150.326 175.119 152.565 169.489 152.571Z" fill="#04A1F7"/>
<path d="M321.189 148.674H210.806C209.443 148.674 208.137 148.132 207.173 147.169C206.21 146.206 205.668 144.899 205.668 143.536C205.668 142.174 206.21 140.867 207.173 139.904C208.137 138.94 209.443 138.399 210.806 138.399H321.189C322.552 138.399 323.859 138.94 324.822 139.904C325.786 140.867 326.327 142.174 326.327 143.536C326.327 144.899 325.786 146.206 324.822 147.169C323.859 148.132 322.552 148.674 321.189 148.674Z" fill="#CCCCCC"/>
<path d="M247.338 126.839H210.806C210.131 126.839 209.463 126.707 208.84 126.448C208.217 126.19 207.65 125.812 207.173 125.335C206.696 124.858 206.318 124.291 206.06 123.668C205.801 123.045 205.668 122.377 205.668 121.702C205.668 121.027 205.801 120.359 206.06 119.736C206.318 119.113 206.696 118.546 207.173 118.069C207.65 117.592 208.217 117.214 208.84 116.956C209.463 116.697 210.131 116.565 210.806 116.565H247.338C248.701 116.565 250.008 117.106 250.971 118.069C251.935 119.033 252.476 120.339 252.476 121.702C252.476 123.065 251.935 124.371 250.971 125.335C250.008 126.298 248.701 126.839 247.338 126.839Z" fill="#CCCCCC"/>
<path d="M168.404 138.805C167.877 138.806 167.364 138.635 166.943 138.319L166.916 138.299L161.412 134.089C161.157 133.894 160.942 133.65 160.781 133.372C160.62 133.094 160.515 132.786 160.472 132.468C160.43 132.149 160.451 131.825 160.534 131.514C160.617 131.203 160.76 130.912 160.956 130.657C161.152 130.402 161.396 130.188 161.674 130.027C161.953 129.866 162.26 129.762 162.579 129.72C162.898 129.678 163.222 129.7 163.532 129.783C163.843 129.866 164.134 130.01 164.389 130.206L167.954 132.94L176.379 121.949C176.574 121.694 176.818 121.481 177.096 121.32C177.374 121.159 177.681 121.055 177.999 121.013C178.317 120.971 178.641 120.992 178.951 121.075C179.261 121.158 179.552 121.301 179.807 121.496L179.807 121.497L179.755 121.57L179.809 121.497C180.323 121.892 180.659 122.475 180.744 123.118C180.829 123.761 180.655 124.411 180.261 124.926L170.352 137.848C170.122 138.146 169.828 138.387 169.49 138.552C169.153 138.717 168.782 138.803 168.406 138.802L168.404 138.805Z" fill="white"/>
<path d="M115.266 108.912C114.342 108.521 113.344 108.338 112.342 108.375C111.34 108.412 110.358 108.668 109.466 109.125C108.573 109.582 107.792 110.23 107.177 111.022C106.562 111.814 106.128 112.731 105.905 113.709L90.4559 116.355L89.7744 126.136L111.539 122.092C113.207 122.357 114.913 122 116.336 121.091C117.758 120.181 118.797 118.782 119.257 117.157C119.716 115.532 119.563 113.796 118.828 112.276C118.092 110.757 116.825 109.56 115.266 108.912Z" fill="#6C5050"/>
<path d="M88.7269 80.8385C90.9655 81.8443 92.7311 83.673 93.6575 85.9456C94.5839 88.2181 94.6001 90.76 93.7028 93.0442L84.7474 115.839L95.9901 113.772C96.6921 113.643 97.4171 113.776 98.0286 114.144C98.6401 114.512 99.0958 115.091 99.3101 115.772L101.551 122.894C101.668 123.267 101.71 123.658 101.673 124.047C101.637 124.435 101.523 124.812 101.339 125.156C101.154 125.5 100.903 125.803 100.599 126.048C100.296 126.294 99.9467 126.476 99.5719 126.584L84.9589 130.803C83.1104 131.337 81.1634 131.435 79.2706 131.089C77.3779 130.744 75.591 129.965 74.0501 128.812C72.5093 127.66 71.2564 126.167 70.39 124.449C69.5235 122.731 69.0671 120.836 69.0563 118.912C69.0513 118.013 69.1437 117.116 69.3319 116.236L75.472 87.552C75.7702 86.1591 76.3762 84.8505 77.2455 83.722C78.1149 82.5936 79.2256 81.6738 80.4964 81.0302C81.7672 80.3865 83.1658 80.0353 84.5899 80.0021C86.0141 79.9689 87.4275 80.2547 88.7269 80.8385Z" fill="#CCCCCC"/>
</g>
<defs>
<clipPath id="clip0_14_1167">
<rect width="420" height="300.704" fill="white" transform="translate(43.5 0.295898)"/>
</clipPath>
</defs>
</svg>
