<svg width="621" height="587" viewBox="0 0 621 587" fill="none" xmlns="http://www.w3.org/2000/svg">
<g filter="url(#filter0_d_14_1035)">
<path d="M17 33C17 21.9543 25.9543 13 37 13H584C595.046 13 604 21.9543 604 33V546C604 557.046 595.046 566 584 566H37C25.9543 566 17 557.046 17 546V33Z" fill="white" shape-rendering="crispEdges"/>
<path d="M65.8125 84.3906C63.7812 84.3906 62.0781 83.75 60.7031 82.4844C59.3281 81.2188 58.6406 79.6406 58.6406 77.7656H61.6094C61.6094 78.9062 62.0156 79.8438 62.8438 80.6094C63.6719 81.375 64.6719 81.7656 65.875 81.7656C67.0469 81.7656 68.0312 81.4219 68.8125 80.75C69.5781 80.0781 69.9688 79.25 69.9688 78.2344C69.9688 76.25 68.3594 74.875 65.1406 74.0781C61.0469 73.0781 59 70.9219 59 67.6094C59 65.875 59.6562 64.4375 60.9531 63.2656C62.25 62.1094 63.8594 61.5312 65.8125 61.5312C67.75 61.5312 69.375 62.1406 70.6719 63.3438C71.9688 64.5469 72.625 66.0625 72.625 67.875H69.6562C69.6562 66.8125 69.2812 65.9219 68.5469 65.2188C67.8125 64.5156 66.8906 64.1562 65.7812 64.1562C64.7188 64.1562 63.8281 64.4688 63.0938 65.1094C62.3594 65.75 62 66.5469 62 67.4844C62 69.375 63.5 70.7188 66.5156 71.4844C70.8281 72.5469 72.9844 74.7344 72.9844 78.0469C72.9844 79.8594 72.2969 81.375 70.9375 82.5781C69.5781 83.7812 67.8594 84.3906 65.8125 84.3906ZM92.9844 75.8438C92.9844 76.1875 92.9688 76.5625 92.9219 76.9844H78.5781C78.8125 78.4375 79.4688 79.6094 80.5312 80.5C81.5781 81.4062 82.8438 81.8594 84.3125 81.8594C85.5312 81.8594 86.6094 81.5781 87.5625 81C88.5156 80.4375 89.2031 79.7031 89.625 78.7812H92.6562C92.0625 80.4688 91.0156 81.8281 89.5312 82.8438C88.0312 83.875 86.2969 84.3906 84.3125 84.3906C81.8281 84.3906 79.7656 83.5781 78.125 81.9375C76.4688 80.2969 75.6406 78.2656 75.6406 75.8281C75.6406 73.4062 76.4688 71.375 78.125 69.7344C79.7656 68.1094 81.8281 67.2969 84.3125 67.2969C86.7812 67.2969 88.8438 68.1094 90.5 69.75C92.1562 71.3906 92.9844 73.4219 92.9844 75.8438ZM88.0781 71.1406C87.0156 70.2656 85.7656 69.8281 84.3125 69.8281C82.8594 69.8281 81.625 70.2656 80.5938 71.125C79.5469 71.9844 78.8906 73.125 78.6094 74.5312H90.0469C89.7812 73.1406 89.125 72.0156 88.0781 71.1406ZM99.2656 60.9531V81.4688H102.266V84H96.5156V60.9531H99.2656ZM121.391 75.8438C121.391 76.1875 121.375 76.5625 121.328 76.9844H106.984C107.219 78.4375 107.875 79.6094 108.938 80.5C109.984 81.4062 111.25 81.8594 112.719 81.8594C113.938 81.8594 115.016 81.5781 115.969 81C116.922 80.4375 117.609 79.7031 118.031 78.7812H121.062C120.469 80.4688 119.422 81.8281 117.938 82.8438C116.438 83.875 114.703 84.3906 112.719 84.3906C110.234 84.3906 108.172 83.5781 106.531 81.9375C104.875 80.2969 104.047 78.2656 104.047 75.8281C104.047 73.4062 104.875 71.375 106.531 69.7344C108.172 68.1094 110.234 67.2969 112.719 67.2969C115.188 67.2969 117.25 68.1094 118.906 69.75C120.562 71.3906 121.391 73.4219 121.391 75.8438ZM116.484 71.1406C115.422 70.2656 114.172 69.8281 112.719 69.8281C111.266 69.8281 110.031 70.2656 109 71.125C107.953 71.9844 107.297 73.125 107.016 74.5312H118.453C118.188 73.1406 117.531 72.0156 116.484 71.1406ZM132.562 84.3906C130.078 84.3906 128.016 83.5781 126.359 81.9375C124.688 80.2969 123.859 78.2656 123.859 75.8281C123.859 73.4062 124.688 71.375 126.359 69.7344C128.016 68.1094 130.078 67.2969 132.562 67.2969C134.641 67.2969 136.453 67.8906 138.016 69.0938C139.562 70.2969 140.562 71.8594 140.984 73.7656H138.062C137.641 72.625 136.938 71.7031 135.953 71C134.969 70.2969 133.844 69.9531 132.562 69.9531C130.875 69.9531 129.484 70.5156 128.375 71.625C127.266 72.75 126.703 74.1562 126.703 75.8438C126.703 77.5312 127.266 78.9375 128.375 80.0469C129.484 81.1719 130.875 81.7344 132.562 81.7344C133.844 81.7344 134.969 81.375 135.953 80.6719C136.938 79.9688 137.641 79.0469 138.062 77.9219H140.984C140.562 79.8125 139.562 81.375 138.016 82.5781C136.453 83.7812 134.641 84.3906 132.562 84.3906ZM152.656 67.6875V70.1719H148.078V81.4688H152.656V84H145.328V70.1719H142.172V67.6875H145.328V62.875H148.078V67.6875H152.656ZM176.422 67.6875V81.5H178.562V84H173.953V81.8906C172.938 83.4375 171.016 84.3906 168.812 84.3906C167.125 84.3906 165.719 83.875 164.609 82.8281C163.484 81.7969 162.922 80.5 162.922 78.9375C162.922 77.4062 163.484 76.125 164.609 75.0781C165.719 74.0469 167.125 73.5312 168.812 73.5312H173.672V70.3438H164V67.6875H176.422ZM169.156 81.8906C170.5 81.8906 171.594 81.5938 172.422 80.9844C173.25 80.3906 173.672 79.6094 173.672 78.6562V76.0312H169.156C168.172 76.0312 167.375 76.3125 166.734 76.8594C166.094 77.4219 165.766 78.1094 165.766 78.9375C165.766 79.7969 166.094 80.5 166.734 81.0469C167.375 81.6094 168.172 81.8906 169.156 81.8906ZM202.734 70.7812V60.9531H205.484V84H202.734V80.8906C201.359 83.0625 199.078 84.3906 196.391 84.3906C194.062 84.3906 192.125 83.5781 190.578 81.9375C189.016 80.2969 188.234 78.2656 188.234 75.8281C188.234 73.4062 189.016 71.375 190.578 69.7344C192.125 68.1094 194.062 67.2969 196.391 67.2969C199.078 67.2969 201.359 68.6094 202.734 70.7812ZM196.906 81.7344C198.578 81.7344 199.969 81.1719 201.078 80.0469C202.188 78.9375 202.734 77.5312 202.734 75.8438C202.734 74.1562 202.188 72.75 201.078 71.625C199.969 70.5156 198.578 69.9531 196.906 69.9531C195.219 69.9531 193.828 70.5156 192.719 71.625C191.609 72.75 191.047 74.1562 191.047 75.8438C191.047 77.5312 191.609 78.9375 192.719 80.0469C193.828 81.1719 195.219 81.7344 196.906 81.7344ZM226.453 75.8438C226.453 76.1875 226.438 76.5625 226.391 76.9844H212.047C212.281 78.4375 212.938 79.6094 214 80.5C215.047 81.4062 216.312 81.8594 217.781 81.8594C219 81.8594 220.078 81.5781 221.031 81C221.984 80.4375 222.672 79.7031 223.094 78.7812H226.125C225.531 80.4688 224.484 81.8281 223 82.8438C221.5 83.875 219.766 84.3906 217.781 84.3906C215.297 84.3906 213.234 83.5781 211.594 81.9375C209.938 80.2969 209.109 78.2656 209.109 75.8281C209.109 73.4062 209.938 71.375 211.594 69.7344C213.234 68.1094 215.297 67.2969 217.781 67.2969C220.25 67.2969 222.312 68.1094 223.969 69.75C225.625 71.3906 226.453 73.4219 226.453 75.8438ZM221.547 71.1406C220.484 70.2656 219.234 69.8281 217.781 69.8281C216.328 69.8281 215.094 70.2656 214.062 71.125C213.016 71.9844 212.359 73.125 212.078 74.5312H223.516C223.25 73.1406 222.594 72.0156 221.547 71.1406ZM235.828 80.7031L241.328 67.6875H244.406L237.234 84H234.344L227.188 67.6875H230.312L235.828 80.7031ZM248.609 64.4219C247.547 64.4219 246.75 63.6094 246.75 62.5938C246.75 61.5312 247.531 60.7656 248.609 60.7656C249.625 60.7656 250.422 61.5312 250.422 62.5938C250.422 63.6094 249.625 64.4219 248.609 64.4219ZM249.984 84H247.234V67.6875H249.984V84ZM262.281 84.3906C259.797 84.3906 257.734 83.5781 256.078 81.9375C254.406 80.2969 253.578 78.2656 253.578 75.8281C253.578 73.4062 254.406 71.375 256.078 69.7344C257.734 68.1094 259.797 67.2969 262.281 67.2969C264.359 67.2969 266.172 67.8906 267.734 69.0938C269.281 70.2969 270.281 71.8594 270.703 73.7656H267.781C267.359 72.625 266.656 71.7031 265.672 71C264.688 70.2969 263.562 69.9531 262.281 69.9531C260.594 69.9531 259.203 70.5156 258.094 71.625C256.984 72.75 256.422 74.1562 256.422 75.8438C256.422 77.5312 256.984 78.9375 258.094 80.0469C259.203 81.1719 260.594 81.7344 262.281 81.7344C263.562 81.7344 264.688 81.375 265.672 80.6719C266.656 79.9688 267.359 79.0469 267.781 77.9219H270.703C270.281 79.8125 269.281 81.375 267.734 82.5781C266.172 83.7812 264.359 84.3906 262.281 84.3906ZM290.516 75.8438C290.516 76.1875 290.5 76.5625 290.453 76.9844H276.109C276.344 78.4375 277 79.6094 278.062 80.5C279.109 81.4062 280.375 81.8594 281.844 81.8594C283.062 81.8594 284.141 81.5781 285.094 81C286.047 80.4375 286.734 79.7031 287.156 78.7812H290.188C289.594 80.4688 288.547 81.8281 287.062 82.8438C285.562 83.875 283.828 84.3906 281.844 84.3906C279.359 84.3906 277.297 83.5781 275.656 81.9375C274 80.2969 273.172 78.2656 273.172 75.8281C273.172 73.4062 274 71.375 275.656 69.7344C277.297 68.1094 279.359 67.2969 281.844 67.2969C284.312 67.2969 286.375 68.1094 288.031 69.75C289.688 71.3906 290.516 73.4219 290.516 75.8438ZM285.609 71.1406C284.547 70.2656 283.297 69.8281 281.844 69.8281C280.391 69.8281 279.156 70.2656 278.125 71.125C277.078 71.9844 276.422 73.125 276.141 74.5312H287.578C287.312 73.1406 286.656 72.0156 285.609 71.1406Z" fill="#003296" fill-opacity="0.7"/>
<g clip-path="url(#clip0_14_1035)">
<path d="M439.892 525.12H151.399C147.8 525.12 144.872 522.193 144.872 518.594V324.709C144.872 321.109 147.8 318.182 151.399 318.182H439.892C443.491 318.182 446.418 321.109 446.418 324.709V518.589C446.418 522.188 443.491 525.116 439.892 525.116V525.12Z" fill="white"/>
<path d="M439.892 525.12H151.399C147.8 525.12 144.872 522.193 144.872 518.594V324.709C144.872 321.109 147.8 318.182 151.399 318.182H439.892C443.491 318.182 446.418 321.109 446.418 324.709V518.589C446.418 522.188 443.491 525.116 439.892 525.116V525.12ZM151.399 320.835C149.263 320.835 147.525 322.573 147.525 324.709V518.589C147.525 520.725 149.263 522.463 151.399 522.463H439.892C442.027 522.463 443.765 520.725 443.765 518.589V324.709C443.765 322.573 442.027 320.835 439.892 320.835H151.399Z" fill="#DFDFDF"/>
<path d="M445.091 324.709V330.068H146.199V324.709C146.199 321.835 148.529 319.509 151.399 319.509H439.891C442.766 319.509 445.091 321.839 445.091 324.709Z" fill="#DFDFDF"/>
<path d="M152.562 326.252C153.404 326.252 154.087 325.569 154.087 324.726C154.087 323.884 153.404 323.201 152.562 323.201C151.719 323.201 151.036 323.884 151.036 324.726C151.036 325.569 151.719 326.252 152.562 326.252Z" fill="white"/>
<path d="M157.651 326.252C158.494 326.252 159.177 325.569 159.177 324.726C159.177 323.884 158.494 323.201 157.651 323.201C156.809 323.201 156.126 323.884 156.126 324.726C156.126 325.569 156.809 326.252 157.651 326.252Z" fill="white"/>
<path d="M162.741 326.252C163.583 326.252 164.266 325.569 164.266 324.726C164.266 323.884 163.583 323.201 162.741 323.201C161.898 323.201 161.215 323.884 161.215 324.726C161.215 325.569 161.898 326.252 162.741 326.252Z" fill="white"/>
<path d="M412.136 335.67H175.847C173.668 335.67 171.902 337.436 171.902 339.614C171.902 341.793 173.668 343.559 175.847 343.559H412.136C414.314 343.559 416.08 341.793 416.08 339.614C416.08 337.436 414.314 335.67 412.136 335.67Z" fill="#DFDFDF"/>
<path d="M250.432 429.186H197.831C194.657 429.186 192.074 426.603 192.074 423.429V378.459C192.074 375.285 194.657 372.702 197.831 372.702H250.432C253.607 372.702 256.19 375.285 256.19 378.459V423.429C256.19 426.603 253.607 429.186 250.432 429.186ZM197.831 374.471C195.634 374.471 193.843 376.262 193.843 378.459V423.429C193.843 425.626 195.634 427.417 197.831 427.417H250.432C252.63 427.417 254.421 425.626 254.421 423.429V378.459C254.421 376.262 252.63 374.471 250.432 374.471H197.831Z" fill="#DFDFDF"/>
<path d="M321.946 429.186H269.345C266.17 429.186 263.587 426.603 263.587 423.429V378.459C263.587 375.285 266.17 372.702 269.345 372.702H321.946C325.12 372.702 327.703 375.285 327.703 378.459V423.429C327.703 426.603 325.12 429.186 321.946 429.186ZM269.345 374.471C267.147 374.471 265.356 376.262 265.356 378.459V423.429C265.356 425.626 267.147 427.417 269.345 427.417H321.946C324.143 427.417 325.934 425.626 325.934 423.429V378.459C325.934 376.262 324.143 374.471 321.946 374.471H269.345Z" fill="#DFDFDF"/>
<path d="M393.459 429.186H340.858C337.683 429.186 335.101 426.603 335.101 423.429V378.459C335.101 375.285 337.683 372.702 340.858 372.702H393.459C396.634 372.702 399.216 375.285 399.216 378.459V423.429C399.216 426.603 396.634 429.186 393.459 429.186ZM340.858 374.471C338.66 374.471 336.869 376.262 336.869 378.459V423.429C336.869 425.626 338.66 427.417 340.858 427.417H393.459C395.656 427.417 397.447 425.626 397.447 423.429V378.459C397.447 376.262 395.656 374.471 393.459 374.471H340.858Z" fill="#DFDFDF"/>
<path d="M250.432 499.492H197.831C194.657 499.492 192.074 496.909 192.074 493.735V448.765C192.074 445.59 194.657 443.008 197.831 443.008H250.432C253.607 443.008 256.19 445.59 256.19 448.765V493.735C256.19 496.909 253.607 499.492 250.432 499.492ZM197.831 444.777C195.634 444.777 193.843 446.568 193.843 448.765V493.735C193.843 495.932 195.634 497.723 197.831 497.723H250.432C252.63 497.723 254.421 495.932 254.421 493.735V448.765C254.421 446.568 252.63 444.777 250.432 444.777H197.831Z" fill="#DFDFDF"/>
<path d="M321.946 499.492H269.345C266.17 499.492 263.587 496.909 263.587 493.735V448.765C263.587 445.59 266.17 443.008 269.345 443.008H321.946C325.12 443.008 327.703 445.59 327.703 448.765V493.735C327.703 496.909 325.12 499.492 321.946 499.492ZM269.345 444.777C267.147 444.777 265.356 446.568 265.356 448.765V493.735C265.356 495.932 267.147 497.723 269.345 497.723H321.946C324.143 497.723 325.934 495.932 325.934 493.735V448.765C325.934 446.568 324.143 444.777 321.946 444.777H269.345Z" fill="#DFDFDF"/>
<path d="M393.459 499.492H340.858C337.683 499.492 335.101 496.909 335.101 493.735V448.765C335.101 445.59 337.683 443.008 340.858 443.008H393.459C396.634 443.008 399.216 445.59 399.216 448.765V493.735C399.216 496.909 396.634 499.492 393.459 499.492Z" fill="#04A1F7"/>
<path d="M100.5 525.253C100.5 525.668 100.973 526 101.566 526H519.434C520.022 526 520.5 525.668 520.5 525.253C520.5 524.837 520.027 524.505 519.434 524.505H101.566C100.978 524.505 100.5 524.837 100.5 525.253Z" fill="#2E3141"/>
<path d="M411.115 357.726L416.54 353.503C416.54 353.503 422.73 355.431 422.89 355.511C423.049 355.59 432.498 377.504 432.498 377.504C432.498 377.504 408.293 389.894 410.062 388.683C411.831 387.48 411.464 371.15 409.819 369.023C408.17 366.892 409.576 361.542 409.576 361.542L411.101 357.721H411.11L411.115 357.726Z" fill="#2E3141"/>
<path d="M426.113 367.6H418.755V379.273L426.869 376.607L426.113 367.6Z" fill="#6C5050"/>
<path d="M402.077 442.88C402.267 441.814 402.192 440.713 401.856 439.67L404.42 428.646L398.95 427.501L396.943 438.808C396.289 439.674 395.864 440.691 395.705 441.761C395.263 444.436 396.337 446.86 398.097 447.165C399.857 447.474 401.639 445.555 402.081 442.88H402.077Z" fill="#6C5050"/>
<path d="M423.818 507.3H416.222V518.076H423.818V507.3Z" fill="#6C5050"/>
<path d="M408.829 524.598C412.163 524.598 417.031 524.249 417.067 524.245C418.371 524.36 424.871 524.872 425.194 523.387C425.49 522.02 425.052 520.592 424.99 520.393C424.362 514.181 424.133 514.105 423.991 514.066C423.77 513.999 423.124 514.309 422.076 514.985L422.01 515.03L421.997 515.105C421.979 515.198 421.515 517.479 419.313 517.134C417.805 516.896 417.314 516.56 417.159 516.396C417.288 516.338 417.447 516.237 417.557 516.064C417.721 515.812 417.748 515.485 417.641 515.092C417.358 514.061 416.509 512.536 416.474 512.469L416.377 512.297L407.746 518.12L402.413 519.646C402.01 519.756 401.688 520.048 401.524 520.433C401.299 520.968 401.436 521.596 401.873 521.985C402.842 522.856 404.77 524.346 406.786 524.532C407.321 524.581 408.033 524.603 408.833 524.603L408.829 524.598Z" fill="#2E3141"/>
<path d="M445.45 498.831L439.004 502.851L444.706 511.994L451.152 507.974L445.45 498.831Z" fill="#6C5050"/>
<path d="M436.885 523.126C437.946 523.126 439.118 522.976 440.104 522.476C442.593 521.225 448.646 516.825 448.682 516.794C449.845 516.206 455.633 513.199 455.12 511.766C454.647 510.449 453.519 509.467 453.364 509.334C449.544 504.391 449.314 504.453 449.173 504.493C448.947 504.555 448.567 505.156 448.032 506.283L448.001 506.354L448.032 506.425C448.067 506.518 448.881 508.698 446.829 509.564C445.423 510.161 444.83 510.139 444.614 510.077C444.693 509.958 444.773 509.79 444.777 509.582C444.786 509.281 444.636 508.985 444.335 508.711C443.548 507.986 442.023 507.141 441.956 507.106L441.784 507.013L437.539 516.524L433.82 520.636C433.537 520.946 433.418 521.362 433.484 521.777C433.577 522.352 434.028 522.808 434.603 522.909C435.187 523.011 436.005 523.121 436.898 523.121L436.885 523.126Z" fill="#2E3141"/>
<path d="M429.412 417.176C429.412 417.176 431.875 417.176 435.735 424.897C439.595 432.621 434.683 463.618 434.683 463.618L448.434 499.204L438.786 505.961L421.174 467.845L425.516 510.064H414.661L406.215 436.964L408.143 417.181H429.412V417.176Z" fill="#2E3141"/>
<path d="M431.066 374.719H416.35L403.081 418.383H439.989L431.066 374.719Z" fill="#04A1F7"/>
<path d="M418.676 374.719L403.717 436.72H396.235C396.235 436.72 407.573 379.304 408.541 376.89C409.505 374.475 418.671 374.719 418.671 374.719H418.676Z" fill="#04A1F7"/>
<path d="M419.764 370.827C424.228 370.827 427.847 367.209 427.847 362.745C427.847 358.28 424.228 354.662 419.764 354.662C415.3 354.662 411.681 358.28 411.681 362.745C411.681 367.209 415.3 370.827 419.764 370.827Z" fill="#6C5050"/>
<path d="M409.696 361.272L411.676 361.608C413.525 354.206 417.712 356.625 418.11 356.541C418.508 356.457 424.46 362.97 423.978 369.567C423.496 376.16 432.021 379.251 432.021 379.251C432.021 379.251 435.001 384.849 432.344 394.979C429.686 405.109 435.32 408.51 435.32 408.51C446.418 407.568 439.746 392.083 437.977 389.271C436.208 386.454 437.416 381.55 437.416 381.55C440.153 379.136 436.934 373.83 436.934 373.83C436.934 373.83 437.5 366.751 435.81 365.384C434.121 364.018 434.042 360.64 434.042 360.64C431.061 347.693 421.334 350.187 421.334 350.187C408.869 348.82 409.7 361.268 409.7 361.268L409.696 361.272Z" fill="#2E3141"/>
<path d="M446.29 441.584C446.087 440.519 445.627 439.515 444.941 438.662L443.42 427.444L437.897 428.319L440.033 439.603C439.737 440.647 439.702 441.744 439.927 442.805C440.462 445.462 442.324 447.341 444.079 447.005C445.835 446.669 446.825 444.242 446.286 441.584H446.29Z" fill="#6C5050"/>
<path d="M438.498 435.991H445.98C445.98 435.991 434.643 378.574 433.674 376.16C432.71 373.746 424.636 374.772 424.636 374.772L438.498 435.991Z" fill="#04A1F7"/>
</g>
<g opacity="0.6">
<mask id="path-31-outside-1_14_1035" maskUnits="userSpaceOnUse" x="453" y="68" width="83" height="140" fill="black">
<rect fill="white" x="453" y="68" width="83" height="140"/>
<path d="M509.965 181.023H534.574V207H454.789V181.023H482.426V101.824L454.789 113.836V84.4414L490.434 69.0117H509.965V181.023Z"/>
</mask>
<path d="M509.965 181.023H508.965V182.023H509.965V181.023ZM534.574 181.023H535.574V180.023H534.574V181.023ZM534.574 207V208H535.574V207H534.574ZM454.789 207H453.789V208H454.789V207ZM454.789 181.023V180.023H453.789V181.023H454.789ZM482.426 181.023V182.023H483.426V181.023H482.426ZM482.426 101.824H483.426V100.299L482.027 100.907L482.426 101.824ZM454.789 113.836H453.789V115.361L455.188 114.753L454.789 113.836ZM454.789 84.4414L454.392 83.5237L453.789 83.7846V84.4414H454.789ZM490.434 69.0117V68.0117H490.226L490.036 68.094L490.434 69.0117ZM509.965 69.0117H510.965V68.0117H509.965V69.0117ZM509.965 182.023H534.574V180.023H509.965V182.023ZM533.574 181.023V207H535.574V181.023H533.574ZM534.574 206H454.789V208H534.574V206ZM455.789 207V181.023H453.789V207H455.789ZM454.789 182.023H482.426V180.023H454.789V182.023ZM483.426 181.023V101.824H481.426V181.023H483.426ZM482.027 100.907L454.39 112.919L455.188 114.753L482.824 102.741L482.027 100.907ZM455.789 113.836V84.4414H453.789V113.836H455.789ZM455.186 85.3591L490.831 69.9294L490.036 68.094L454.392 83.5237L455.186 85.3591ZM490.434 70.0117H509.965V68.0117H490.434V70.0117ZM508.965 69.0117V181.023H510.965V69.0117H508.965Z" fill="url(#paint0_linear_14_1035)" mask="url(#path-31-outside-1_14_1035)"/>
</g>
</g>
<defs>
<filter id="filter0_d_14_1035" x="0" y="0" width="621" height="587" filterUnits="userSpaceOnUse" color-interpolation-filters="sRGB">
<feFlood flood-opacity="0" result="BackgroundImageFix"/>
<feColorMatrix in="SourceAlpha" type="matrix" values="0 0 0 0 0 0 0 0 0 0 0 0 0 0 0 0 0 0 127 0" result="hardAlpha"/>
<feMorphology radius="1" operator="dilate" in="SourceAlpha" result="effect1_dropShadow_14_1035"/>
<feOffset dy="4"/>
<feGaussianBlur stdDeviation="8"/>
<feComposite in2="hardAlpha" operator="out"/>
<feColorMatrix type="matrix" values="0 0 0 0 0 0 0 0 0 0 0 0 0 0 0 0 0 0 0.1 0"/>
<feBlend mode="normal" in2="BackgroundImageFix" result="effect1_dropShadow_14_1035"/>
<feBlend mode="normal" in="SourceGraphic" in2="effect1_dropShadow_14_1035" result="shape"/>
</filter>
<linearGradient id="paint0_linear_14_1035" x1="432.5" y1="54.5" x2="622" y2="287" gradientUnits="userSpaceOnUse">
<stop stop-color="#003296"/>
<stop offset="1" stop-color="#04A1F7"/>
</linearGradient>
<clipPath id="clip0_14_1035">
<rect width="420" height="207.818" fill="white" transform="translate(100.5 318.182)"/>
</clipPath>
</defs>
</svg>
