<svg width="507" height="208" viewBox="0 0 507 208" fill="none" xmlns="http://www.w3.org/2000/svg">
<g clip-path="url(#clip0_2387_2011)">
<path d="M382.891 207.12H94.3986C90.7993 207.12 87.8721 204.193 87.8721 200.594V6.70863C87.8721 3.10933 90.7993 0.182129 94.3986 0.182129H382.891C386.491 0.182129 389.418 3.10933 389.418 6.70863V200.589C389.418 204.188 386.491 207.116 382.891 207.116V207.12Z" fill="white"/>
<path d="M382.891 207.12H94.3986C90.7993 207.12 87.8721 204.193 87.8721 200.594V6.70863C87.8721 3.10933 90.7993 0.182129 94.3986 0.182129H382.891C386.491 0.182129 389.418 3.10933 389.418 6.70863V200.589C389.418 204.188 386.491 207.116 382.891 207.116V207.12ZM94.3986 2.83518C92.2629 2.83518 90.5251 4.57293 90.5251 6.70863V200.589C90.5251 202.725 92.2629 204.463 94.3986 204.463H382.891C385.027 204.463 386.765 202.725 386.765 200.589V6.70863C386.765 4.57293 385.027 2.83518 382.891 2.83518H94.3986Z" fill="#DFDFDF"/>
<path d="M388.092 6.70865V12.0678H89.1992V6.70865C89.1992 3.83451 91.5295 1.50867 94.3992 1.50867H382.892C385.766 1.50867 388.092 3.83893 388.092 6.70865Z" fill="#DFDFDF"/>
<path d="M95.5616 8.25181C96.4041 8.25181 97.0871 7.56882 97.0871 6.72631C97.0871 5.8838 96.4041 5.20081 95.5616 5.20081C94.7191 5.20081 94.0361 5.8838 94.0361 6.72631C94.0361 7.56882 94.7191 8.25181 95.5616 8.25181Z" fill="white"/>
<path d="M100.651 8.25181C101.494 8.25181 102.177 7.56882 102.177 6.72631C102.177 5.8838 101.494 5.20081 100.651 5.20081C99.809 5.20081 99.126 5.8838 99.126 6.72631C99.126 7.56882 99.809 8.25181 100.651 8.25181Z" fill="white"/>
<path d="M105.74 8.25181C106.583 8.25181 107.266 7.56882 107.266 6.72631C107.266 5.8838 106.583 5.20081 105.74 5.20081C104.898 5.20081 104.215 5.8838 104.215 6.72631C104.215 7.56882 104.898 8.25181 105.74 8.25181Z" fill="white"/>
<path d="M355.136 17.6702H118.847C116.668 17.6702 114.902 19.436 114.902 21.6144C114.902 23.7927 116.668 25.5586 118.847 25.5586H355.136C357.314 25.5586 359.08 23.7927 359.08 21.6144C359.08 19.436 357.314 17.6702 355.136 17.6702Z" fill="#DFDFDF"/>
<path d="M193.432 111.186H140.831C137.657 111.186 135.074 108.603 135.074 105.429V60.4594C135.074 57.2846 137.657 54.7023 140.831 54.7023H193.432C196.607 54.7023 199.19 57.2846 199.19 60.4594V105.429C199.19 108.603 196.607 111.186 193.432 111.186ZM140.831 56.471C138.634 56.471 136.843 58.2618 136.843 60.4594V105.429C136.843 107.626 138.634 109.417 140.831 109.417H193.432C195.63 109.417 197.421 107.626 197.421 105.429V60.4594C197.421 58.2618 195.63 56.471 193.432 56.471H140.831Z" fill="#DFDFDF"/>
<path d="M264.946 111.186H212.345C209.17 111.186 206.588 108.603 206.588 105.429V60.4594C206.588 57.2846 209.17 54.7023 212.345 54.7023H264.946C268.121 54.7023 270.703 57.2846 270.703 60.4594V105.429C270.703 108.603 268.121 111.186 264.946 111.186ZM212.345 56.471C210.147 56.471 208.357 58.2618 208.357 60.4594V105.429C208.357 107.626 210.147 109.417 212.345 109.417H264.946C267.144 109.417 268.935 107.626 268.935 105.429V60.4594C268.935 58.2618 267.144 56.471 264.946 56.471H212.345Z" fill="#DFDFDF"/>
<path d="M336.459 111.186H283.858C280.683 111.186 278.101 108.603 278.101 105.429V60.4594C278.101 57.2846 280.683 54.7023 283.858 54.7023H336.459C339.634 54.7023 342.216 57.2846 342.216 60.4594V105.429C342.216 108.603 339.634 111.186 336.459 111.186ZM283.858 56.471C281.66 56.471 279.869 58.2618 279.869 60.4594V105.429C279.869 107.626 281.66 109.417 283.858 109.417H336.459C338.656 109.417 340.447 107.626 340.447 105.429V60.4594C340.447 58.2618 338.656 56.471 336.459 56.471H283.858Z" fill="#DFDFDF"/>
<path d="M193.432 181.492H140.831C137.657 181.492 135.074 178.909 135.074 175.734V130.765C135.074 127.59 137.657 125.008 140.831 125.008H193.432C196.607 125.008 199.19 127.59 199.19 130.765V175.734C199.19 178.909 196.607 181.492 193.432 181.492ZM140.831 126.777C138.634 126.777 136.843 128.568 136.843 130.765V175.734C136.843 177.932 138.634 179.723 140.831 179.723H193.432C195.63 179.723 197.421 177.932 197.421 175.734V130.765C197.421 128.568 195.63 126.777 193.432 126.777H140.831Z" fill="#DFDFDF"/>
<path d="M264.946 181.492H212.345C209.17 181.492 206.588 178.909 206.588 175.734V130.765C206.588 127.59 209.17 125.008 212.345 125.008H264.946C268.121 125.008 270.703 127.59 270.703 130.765V175.734C270.703 178.909 268.121 181.492 264.946 181.492ZM212.345 126.777C210.147 126.777 208.357 128.568 208.357 130.765V175.734C208.357 177.932 210.147 179.723 212.345 179.723H264.946C267.144 179.723 268.935 177.932 268.935 175.734V130.765C268.935 128.568 267.144 126.777 264.946 126.777H212.345Z" fill="#DFDFDF"/>
<path d="M336.459 181.492H283.858C280.683 181.492 278.101 178.909 278.101 175.734V130.765C278.101 127.59 280.683 125.008 283.858 125.008H336.459C339.634 125.008 342.216 127.59 342.216 130.765V175.734C342.216 178.909 339.634 181.492 336.459 181.492Z" fill="#29D093"/>
<path d="M43.5 207.253C43.5 207.668 43.9731 208 44.5656 208H462.434C463.022 208 463.5 207.668 463.5 207.253C463.5 206.837 463.027 206.505 462.434 206.505H44.5656C43.9775 206.505 43.5 206.837 43.5 207.253Z" fill="#2E3E38"/>
<path d="M354.115 39.7259L359.541 35.5031C359.541 35.5031 365.731 37.431 365.89 37.5106C366.049 37.5901 375.499 59.5044 375.499 59.5044C375.499 59.5044 351.294 71.8941 353.063 70.6825C354.831 69.4798 354.464 53.1503 352.819 51.0234C351.17 48.8921 352.576 43.5418 352.576 43.5418L354.102 39.7214H354.111L354.115 39.7259Z" fill="#2E3E38"/>
<path d="M369.114 49.5996H361.756V61.273L369.87 58.6067L369.114 49.5996Z" fill="#6C5050"/>
<path d="M345.077 124.88C345.267 123.814 345.192 122.713 344.856 121.67L347.42 110.646L341.95 109.501L339.943 120.807C339.289 121.674 338.864 122.691 338.705 123.761C338.263 126.436 339.337 128.86 341.097 129.165C342.857 129.474 344.639 127.555 345.081 124.88H345.077Z" fill="#6C5050"/>
<path d="M366.818 189.3H359.222V200.076H366.818V189.3Z" fill="#6C5050"/>
<path d="M351.829 206.598C355.163 206.598 360.031 206.249 360.067 206.245C361.371 206.36 367.871 206.872 368.194 205.387C368.49 204.02 368.052 202.592 367.99 202.393C367.362 196.181 367.133 196.105 366.991 196.066C366.77 195.999 366.124 196.309 365.076 196.985L365.01 197.03L364.997 197.105C364.979 197.198 364.515 199.479 362.313 199.134C360.805 198.896 360.314 198.56 360.159 198.396C360.288 198.338 360.447 198.237 360.557 198.064C360.721 197.812 360.748 197.485 360.641 197.092C360.358 196.061 359.509 194.536 359.474 194.469L359.377 194.297L350.746 200.12L345.413 201.646C345.01 201.756 344.688 202.048 344.524 202.433C344.299 202.968 344.436 203.596 344.873 203.985C345.842 204.856 347.77 206.346 349.786 206.532C350.321 206.581 351.033 206.603 351.833 206.603L351.829 206.598Z" fill="#2E3E38"/>
<path d="M388.45 180.831L382.004 184.851L387.706 193.994L394.152 189.974L388.45 180.831Z" fill="#6C5050"/>
<path d="M379.885 205.126C380.946 205.126 382.118 204.976 383.104 204.476C385.594 203.225 391.647 198.825 391.682 198.794C392.845 198.206 398.633 195.199 398.12 193.766C397.647 192.449 396.52 191.467 396.365 191.334C392.544 186.391 392.315 186.453 392.173 186.493C391.948 186.555 391.567 187.156 391.032 188.283L391.001 188.354L391.032 188.425C391.068 188.518 391.881 190.698 389.83 191.564C388.423 192.161 387.831 192.139 387.614 192.077C387.694 191.958 387.773 191.79 387.778 191.582C387.787 191.281 387.636 190.985 387.336 190.711C386.549 189.986 385.023 189.141 384.957 189.106L384.784 189.013L380.539 198.524L376.821 202.636C376.538 202.946 376.418 203.362 376.485 203.777C376.578 204.352 377.029 204.807 377.603 204.909C378.187 205.011 379.005 205.121 379.898 205.121L379.885 205.126Z" fill="#2E3E38"/>
<path d="M372.412 99.1763C372.412 99.1763 374.875 99.1763 378.735 106.897C382.596 114.621 377.683 145.618 377.683 145.618L391.435 181.204L381.786 187.961L364.175 149.845L368.517 192.064H357.661L349.216 118.964L351.144 99.1807H372.412V99.1763Z" fill="#2E3E38"/>
<path d="M374.065 56.7186H359.35L346.08 100.383H382.988L374.065 56.7186Z" fill="#29D093"/>
<path d="M361.676 56.7186L346.717 118.72H339.235C339.235 118.72 350.573 61.304 351.541 58.8897C352.505 56.4754 361.671 56.7186 361.671 56.7186H361.676Z" fill="#29D093"/>
<path d="M362.764 52.8275C367.228 52.8275 370.847 49.2086 370.847 44.7445C370.847 40.2804 367.228 36.6616 362.764 36.6616C358.3 36.6616 354.681 40.2804 354.681 44.7445C354.681 49.2086 358.3 52.8275 362.764 52.8275Z" fill="#6C5050"/>
<path d="M352.696 43.2721L354.676 43.6081C356.525 36.2061 360.712 38.6248 361.11 38.5408C361.508 38.4568 367.46 44.97 366.978 51.5673C366.496 58.1601 375.021 61.2509 375.021 61.2509C375.021 61.2509 378.001 66.8489 375.344 76.9791C372.686 87.1093 378.32 90.5097 378.32 90.5097C389.418 89.5678 382.746 74.0829 380.977 71.2706C379.208 68.454 380.416 63.5502 380.416 63.5502C383.153 61.136 379.934 55.8299 379.934 55.8299C379.934 55.8299 380.5 48.7506 378.81 47.3843C377.121 46.018 377.042 42.6398 377.042 42.6398C374.061 29.6929 364.334 32.1868 364.334 32.1868C351.869 30.8204 352.7 43.2677 352.7 43.2677L352.696 43.2721Z" fill="#2E3E38"/>
<path d="M389.29 123.584C389.087 122.519 388.627 121.515 387.941 120.662L386.42 109.444L380.897 110.319L383.033 121.603C382.737 122.647 382.702 123.744 382.927 124.805C383.462 127.462 385.324 129.341 387.079 129.005C388.835 128.669 389.825 126.242 389.286 123.584H389.29Z" fill="#6C5050"/>
<path d="M381.499 117.991H388.981C388.981 117.991 377.643 60.5744 376.675 58.1601C375.711 55.7459 367.637 56.7717 367.637 56.7717L381.499 117.991Z" fill="#29D093"/>
</g>
<defs>
<clipPath id="clip0_2387_2011">
<rect width="420" height="207.818" fill="white" transform="translate(43.5 0.182129)"/>
</clipPath>
</defs>
</svg>
