<svg width="507" height="331" viewBox="0 0 507 331" fill="none" xmlns="http://www.w3.org/2000/svg">
<g clip-path="url(#clip0_14_1121)">
<path d="M144.334 179.541C140.982 161.601 146.26 141.191 160.928 130.332C160.096 150.162 166.306 169.646 178.457 185.338C183.166 191.373 189.031 197.594 188.849 205.246C188.735 210.008 186.16 214.443 182.767 217.785C179.374 221.127 175.193 223.536 171.063 225.908L170.42 226.908C158.313 213.251 147.686 197.481 144.334 179.541Z" fill="#F0F0F0"/>
<path d="M161.195 130.606C155.032 144.398 153.372 159.782 156.45 174.571C157.056 177.766 158.162 180.847 159.728 183.698C161.342 186.426 163.658 188.672 166.434 190.202C168.993 191.681 171.783 192.898 173.939 194.974C175.026 196.052 175.874 197.349 176.425 198.778C176.977 200.207 177.22 201.737 177.138 203.267C177.035 207.084 175.567 210.636 174.01 214.06C172.281 217.862 170.425 221.783 170.538 226.057C170.551 226.575 169.747 226.566 169.733 226.049C169.538 218.612 174.914 212.64 176.112 205.505C176.671 202.176 176.23 198.658 173.889 196.077C171.842 193.82 168.967 192.563 166.362 191.088C163.632 189.634 161.299 187.535 159.568 184.972C157.863 182.21 156.64 179.177 155.952 176.005C154.289 168.887 153.756 161.552 154.371 154.269C155.028 145.953 157.102 137.81 160.505 130.193C160.715 129.722 161.404 130.138 161.195 130.606Z" fill="white"/>
<path d="M155.179 169.867C152.627 170.047 150.095 169.314 148.034 167.798C145.974 166.283 144.519 164.085 143.929 161.596C143.811 161.092 144.589 160.886 144.707 161.391C145.252 163.709 146.607 165.757 148.529 167.164C150.451 168.571 152.812 169.244 155.187 169.063C155.703 169.024 155.692 169.829 155.179 169.867Z" fill="white"/>
<path d="M165.037 189.623C168.501 185.707 170.361 180.628 170.247 175.401C170.235 174.883 171.039 174.892 171.051 175.41C171.16 180.849 169.213 186.13 165.6 190.198C165.255 190.586 164.694 190.009 165.037 189.623Z" fill="white"/>
<path d="M155.97 146.452C156.972 146.588 157.992 146.474 158.938 146.118C159.885 145.763 160.728 145.178 161.393 144.417C161.732 144.025 162.293 144.602 161.955 144.991C161.217 145.829 160.285 146.474 159.24 146.869C158.196 147.264 157.07 147.397 155.962 147.257C155.856 147.252 155.756 147.208 155.683 147.132C155.609 147.057 155.566 146.956 155.564 146.85C155.566 146.744 155.609 146.642 155.685 146.568C155.761 146.493 155.864 146.452 155.97 146.452Z" fill="white"/>
<path d="M220.912 145.171C220.706 145.422 220.501 145.672 220.298 145.93C217.558 149.313 215.098 152.913 212.941 156.695C212.77 156.985 212.6 157.281 212.438 157.575C207.339 166.742 203.986 176.776 202.55 187.166C201.982 191.301 201.73 195.474 201.796 199.647C201.886 205.411 202.443 211.653 200.676 216.954C200.498 217.509 200.286 218.053 200.04 218.582L171.69 227.614C171.615 227.603 171.542 227.597 171.467 227.586L170.352 227.998C170.333 227.783 170.319 227.56 170.3 227.345C170.289 227.22 170.284 227.093 170.273 226.969C170.267 226.885 170.262 226.801 170.253 226.726C170.251 226.698 170.249 226.67 170.249 226.648C170.239 226.573 170.238 226.502 170.231 226.433C170.146 225.185 170.068 223.934 170.004 222.68C170.002 222.673 170.002 222.673 170.006 222.665C169.519 213.108 169.826 203.428 171.593 194.101C171.646 193.821 171.697 193.534 171.763 193.249C172.583 189.049 173.744 184.924 175.236 180.913C176.06 178.72 176.994 176.57 178.035 174.471C180.736 169.053 184.273 164.094 188.515 159.775C196.973 151.167 208.089 145.359 220.001 145.176C220.306 145.172 220.605 145.169 220.912 145.171Z" fill="#F0F0F0"/>
<path d="M220.963 145.551C207.739 152.853 197.151 164.136 190.705 177.798C189.265 180.714 188.293 183.84 187.827 187.058C187.473 190.209 187.97 193.396 189.265 196.29C190.418 199.012 191.913 201.663 192.385 204.618C192.604 206.134 192.499 207.679 192.079 209.152C191.659 210.625 190.932 211.993 189.946 213.166C187.566 216.151 184.254 218.103 180.95 219.9C177.281 221.894 173.438 223.908 170.955 227.388C170.654 227.81 170.017 227.318 170.317 226.897C174.639 220.842 182.527 219.311 187.779 214.335C190.23 212.013 191.996 208.939 191.681 205.469C191.405 202.434 189.866 199.7 188.675 196.953C187.37 194.149 186.772 191.068 186.932 187.98C187.233 184.748 188.083 181.59 189.444 178.643C192.401 171.959 196.391 165.781 201.268 160.336C206.799 154.092 213.358 148.839 220.66 144.806C221.113 144.556 221.412 145.304 220.963 145.551Z" fill="white"/>
<path d="M192.521 173.277C190.376 171.884 188.796 169.774 188.062 167.324C187.329 164.873 187.491 162.242 188.519 159.9C188.728 159.427 189.473 159.73 189.264 160.204C188.302 162.383 188.152 164.834 188.84 167.115C189.527 169.395 191.007 171.355 193.012 172.64C193.448 172.919 192.954 173.555 192.521 173.277Z" fill="white"/>
<path d="M188.498 194.986C193.622 193.944 198.164 191.01 201.22 186.767C201.523 186.346 202.159 186.838 201.857 187.258C198.669 191.667 193.936 194.711 188.601 195.784C188.093 195.886 187.992 195.088 188.498 194.986Z" fill="white"/>
<path d="M207.251 155.058C207.969 155.77 208.852 156.292 209.822 156.578C210.791 156.864 211.817 156.905 212.806 156.697C213.313 156.589 213.413 157.387 212.909 157.495C211.815 157.72 210.683 157.673 209.611 157.359C208.539 157.046 207.56 156.474 206.76 155.695C206.678 155.628 206.625 155.532 206.612 155.427C206.598 155.323 206.625 155.217 206.687 155.131C206.752 155.047 206.848 154.992 206.954 154.978C207.059 154.965 207.166 154.993 207.251 155.058Z" fill="white"/>
<path d="M265.445 47.0686C265.54 47.4862 265.602 47.9105 265.63 48.3378L298.87 67.514L306.95 62.8628L315.563 74.1387L302.06 83.7629C300.969 84.5404 299.655 84.943 298.316 84.9104C296.977 84.8778 295.685 84.4116 294.633 83.5819L260.356 56.541C258.81 57.1136 257.125 57.2017 255.527 56.7935C253.929 56.3854 252.493 55.5003 251.41 54.2561C250.327 53.0119 249.648 51.4675 249.465 49.8283C249.281 48.1891 249.601 46.5328 250.381 45.0797C251.162 43.6266 252.366 42.4456 253.834 41.6937C255.302 40.9419 256.965 40.6548 258.6 40.8707C260.235 41.0867 261.766 41.7953 262.989 42.9025C264.211 44.0096 265.068 45.4628 265.445 47.0686Z" fill="#6C5050"/>
<path d="M299.331 65.3967C299.437 64.9076 299.646 64.4469 299.946 64.0462C300.246 63.6455 300.628 63.3142 301.068 63.0749L316.414 54.7133C318.458 53.1708 321.03 52.5018 323.566 52.8529C326.102 53.2041 328.396 54.5466 329.944 56.5863C331.491 58.6259 332.167 61.1961 331.822 63.7332C331.478 66.2704 330.141 68.5673 328.106 70.1204L315.806 82.6155C315.455 82.9721 315.031 83.2488 314.564 83.4269C314.096 83.6049 313.595 83.68 313.096 83.6472C312.597 83.6144 312.11 83.4743 311.67 83.2365C311.23 82.9988 310.846 82.6689 310.545 82.2694L299.955 68.2288C299.653 67.8294 299.441 67.3696 299.334 66.8808C299.226 66.3921 299.225 65.8859 299.331 65.3967Z" fill="#35435E"/>
<path d="M326.749 16.7856C328.957 9.74863 333.978 3.29459 340.922 0.915713C347.866 -1.46316 358.035 2.16064 363.256 7.36373C372.806 16.8812 375.136 49.5773 368.575 59.9096C367.27 59.8405 362.767 59.7895 361.446 59.74L359.578 53.5124V59.6786C349.268 59.36 338.535 59.5595 327.796 59.7658C326.833 52.4504 324.54 23.8225 326.749 16.7856Z" fill="#2E3141"/>
<path d="M323.794 312.16H314.391L309.917 275.89L323.796 275.891L323.794 312.16Z" fill="#6C5050"/>
<path d="M406.11 306.313L397.011 308.684L383.533 274.716L396.963 271.216L406.11 306.313Z" fill="#6C5050"/>
<path d="M354.29 89.3957L356.421 94.9353L355.995 100.475L314.296 114.918L316.365 90.674L321.052 85.1337L354.29 89.3957Z" fill="#6C5050"/>
<path d="M341.106 39.544C349.331 39.544 355.999 32.876 355.999 24.6507C355.999 16.4253 349.331 9.75739 341.106 9.75739C332.88 9.75739 326.212 16.4253 326.212 24.6507C326.212 32.876 332.88 39.544 341.106 39.544Z" fill="#6C5050"/>
<path d="M330.872 5.25697C333.734 3.5124 337.011 2.56869 340.363 2.52451C343.714 2.48033 347.015 3.3373 349.922 5.00582C352.829 6.67435 355.234 9.09314 356.886 12.0093C358.538 14.9254 359.376 18.2318 359.312 21.5827C351.194 23.6577 342.543 24.5256 333.375 22.0825L331.279 16.9534L330.043 22.0863C327.239 24.0592 324.532 24.0557 321.922 22.0756C321.811 18.7341 322.58 15.4222 324.15 12.4707C325.721 9.51932 328.039 7.03185 330.872 5.25697Z" fill="#2E3141"/>
<path d="M328 330.015H321.328L320.137 323.715L317.087 330.015H299.39C298.542 330.015 297.716 329.744 297.032 329.241C296.349 328.738 295.844 328.03 295.592 327.221C295.339 326.411 295.352 325.541 295.629 324.739C295.906 323.938 296.431 323.245 297.129 322.763L311.262 313.003V306.634L326.126 307.521L328 330.015Z" fill="#2E3141"/>
<path d="M415.508 322.314L409.051 323.997L406.31 318.202L404.947 325.067L387.823 329.531C387.002 329.745 386.134 329.691 385.346 329.377C384.558 329.063 383.891 328.505 383.442 327.785C382.994 327.065 382.787 326.221 382.853 325.375C382.918 324.529 383.252 323.726 383.806 323.084L395.019 310.075L393.413 303.912L408.021 301.021L415.508 322.314Z" fill="#2E3141"/>
<path d="M404.956 283.504L377.393 226.854L368.74 157.903C374.706 146.824 363.627 124.28 363.627 124.28V114.814L320.708 122.911C311.93 146.854 307.673 172.218 308.154 197.714L309.884 289.368H309.341C308.441 289.368 307.578 289.726 306.941 290.363C306.304 290.999 305.947 291.862 305.947 292.763C305.947 293.663 306.304 294.526 306.941 295.163C307.578 295.799 308.441 296.157 309.341 296.157H326.313C327.213 296.157 328.076 295.799 328.713 295.163C329.35 294.526 329.707 293.663 329.707 292.763C329.707 291.862 329.35 290.999 328.713 290.363C328.076 289.726 327.213 289.368 326.313 289.368H325.875L338.059 172.768L352.226 230.307L386.461 283.286C385.587 283.354 384.775 283.758 384.193 284.413C383.611 285.067 383.306 285.922 383.341 286.797C383.376 287.673 383.749 288.5 384.381 289.106C385.014 289.712 385.856 290.049 386.732 290.047H403.704C404.493 290.048 405.258 289.773 405.867 289.271C406.476 288.768 406.89 288.069 407.038 287.293C407.186 286.518 407.059 285.715 406.679 285.024C406.299 284.332 405.69 283.794 404.956 283.504Z" fill="#2E3141"/>
<path d="M367.507 130.083C367.366 129.529 367.053 129.034 366.613 128.669C366.174 128.304 365.63 128.087 365.059 128.05C364.494 121.582 360.756 80.1021 360.614 78.8852L360.608 78.8338L359.526 55.713C359.486 54.8733 359.139 54.0775 358.55 53.4776C357.961 52.8778 357.172 52.5158 356.333 52.461L350.617 52.0873C350.538 52.0847 350.464 52.0517 350.409 51.9953C350.355 51.9389 350.324 51.8635 350.324 51.785C350.324 51.1537 350.2 50.5286 349.958 49.9453C349.717 49.3621 349.363 48.8321 348.916 48.3857C348.47 47.9393 347.94 47.5852 347.357 47.3436C346.773 47.102 346.148 46.9777 345.517 46.9777H328.592C327.496 46.9781 326.437 47.3787 325.615 48.1041C324.794 48.8295 324.265 49.83 324.128 50.9177C324.121 50.9926 324.085 51.0619 324.029 51.1117C323.972 51.1616 323.899 51.1883 323.824 51.1866L323.822 51.1866C321.899 51.147 320.025 51.7981 318.541 53.0218C317.057 54.2454 316.06 55.9606 315.733 57.856C313.419 71.3187 308.782 101.874 311.074 118.861C311.873 124.774 311.51 133.668 311.208 138.616C311.178 139.094 311.243 139.573 311.398 140.026C311.554 140.479 311.797 140.897 312.115 141.256C311.44 141.451 310.867 141.9 310.516 142.509C310.166 143.118 310.066 143.839 310.237 144.52C310.413 145.218 310.859 145.818 311.477 146.187C312.096 146.557 312.835 146.665 313.534 146.489L365.537 133.38C366.236 133.204 366.836 132.758 367.205 132.139C367.574 131.521 367.683 130.781 367.507 130.083Z" fill="#35435E"/>
<path d="M281.558 227.286C281.549 225.767 281.001 224.301 280.014 223.148C279.027 221.995 277.663 221.228 276.164 220.985L183.964 205.844C183.08 205.698 182.175 205.738 181.307 205.962L159.699 211.549L147.302 214.759L124.422 220.673C123.041 221.032 121.818 221.839 120.944 222.968C120.071 224.096 119.597 225.483 119.597 226.91V323.523C119.604 324.996 120.113 326.422 121.04 327.567C121.967 328.711 123.256 329.505 124.696 329.818L218.608 328.755C219.049 328.85 219.499 328.896 219.95 328.894C220.607 328.896 221.26 328.796 221.887 328.599L277.683 329.988C279 329.577 280.149 328.752 280.96 327.636C281.771 326.521 282.201 325.173 282.186 323.794L281.558 227.286Z" fill="white"/>
<path d="M281.558 227.286C281.549 225.767 281.001 224.301 280.014 223.148C279.027 221.995 277.663 221.228 276.164 220.985L183.964 205.844C183.08 205.698 182.175 205.738 181.307 205.962L159.699 211.549L147.302 214.759L124.422 220.673C123.041 221.032 121.818 221.839 120.944 222.968C120.071 224.096 119.597 225.483 119.597 226.91V323.523C119.604 324.996 120.113 326.422 121.04 327.567C121.967 328.711 123.256 329.505 124.696 329.818L218.608 328.755C219.049 328.85 219.499 328.896 219.95 328.894C220.607 328.896 221.26 328.796 221.887 328.599L277.683 329.988C279 329.577 280.149 328.752 280.96 327.636C281.771 326.521 282.201 325.173 282.186 323.794L281.558 227.286ZM277.2 328.452L221.404 329.78C220.608 330.028 219.762 330.068 218.946 329.898L125.028 328.246C123.949 328.01 122.983 327.414 122.288 326.556C121.593 325.697 121.212 324.627 121.207 323.523V226.91C121.208 225.921 121.512 224.956 122.078 224.145C122.644 223.334 123.445 222.716 124.374 222.375C124.521 222.319 124.672 222.273 124.824 222.235L149.03 215.977L163.344 212.274L181.71 207.524C182.104 207.419 182.51 207.367 182.917 207.368C183.18 207.368 183.442 207.39 183.701 207.433L275.901 222.573C276.643 222.695 277.347 222.988 277.956 223.428C278.565 223.869 279.063 224.445 279.411 225.112C279.76 225.788 279.944 226.536 279.948 227.296L280.576 323.805C280.588 324.839 280.266 325.85 279.657 326.687C279.049 327.525 278.188 328.144 277.2 328.452Z" fill="#CCCCCC"/>
<path d="M279.411 225.112C279.349 225.153 279.28 225.184 279.208 225.203L252.088 232.534L243.645 234.815L219.633 241.304C219.565 241.321 219.495 241.33 219.424 241.331C219.376 241.33 219.327 241.327 219.279 241.32L122.458 223.668L122.136 223.609C121.926 223.57 121.74 223.449 121.619 223.273C121.498 223.097 121.452 222.881 121.49 222.671C121.529 222.461 121.649 222.274 121.824 222.153C121.999 222.031 122.215 221.983 122.426 222.02L124.374 222.375L219.392 239.699L240.087 234.107L251.664 230.978L278.365 223.759L278.789 223.647C278.972 223.598 279.167 223.616 279.338 223.696C279.51 223.777 279.648 223.915 279.728 224.087C279.749 224.128 279.765 224.171 279.776 224.216C279.821 224.384 279.809 224.563 279.743 224.724C279.677 224.886 279.561 225.022 279.411 225.112Z" fill="#CCCCCC"/>
<path d="M220.229 329.082C219.787 329.082 219.428 328.727 219.424 331L218.619 243.249C218.614 240.089 218.972 239.725 219.416 239.721H219.424C219.865 239.721 220.225 240.076 220.229 243.234L221.034 330.985C221.038 328.714 220.681 329.078 220.236 329.082H220.229Z" fill="#CCCCCC"/>
<path d="M252.316 330.101L243.645 330.192L240.087 234.107L149.293 216.042C149.204 216.026 149.116 216.004 149.03 215.977C148.333 215.779 147.723 215.349 147.302 214.759L159.7 211.549L163.344 212.274L249.496 229.411C249.949 229.5 250.377 229.687 250.751 229.957C251.125 230.228 251.437 230.576 251.664 230.978C251.932 231.445 252.311 329.542 252.316 330.101Z" fill="#CCCCCC"/>
<path d="M321.766 51.4173C321.759 50.2731 321.347 49.1684 320.603 48.2991C319.858 47.4299 318.831 46.8522 317.701 46.6686L248.214 35.258C247.548 35.1477 246.866 35.178 246.212 35.347L229.927 39.5577L220.583 41.9765L203.34 46.434C202.299 46.7044 201.377 47.3125 200.719 48.1631C200.061 49.0137 199.704 50.0587 199.704 51.1342V108.086C199.709 109.196 200.092 110.271 200.791 111.134C201.49 111.997 202.462 112.595 203.546 112.831L274.324 127.89C274.656 127.961 274.995 127.997 275.335 127.995C275.83 127.996 276.323 127.921 276.795 127.773L318.846 114.493C319.838 114.184 320.704 113.562 321.316 112.721C321.927 111.881 322.251 110.865 322.239 109.826L321.766 51.4173Z" fill="white"/>
<path d="M247.427 39.4403C247.376 39.4402 247.326 39.4468 247.277 39.4597L204.405 50.5468C204.275 50.5804 204.16 50.6563 204.077 50.7625C203.995 50.8687 203.951 50.9991 203.951 51.1334V108.085C203.951 108.223 203.999 108.358 204.086 108.465C204.173 108.573 204.295 108.648 204.43 108.677L275.208 123.736C275.31 123.758 275.417 123.753 275.517 123.721L317.568 110.442C317.692 110.404 317.8 110.326 317.876 110.221C317.953 110.116 317.993 109.989 317.991 109.859L317.52 51.4513C317.519 51.3084 317.467 51.1705 317.374 51.062C317.281 50.9535 317.153 50.8814 317.012 50.8584L247.525 39.4482C247.493 39.443 247.46 39.4404 247.427 39.4403Z" fill="#04A1F7"/>
<path d="M321.766 51.4173C321.759 50.2731 321.347 49.1684 320.603 48.2991C319.858 47.4299 318.831 46.8522 317.701 46.6686L248.214 35.258C247.548 35.1477 246.866 35.178 246.212 35.347L229.927 39.5577L220.583 41.9765L203.34 46.434C202.299 46.7044 201.377 47.3125 200.719 48.1631C200.061 49.0137 199.704 50.0587 199.704 51.1342V108.086C199.709 109.196 200.092 110.271 200.791 111.134C201.49 111.997 202.462 112.595 203.546 112.831L274.324 127.89C274.656 127.961 274.995 127.997 275.335 127.995C275.83 127.996 276.323 127.921 276.795 127.773L318.846 114.493C319.838 114.184 320.704 113.562 321.316 112.721C321.927 111.881 322.251 110.865 322.239 109.826L321.766 51.4173ZM318.482 113.336L276.431 126.616C275.831 126.803 275.194 126.833 274.579 126.705L203.797 111.646C202.984 111.468 202.255 111.019 201.732 110.372C201.208 109.725 200.921 108.919 200.917 108.086V51.1342C200.918 50.3888 201.147 49.6615 201.573 49.0504C202 48.4392 202.604 47.9736 203.304 47.7162C203.415 47.6746 203.528 47.6394 203.643 47.6111L221.886 42.8948L232.674 40.1038L246.515 36.5241C246.812 36.4449 247.118 36.4054 247.425 36.4068C247.623 36.4067 247.821 36.4229 248.016 36.4553L317.503 47.866C318.062 47.9577 318.592 48.1783 319.051 48.5104C319.51 48.8425 319.886 49.2769 320.148 49.7792C320.411 50.2885 320.549 50.8525 320.553 51.4254L321.026 109.834C321.035 110.613 320.792 111.375 320.334 112.006C319.875 112.637 319.226 113.104 318.482 113.336Z" fill="#35435E"/>
<path d="M320.148 49.7792C320.101 49.8102 320.049 49.8335 319.995 49.848L299.556 55.3733L293.193 57.0924L275.096 61.9826C275.045 61.9953 274.992 62.0021 274.939 62.0029C274.902 62.0022 274.866 61.9995 274.829 61.9948L201.86 48.6911L201.617 48.6466C201.459 48.6171 201.319 48.526 201.227 48.3934C201.136 48.2609 201.101 48.0976 201.13 47.9393C201.159 47.7809 201.249 47.6405 201.381 47.5487C201.514 47.4569 201.677 47.4212 201.835 47.4494L203.304 47.7163L274.914 60.7732L290.511 56.5584L299.236 54.2002L319.359 48.7599L319.679 48.675C319.817 48.6385 319.964 48.6518 320.093 48.7124C320.222 48.773 320.326 48.8771 320.387 49.0066C320.403 49.0375 320.415 49.0701 320.423 49.1037C320.457 49.2309 320.448 49.3655 320.398 49.4872C320.349 49.609 320.261 49.7115 320.148 49.7792Z" fill="#35435E"/>
<path d="M275.545 128.137C275.385 128.137 275.232 128.074 275.118 127.961C275.004 127.848 274.94 127.696 274.938 127.536L274.332 61.4016C274.33 61.2407 274.393 61.0859 274.505 60.971C274.618 60.8562 274.772 60.7909 274.933 60.7894H274.938C275.098 60.7894 275.252 60.8525 275.365 60.9651C275.479 61.0777 275.544 61.2306 275.545 61.3906L276.152 127.525C276.153 127.685 276.091 127.84 275.978 127.955C275.865 128.07 275.711 128.135 275.551 128.137H275.545Z" fill="#35435E"/>
<path d="M299.555 120.092L293.193 121.811L290.511 56.5584L222.084 42.9433C222.017 42.9315 221.95 42.9153 221.886 42.8948C221.36 42.7451 220.901 42.4214 220.583 41.9766L229.927 39.5578L232.673 40.1039L297.602 53.0192C297.943 53.0866 298.266 53.2271 298.548 53.4309C298.83 53.6348 299.065 53.8972 299.236 54.2003C299.438 54.5522 299.551 119.671 299.555 120.092Z" fill="#35435E"/>
<path d="M296.705 82.8874C297.031 83.1657 297.333 83.4693 297.611 83.7952L335.727 79.3437L339.434 70.7897L353.075 74.6968L347.984 90.4778C347.573 91.7527 346.759 92.8598 345.665 93.6328C344.571 94.4059 343.256 94.8032 341.917 94.7652L298.276 93.5245C297.376 94.9072 296.077 95.9832 294.551 96.6096C293.025 97.2359 291.345 97.3828 289.733 97.0307C288.122 96.6787 286.656 95.8444 285.53 94.6387C284.404 93.4331 283.672 91.9134 283.431 90.2816C283.19 88.6498 283.452 86.9834 284.181 85.5039C284.911 84.0244 286.073 82.802 287.514 81.9993C288.955 81.1966 290.606 80.8517 292.248 81.0103C293.89 81.1689 295.445 81.8237 296.705 82.8874Z" fill="#6C5050"/>
<path d="M334.834 77.3695C334.627 76.914 334.52 76.4193 334.521 75.9189C334.523 75.4185 334.632 74.9243 334.842 74.47L342.165 58.6019C342.885 56.1448 344.549 54.0732 346.794 52.8415C349.038 51.6097 351.679 51.3183 354.139 52.0311C356.598 52.7439 358.674 54.4028 359.911 56.644C361.149 58.8852 361.448 61.5257 360.741 63.9867L358.33 81.3532C358.261 81.8488 358.086 82.3238 357.817 82.7457C357.548 83.1677 357.191 83.5267 356.771 83.7983C356.351 84.07 355.877 84.2478 355.382 84.3198C354.886 84.3918 354.382 84.3563 353.901 84.2156L337.025 79.2697C336.544 79.1292 336.1 78.8867 335.722 78.5588C335.344 78.2308 335.041 77.8251 334.834 77.3695Z" fill="#35435E"/>
<path d="M462.692 330.807H44.3084C44.0944 330.807 43.8894 330.721 43.7384 330.57C43.5873 330.418 43.5024 330.213 43.5024 329.999C43.5024 329.785 43.5873 329.58 43.7384 329.428C43.8894 329.277 44.0944 329.191 44.3084 329.191H462.692C462.906 329.191 463.112 329.276 463.263 329.427C463.415 329.579 463.5 329.785 463.5 329.999C463.5 330.213 463.415 330.419 463.263 330.571C463.112 330.722 462.906 330.807 462.692 330.807Z" fill="#CACACA"/>
<path d="M125.041 244.918C138.467 244.918 149.352 234.034 149.352 220.607C149.352 207.181 138.467 196.296 125.041 196.296C111.614 196.296 100.73 207.181 100.73 220.607C100.73 234.034 111.614 244.918 125.041 244.918Z" fill="#04A1F7"/>
<path d="M121.724 233.26C121.305 233.26 120.89 233.162 120.515 232.975C120.14 232.787 119.813 232.514 119.561 232.178L112.929 223.335C112.498 222.761 112.314 222.04 112.415 221.33C112.517 220.62 112.896 219.979 113.47 219.549C114.043 219.119 114.765 218.934 115.475 219.035C116.185 219.137 116.825 219.516 117.256 220.09L121.595 225.875L132.739 209.158C132.936 208.862 133.189 208.607 133.484 208.408C133.779 208.209 134.111 208.071 134.46 208.001C134.808 207.93 135.168 207.929 135.517 207.998C135.866 208.067 136.198 208.204 136.494 208.401C136.79 208.599 137.044 208.853 137.242 209.149C137.44 209.444 137.577 209.776 137.647 210.125C137.716 210.474 137.716 210.834 137.646 211.183C137.576 211.532 137.438 211.863 137.239 212.159L123.975 232.056C123.735 232.416 123.412 232.713 123.034 232.922C122.655 233.132 122.232 233.247 121.8 233.259C121.775 233.26 121.749 233.26 121.724 233.26Z" fill="white"/>
<path d="M228.556 91.4781C228.481 91.478 228.405 91.4696 228.332 91.4529L207.287 86.7008C207.023 86.6411 206.795 86.4793 206.651 86.2511C206.507 86.0229 206.459 85.7468 206.519 85.4836C206.578 85.2203 206.739 84.9914 206.967 84.8471C207.196 84.7028 207.471 84.6549 207.735 84.7139L228.78 89.466C229.024 89.5212 229.24 89.6645 229.385 89.8685C229.53 90.0726 229.595 90.323 229.568 90.5719C229.54 90.8209 229.422 91.0509 229.235 91.2181C229.048 91.3853 228.807 91.4778 228.556 91.4781Z" fill="white"/>
<path d="M147.563 282.74C147.489 282.755 147.413 282.762 147.338 282.761L125.766 282.398C125.496 282.393 125.24 282.281 125.052 282.087C124.865 281.893 124.762 281.632 124.767 281.363C124.771 281.093 124.883 280.836 125.076 280.648C125.27 280.461 125.53 280.358 125.8 280.361L147.372 280.725C147.622 280.729 147.862 280.825 148.046 280.995C148.23 281.166 148.345 281.397 148.368 281.647C148.392 281.896 148.323 282.146 148.174 282.347C148.026 282.549 147.808 282.689 147.563 282.74Z" fill="#E6E6E6"/>
<path d="M155.03 294.281C154.956 294.296 154.881 294.303 154.805 294.302L133.233 293.939C132.964 293.934 132.707 293.822 132.52 293.628C132.332 293.434 132.23 293.173 132.234 292.904C132.239 292.634 132.35 292.377 132.543 292.189C132.737 292.001 132.997 291.898 133.267 291.902L154.839 292.265C155.089 292.27 155.329 292.366 155.513 292.536C155.697 292.706 155.812 292.938 155.836 293.188C155.859 293.437 155.79 293.686 155.642 293.888C155.493 294.09 155.275 294.229 155.03 294.281Z" fill="#E6E6E6"/>
</g>
<defs>
<clipPath id="clip0_14_1121">
<rect width="420" height="330.83" fill="white" transform="translate(43.5 0.1698)"/>
</clipPath>
</defs>
</svg>
