<svg width="507" height="261" viewBox="0 0 507 261" fill="none" xmlns="http://www.w3.org/2000/svg">
<g clip-path="url(#clip0_14_1070)">
<path d="M145.228 235.29L145.695 224.789C150.563 222.187 155.993 220.813 161.513 220.785C153.916 226.997 154.865 238.97 149.714 247.323C148.088 249.916 145.899 252.109 143.309 253.741C140.72 255.373 137.796 256.401 134.756 256.75L128.398 260.642C127.525 255.779 127.718 250.784 128.962 246.002C130.205 241.22 132.471 236.765 135.603 232.943C137.381 230.816 139.419 228.922 141.671 227.305C143.193 231.32 145.228 235.29 145.228 235.29Z" fill="#F2F2F2"/>
<path d="M416.508 17.4103H120.542C120.418 17.4075 120.3 17.3563 120.213 17.2674C120.126 17.1786 120.077 17.0593 120.077 16.935C120.077 16.8108 120.126 16.6914 120.213 16.6026C120.3 16.5138 120.418 16.4625 120.542 16.4598H416.508C416.632 16.4625 416.751 16.5138 416.837 16.6026C416.924 16.6914 416.973 16.8108 416.973 16.935C416.973 17.0593 416.924 17.1786 416.837 17.2674C416.751 17.3563 416.632 17.4075 416.508 17.4103Z" fill="#CACACA"/>
<path d="M131.005 10.7568C133.83 10.7568 136.119 8.41631 136.119 5.52914C136.119 2.64197 133.83 0.301453 131.005 0.301453C128.181 0.301453 125.892 2.64197 125.892 5.52914C125.892 8.41631 128.181 10.7568 131.005 10.7568Z" fill="#35435E"/>
<path d="M148.671 10.7568C151.496 10.7568 153.785 8.41631 153.785 5.52914C153.785 2.64197 151.496 0.301453 148.671 0.301453C145.847 0.301453 143.558 2.64197 143.558 5.52914C143.558 8.41631 145.847 10.7568 148.671 10.7568Z" fill="#35435E"/>
<path d="M166.337 10.7568C169.161 10.7568 171.451 8.41631 171.451 5.52914C171.451 2.64197 169.161 0.301453 166.337 0.301453C163.513 0.301453 161.223 2.64197 161.223 5.52914C161.223 8.41631 163.513 10.7568 166.337 10.7568Z" fill="#35435E"/>
<path d="M405.922 1.5972H393.373C393.125 1.60214 392.888 1.70441 392.714 1.88207C392.539 2.05972 392.442 2.29858 392.442 2.54736C392.442 2.79614 392.539 3.03501 392.714 3.21266C392.888 3.39031 393.125 3.49259 393.373 3.49753H405.922C406.171 3.49259 406.408 3.39031 406.582 3.21266C406.756 3.03501 406.854 2.79614 406.854 2.54736C406.854 2.29858 406.756 2.05972 406.582 1.88207C406.408 1.70441 406.171 1.60214 405.922 1.5972Z" fill="#35435E"/>
<path d="M405.922 5.16382H393.373C393.125 5.16876 392.888 5.27103 392.714 5.44869C392.539 5.62634 392.442 5.8652 392.442 6.11398C392.442 6.36276 392.539 6.60163 392.714 6.77928C392.888 6.95693 393.125 7.05921 393.373 7.06415H405.922C406.171 7.05921 406.408 6.95693 406.582 6.77928C406.756 6.60163 406.854 6.36276 406.854 6.11398C406.854 5.8652 406.756 5.62634 406.582 5.44869C406.408 5.27103 406.171 5.16876 405.922 5.16382Z" fill="#35435E"/>
<path d="M405.922 8.72577H393.373C393.125 8.73071 392.888 8.83298 392.714 9.01063C392.539 9.18828 392.442 9.42715 392.442 9.67593C392.442 9.92472 392.539 10.1636 392.714 10.3412C392.888 10.5189 393.125 10.6212 393.373 10.6261H405.922C406.171 10.6212 406.408 10.5189 406.582 10.3412C406.756 10.1636 406.854 9.92472 406.854 9.67593C406.854 9.42715 406.756 9.18828 406.582 9.01063C406.408 8.83298 406.171 8.73071 405.922 8.72577Z" fill="#35435E"/>
<path d="M350.882 54.6628H147.739C146.738 54.6628 145.778 55.0602 145.069 55.7675C144.361 56.4749 143.963 57.4344 143.961 58.4354V154.327C143.963 155.329 144.361 156.289 145.069 156.997C145.777 157.705 146.737 158.103 147.739 158.104H350.882C351.883 158.102 352.842 157.703 353.549 156.995C354.256 156.287 354.654 155.328 354.655 154.327V58.4354C354.654 57.4351 354.256 56.4761 353.548 55.7689C352.841 55.0616 351.882 54.6638 350.882 54.6628Z" fill="#35435E"/>
<path d="M297.224 100.86C296.224 100.861 295.265 101.259 294.557 101.967C293.85 102.674 293.452 103.633 293.451 104.633V131.72C293.452 132.72 293.85 133.68 294.557 134.388C295.264 135.096 296.223 135.495 297.224 135.497H354.655V100.86H297.224Z" fill="#04A1F7"/>
<path opacity="0.5" d="M451.223 135.495H297.226C296.225 135.494 295.265 135.096 294.557 134.388C293.849 133.68 293.451 132.72 293.45 131.719V104.634C293.451 103.633 293.849 102.673 294.557 101.965C295.265 101.258 296.225 100.86 297.226 100.858H451.223C452.224 100.86 453.183 101.258 453.891 101.965C454.599 102.673 454.997 103.633 454.998 104.634V131.719C454.997 132.72 454.599 133.68 453.891 134.388C453.183 135.096 452.224 135.494 451.223 135.495Z" fill="#04A1F7"/>
<path d="M318.051 126.035C321.435 126.035 324.178 123.292 324.178 119.908C324.178 116.525 321.435 113.782 318.051 113.782C314.668 113.782 311.925 116.525 311.925 119.908C311.925 123.292 314.668 126.035 318.051 126.035Z" fill="white"/>
<path d="M446.451 118.128H335.748C335.264 118.128 334.8 117.936 334.458 117.594C334.116 117.252 333.923 116.788 333.923 116.304C333.923 115.82 334.116 115.356 334.458 115.014C334.8 114.672 335.264 114.479 335.748 114.479H446.451C446.935 114.479 447.399 114.672 447.741 115.014C448.083 115.356 448.275 115.82 448.275 116.304C448.275 116.788 448.083 117.252 447.741 117.594C447.399 117.936 446.935 118.128 446.451 118.128Z" fill="white"/>
<path d="M404.405 125.337H335.748C335.264 125.337 334.8 125.145 334.458 124.803C334.116 124.461 333.923 123.997 333.923 123.513C333.923 123.029 334.116 122.565 334.458 122.223C334.8 121.88 335.264 121.688 335.748 121.688H404.405C404.889 121.688 405.353 121.88 405.695 122.223C406.037 122.565 406.229 123.029 406.229 123.513C406.229 123.997 406.037 124.461 405.695 124.803C405.353 125.145 404.889 125.337 404.405 125.337Z" fill="white"/>
<path d="M114.367 255.646L119.669 255.646L122.192 235.195H114.366L114.367 255.646Z" fill="#6C5050"/>
<path d="M113.015 253.915L114.508 253.915L120.334 251.545L123.457 253.915C125.222 253.915 126.915 254.616 128.163 255.864C129.411 257.111 130.112 258.804 130.112 260.569V260.785L113.015 260.786L113.015 253.915Z" fill="#2E3141"/>
<path d="M66.459 248.753L71.2047 251.118L82.5851 233.939L75.5815 230.449L66.459 248.753Z" fill="#6C5050"/>
<path d="M66.0208 246.6L67.3565 247.266L73.6282 247.744L75.3663 251.258C76.9457 252.045 78.1481 253.428 78.7083 255.101C79.2684 256.775 79.1409 258.602 78.3538 260.182L78.2573 260.375L62.9561 252.749L66.0208 246.6Z" fill="#2E3141"/>
<path d="M116.716 162.764L83.0039 163.643L83.5902 180.06C83.5902 180.06 83.0039 184.457 84.1765 185.63C85.3491 186.802 85.9354 186.802 85.3491 188.854C84.7628 190.907 83.2471 210.513 83.2471 210.513C83.2471 210.513 69.4105 234.979 69.9968 235.565C70.5831 236.151 71.1694 235.565 70.5831 237.031C69.9968 238.497 69.4105 237.91 69.9968 238.497C70.5161 239.057 71.0054 239.644 71.4625 240.256H81.0183C81.0183 240.256 81.5526 237.324 81.5526 237.031C81.5526 236.738 82.1389 234.979 82.1389 234.686C82.1389 234.393 98.8342 216.704 98.8342 216.704L102.352 187.389L110.853 216.118C110.853 216.118 110.853 241.329 111.44 241.915C112.026 242.501 112.026 242.208 111.733 243.381C111.44 244.554 110.267 244.26 111.147 245.14C112.026 246.019 112.319 244.554 112.026 246.019L111.733 247.485L122.996 247.611C122.996 247.611 124.168 245.14 123.582 244.26C122.996 243.381 123.031 243.621 123.746 242.182C124.461 240.743 124.754 240.449 124.461 240.156C124.168 239.863 124.168 238.304 124.168 238.304C124.168 238.304 119.941 180.646 119.941 179.767C119.919 179.314 120.002 178.863 120.185 178.448V177.254L119.062 173.024L116.716 162.764Z" fill="#2E3141"/>
<path d="M450.564 111.863C448.005 111.863 445.504 111.104 443.377 109.683C441.249 108.261 439.591 106.241 438.612 103.877C437.633 101.513 437.377 98.9122 437.876 96.4028C438.375 93.8934 439.607 91.5884 441.416 89.7792C443.226 87.97 445.531 86.738 448.04 86.2388C450.549 85.7397 453.15 85.9959 455.514 86.975C457.878 87.9541 459.898 89.6122 461.32 91.7395C462.741 93.8669 463.5 96.368 463.5 98.9265C463.5 102.357 462.137 105.648 459.711 108.074C457.285 110.5 453.995 111.863 450.564 111.863Z" fill="#04A1F7"/>
<path d="M455.668 97.6505H451.84V93.8222C451.84 93.4838 451.705 93.1592 451.466 92.9199C451.227 92.6806 450.902 92.5461 450.564 92.5461C450.225 92.5461 449.901 92.6806 449.661 92.9199C449.422 93.1592 449.287 93.4838 449.287 93.8222V97.6505H445.459C445.291 97.6502 445.125 97.683 444.97 97.7469C444.815 97.8109 444.674 97.9049 444.555 98.0234C444.437 98.1419 444.342 98.2827 444.278 98.4377C444.214 98.5927 444.181 98.7588 444.181 98.9266C444.181 99.0944 444.214 99.2605 444.278 99.4155C444.342 99.5705 444.437 99.7112 444.555 99.8298C444.674 99.9483 444.815 100.042 444.97 100.106C445.125 100.17 445.291 100.203 445.459 100.203H449.287V104.031C449.287 104.369 449.422 104.694 449.661 104.933C449.901 105.173 450.225 105.307 450.564 105.307C450.902 105.307 451.227 105.173 451.466 104.933C451.705 104.694 451.84 104.369 451.84 104.031V100.203H455.668C456.006 100.203 456.331 100.068 456.57 99.8289C456.81 99.5896 456.944 99.265 456.944 98.9266C456.944 98.5882 456.81 98.2636 456.57 98.0243C456.331 97.785 456.006 97.6505 455.668 97.6505Z" fill="white"/>
<path d="M253.137 135.67H203.986C202.984 135.671 202.024 136.07 201.316 136.778C200.608 137.486 200.21 138.446 200.208 139.447V158.104H256.909V139.447C256.909 138.447 256.511 137.487 255.804 136.779C255.097 136.071 254.138 135.672 253.137 135.67Z" fill="#04A1F7"/>
<path opacity="0.5" d="M253.135 188.093H203.984C202.983 188.092 202.023 187.694 201.316 186.986C200.608 186.278 200.21 185.318 200.208 184.317V139.446C200.21 138.445 200.608 137.485 201.316 136.777C202.023 136.069 202.983 135.671 203.984 135.67H253.135C254.136 135.671 255.096 136.069 255.804 136.777C256.511 137.485 256.91 138.445 256.911 139.446V184.317C256.91 185.318 256.511 186.278 255.804 186.986C255.096 187.694 254.136 188.092 253.135 188.093Z" fill="#04A1F7"/>
<path d="M218.465 156.939C221.849 156.939 224.592 154.196 224.592 150.813C224.592 147.429 221.849 144.686 218.465 144.686C215.081 144.686 212.338 147.429 212.338 150.813C212.338 154.196 215.081 156.939 218.465 156.939Z" fill="white"/>
<path d="M242.956 166.251H214.163C213.679 166.251 213.215 166.059 212.873 165.717C212.531 165.375 212.339 164.911 212.339 164.427C212.339 163.943 212.531 163.479 212.873 163.137C213.215 162.795 213.679 162.603 214.163 162.603H242.956C243.439 162.603 243.904 162.795 244.246 163.137C244.588 163.479 244.78 163.943 244.78 164.427C244.78 164.911 244.588 165.375 244.246 165.717C243.904 166.059 243.439 166.251 242.956 166.251Z" fill="white"/>
<path d="M228.057 173.46H214.163C213.679 173.46 213.215 173.268 212.873 172.926C212.531 172.584 212.338 172.12 212.338 171.636C212.338 171.152 212.531 170.688 212.873 170.346C213.215 170.004 213.679 169.811 214.163 169.811H228.057C228.541 169.811 229.005 170.004 229.347 170.346C229.689 170.688 229.881 171.152 229.881 171.636C229.881 172.12 229.689 172.584 229.347 172.926C229.005 173.268 228.541 173.46 228.057 173.46Z" fill="white"/>
<path d="M202.959 201.263C200.401 201.263 197.9 200.504 195.772 199.082C193.645 197.661 191.987 195.641 191.008 193.277C190.029 190.913 189.772 188.312 190.272 185.803C190.771 183.293 192.003 180.988 193.812 179.179C195.621 177.37 197.926 176.138 200.435 175.639C202.945 175.139 205.546 175.396 207.91 176.375C210.274 177.354 212.294 179.012 213.715 181.139C215.137 183.267 215.896 185.768 215.896 188.326C215.896 191.757 214.533 195.048 212.107 197.474C209.681 199.9 206.39 201.263 202.959 201.263Z" fill="#04A1F7"/>
<path d="M208.063 187.05H204.235V183.222C204.235 182.883 204.101 182.559 203.861 182.32C203.622 182.08 203.298 181.946 202.959 181.946C202.621 181.946 202.296 182.08 202.057 182.32C201.817 182.559 201.683 182.883 201.683 183.222V187.05H197.855C197.687 187.05 197.521 187.083 197.366 187.147C197.211 187.211 197.07 187.305 196.951 187.423C196.832 187.542 196.738 187.682 196.674 187.837C196.609 187.992 196.576 188.158 196.576 188.326C196.576 188.494 196.609 188.66 196.674 188.815C196.738 188.97 196.832 189.111 196.951 189.229C197.07 189.348 197.211 189.442 197.366 189.506C197.521 189.57 197.687 189.603 197.855 189.602H201.683V193.431C201.683 193.769 201.817 194.094 202.057 194.333C202.296 194.572 202.621 194.707 202.959 194.707C203.298 194.707 203.622 194.572 203.861 194.333C204.101 194.094 204.235 193.769 204.235 193.431V189.602H208.063C208.402 189.602 208.726 189.468 208.966 189.229C209.205 188.989 209.339 188.665 209.339 188.326C209.339 187.988 209.205 187.663 208.966 187.424C208.726 187.185 208.402 187.05 208.063 187.05Z" fill="white"/>
<path d="M196.971 107.144H147.82C146.819 107.143 145.859 106.745 145.152 106.037C144.444 105.329 144.046 104.37 144.044 103.369V58.4967C144.046 57.4957 144.444 56.5361 145.152 55.8283C145.859 55.1205 146.819 54.7224 147.82 54.7213H196.971C197.972 54.7224 198.932 55.1205 199.64 55.8283C200.347 56.5361 200.746 57.4957 200.747 58.4967V103.369C200.746 104.37 200.347 105.329 199.64 106.037C198.932 106.745 197.972 107.143 196.971 107.144Z" fill="#04A1F7"/>
<path d="M162.301 79.7349C165.685 79.7349 168.428 76.9919 168.428 73.6083C168.428 70.2246 165.685 67.4816 162.301 67.4816C158.918 67.4816 156.175 70.2246 156.175 73.6083C156.175 76.9919 158.918 79.7349 162.301 79.7349Z" fill="#04A1F7"/>
<path d="M186.792 87.1747H157.999C157.515 87.1747 157.051 86.9825 156.709 86.6404C156.367 86.2983 156.175 85.8342 156.175 85.3504C156.175 84.8665 156.367 84.4025 156.709 84.0603C157.051 83.7182 157.515 83.526 157.999 83.526H186.792C187.275 83.526 187.739 83.7182 188.082 84.0603C188.424 84.4025 188.616 84.8665 188.616 85.3504C188.616 85.8342 188.424 86.2983 188.082 86.6404C187.739 86.9825 187.275 87.1747 186.792 87.1747Z" fill="#04A1F7"/>
<path d="M171.893 94.3838H157.999C157.515 94.3838 157.051 94.1916 156.709 93.8494C156.367 93.5073 156.175 93.0432 156.175 92.5593C156.175 92.0755 156.367 91.6114 156.709 91.2692C157.051 90.9271 157.515 90.7349 157.999 90.7349H171.893C172.377 90.7349 172.841 90.9271 173.183 91.2692C173.525 91.6114 173.718 92.0755 173.718 92.5593C173.718 93.0432 173.525 93.5073 173.183 93.8494C172.841 94.1916 172.377 94.3838 171.893 94.3838Z" fill="#04A1F7"/>
<path opacity="0.5" d="M196.971 107.144H147.82C146.819 107.143 145.859 106.745 145.152 106.037C144.444 105.329 144.046 104.37 144.044 103.369V58.4967C144.046 57.4957 144.444 56.5361 145.152 55.8283C145.859 55.1205 146.819 54.7224 147.82 54.7213H196.971C197.972 54.7224 198.932 55.1205 199.64 55.8283C200.347 56.5361 200.746 57.4957 200.747 58.4967V103.369C200.746 104.37 200.347 105.329 199.64 106.037C198.932 106.745 197.972 107.143 196.971 107.144Z" fill="#04A1F7"/>
<path d="M162.301 79.7349C165.685 79.7349 168.428 76.9919 168.428 73.6083C168.428 70.2246 165.685 67.4816 162.301 67.4816C158.918 67.4816 156.175 70.2246 156.175 73.6083C156.175 76.9919 158.918 79.7349 162.301 79.7349Z" fill="white"/>
<path d="M186.792 87.1747H157.999C157.515 87.1747 157.051 86.9825 156.709 86.6404C156.367 86.2983 156.175 85.8342 156.175 85.3504C156.175 84.8665 156.367 84.4025 156.709 84.0603C157.051 83.7182 157.515 83.526 157.999 83.526H186.792C187.275 83.526 187.739 83.7182 188.082 84.0603C188.424 84.4025 188.616 84.8665 188.616 85.3504C188.616 85.8342 188.424 86.2983 188.082 86.6404C187.739 86.9825 187.275 87.1747 186.792 87.1747Z" fill="white"/>
<path d="M171.893 94.3838H157.999C157.515 94.3838 157.051 94.1916 156.709 93.8494C156.367 93.5073 156.175 93.0432 156.175 92.5593C156.175 92.0755 156.367 91.6114 156.709 91.2692C157.051 90.9271 157.515 90.7349 157.999 90.7349H171.893C172.377 90.7349 172.841 90.9271 173.183 91.2692C173.525 91.6114 173.718 92.0755 173.718 92.5593C173.718 93.0432 173.525 93.5073 173.183 93.8494C172.841 94.1916 172.377 94.3838 171.893 94.3838Z" fill="white"/>
<path d="M148.834 64.4031C154.263 64.4031 158.663 60.0024 158.663 54.5739C158.663 49.1453 154.263 44.7446 148.834 44.7446C143.406 44.7446 139.005 49.1453 139.005 54.5739C139.005 60.0024 143.406 64.4031 148.834 64.4031Z" fill="#FF6584"/>
<path d="M175.807 260.443C175.807 260.516 175.793 260.589 175.765 260.656C175.737 260.724 175.696 260.786 175.644 260.837C175.592 260.889 175.531 260.93 175.463 260.958C175.396 260.986 175.323 261 175.25 261H44.057C43.9093 261 43.7676 260.941 43.6631 260.837C43.5587 260.732 43.5 260.591 43.5 260.443C43.5 260.295 43.5587 260.154 43.6631 260.049C43.7676 259.945 43.9093 259.886 44.057 259.886H175.25C175.323 259.886 175.396 259.9 175.463 259.928C175.531 259.956 175.592 259.997 175.644 260.049C175.696 260.1 175.737 260.162 175.765 260.23C175.793 260.297 175.807 260.37 175.807 260.443Z" fill="#CCCCCC"/>
<path d="M146.733 80.6096C147.137 81.7394 147.081 82.9827 146.577 84.0715C146.073 85.1603 145.161 86.0074 144.038 86.43C143.789 86.5228 143.533 86.5934 143.272 86.641L140.676 102.536L134.587 96.9134L137.986 82.6812C137.86 81.4819 138.211 80.2813 138.963 79.3389C139.716 78.3965 140.809 77.7881 142.006 77.6451C143.014 77.5297 144.03 77.7602 144.889 78.2989C145.748 78.8376 146.399 79.6524 146.733 80.6096Z" fill="#6C5050"/>
<path d="M101.792 116.626C101.792 116.626 106.519 110.381 123.669 110.552L133.404 107.016L135.629 86.6221L143.415 88.4761L142.303 113.69L125.617 123.33L103.741 127.78L101.792 116.626Z" fill="#35435E"/>
<path d="M99.2812 103.617C104.903 103.617 109.46 99.0593 109.46 93.4376C109.46 87.8158 104.903 83.2584 99.2812 83.2584C93.6594 83.2584 89.1021 87.8158 89.1021 93.4376C89.1021 99.0593 93.6594 103.617 99.2812 103.617Z" fill="#6C5050"/>
<path d="M82.0531 170.618C82.0351 170.619 82.0171 170.616 81.9997 170.611C81.8118 170.559 81.6633 170.517 82.3415 164.653L83.0735 160.018L82.3589 155.925L81.1569 154.723L83.0887 152.791L84.7098 148.186L81.9048 144.03L78.6867 127.031C78.1334 124.098 78.5633 121.065 79.9098 118.401C81.2562 115.737 83.444 113.591 86.1338 112.298L89.8585 111.209L91.2137 108.724C91.5943 108.026 92.1547 107.443 92.8367 107.034C93.5187 106.626 94.2975 106.407 95.0924 106.401L101.913 106.35C102.601 106.345 103.281 106.5 103.9 106.801C104.519 107.103 105.059 107.544 105.478 108.089L107.858 111.183L117.726 114.535L116.09 149.79C116.35 150.007 116.562 150.276 116.712 150.58C116.863 150.884 116.949 151.215 116.964 151.554C116.98 151.892 116.926 152.23 116.804 152.547C116.682 152.863 116.496 153.151 116.258 153.392C116.155 153.495 116.074 153.579 116.024 153.635C115.857 153.871 116.169 155.636 116.555 157.134L117.049 159.428C116.89 159.542 116.757 159.687 116.657 159.854C116.558 160.022 116.494 160.208 116.47 160.401C116.445 160.595 116.462 160.791 116.517 160.978C116.573 161.165 116.667 161.338 116.793 161.487L117.423 162.231C117.548 163.165 117.297 164.11 116.726 164.858C116.155 165.607 115.31 166.099 114.377 166.226C105.359 167.454 82.1003 170.618 82.0531 170.618Z" fill="#35435E"/>
<path d="M96.6775 103.118C96.634 103.023 96.5906 102.926 96.5474 102.83C96.564 102.831 96.5805 102.833 96.5972 102.833L96.6775 103.118Z" fill="#2E3141"/>
<path d="M88.8193 83.7213C89.3026 83.2653 89.9308 82.9937 90.5941 82.9539C91.2523 82.9752 91.9198 83.5697 91.7834 84.214C92.9925 82.0733 94.9169 80.4268 97.2189 79.5636C99.5209 78.7005 102.053 78.6757 104.372 79.4936C106.008 80.0708 107.612 81.2255 107.988 82.9191C108.025 83.3638 108.157 83.7952 108.377 84.1836C108.567 84.3913 108.814 84.5388 109.087 84.6079C109.36 84.6771 109.647 84.6649 109.913 84.5728L109.929 84.5681C110.02 84.537 110.118 84.5339 110.211 84.5593C110.304 84.5847 110.387 84.6374 110.45 84.7105C110.512 84.7836 110.552 84.8738 110.562 84.9695C110.573 85.0651 110.555 85.1618 110.51 85.247L110.047 86.1103C110.631 86.2404 111.237 86.2275 111.815 86.0727C111.91 86.0476 112.012 86.0527 112.105 86.0874C112.198 86.1222 112.277 86.1848 112.333 86.2667C112.389 86.3486 112.418 86.4458 112.417 86.545C112.415 86.6441 112.383 86.7404 112.325 86.8205C111.556 87.873 110.551 88.7314 109.392 89.3273C108.232 89.9233 106.95 90.2404 105.646 90.2534C103.797 90.2422 101.928 89.6047 100.128 90.03C99.4319 90.1946 98.7812 90.5129 98.2239 90.9617C97.6667 91.4105 97.217 91.9784 96.9078 92.6237C96.5986 93.269 96.4378 93.9753 96.4372 94.6908C96.4366 95.4063 96.5963 96.1129 96.9044 96.7587C96.3514 96.1539 95.2825 96.297 94.7168 96.8901C94.4563 97.2075 94.2638 97.5751 94.1511 97.9699C94.0385 98.3648 94.008 98.7786 94.0618 99.1857C94.2126 100.433 94.5828 101.643 95.1553 102.761C92.9682 102.694 90.8544 101.957 89.0995 100.65C87.3446 99.3428 86.0331 97.5287 85.3422 95.4525C84.6513 93.3763 84.6143 91.1381 85.2361 89.0401C85.8579 86.9422 87.1086 85.0857 88.8193 83.7213Z" fill="#2E3141"/>
<path d="M86.0184 185.218C85.0452 184.516 84.3868 183.46 84.1852 182.277C83.9836 181.094 84.255 179.879 84.9408 178.895C85.0929 178.677 85.2639 178.474 85.4519 178.287L78.583 163.719L86.7866 164.901L92.0518 178.553C92.8351 179.47 93.2261 180.659 93.1402 181.861C93.0544 183.064 92.4987 184.185 91.5931 184.981C90.8286 185.647 89.8603 186.033 88.8472 186.076C87.8342 186.119 86.8366 185.817 86.0184 185.218Z" fill="#6C5050"/>
<path d="M83.9381 177.263L73.0079 152.698L72.8984 133.296L76.3439 122.816C76.8113 121.394 77.559 120.08 78.5429 118.952C79.5267 117.824 80.7266 116.905 82.0718 116.249C83.417 115.593 84.88 115.213 86.3745 115.131C87.869 115.05 89.3647 115.269 90.773 115.776L90.8489 115.804L90.8807 115.878C91.008 116.175 93.8978 123.323 85.3261 138.027L83.6011 148.089L89.6541 171.152L83.9381 177.263Z" fill="#35435E"/>
</g>
<defs>
<clipPath id="clip0_14_1070">
<rect width="420" height="260.699" fill="white" transform="translate(43.5 0.301453)"/>
</clipPath>
</defs>
</svg>
