<svg width="391" height="364" viewBox="0 0 391 364" fill="none" xmlns="http://www.w3.org/2000/svg">
<g clip-path="url(#clip0_2387_2193)">
<path d="M263.141 258.044H123.102C111.331 258.044 101.755 248.468 101.755 236.697V96.6582C101.755 84.8871 111.331 75.3109 123.102 75.3109H263.141C274.912 75.3109 284.488 84.8871 284.488 96.6582V236.697C284.488 248.468 274.912 258.044 263.141 258.044ZM123.102 78.7264C113.199 78.7264 105.17 86.7547 105.17 96.6582V236.697C105.17 246.6 113.199 254.628 123.102 254.628H221.196C254.265 254.628 281.073 227.821 281.073 194.752V96.6582C281.073 86.7547 273.044 78.7264 263.141 78.7264L123.102 78.7264Z" fill="#EEF1F7"/>
<path d="M138.2 93.289C131.573 93.289 126.181 98.6808 126.181 105.309V124.122C126.181 130.75 131.573 136.142 138.2 136.142H157.014C163.642 136.142 169.034 130.75 169.034 124.122V105.309C169.034 98.6808 163.642 93.289 157.014 93.289H138.2Z" fill="#EEF1F7"/>
<path d="M138.2 146.252C131.573 146.252 126.181 151.643 126.181 158.271V177.085C126.181 183.713 131.573 189.105 138.2 189.105H157.014C163.642 189.105 169.034 183.713 169.034 177.085V158.271C169.034 151.643 163.642 146.252 157.014 146.252H138.2Z" fill="#EEF1F7"/>
<path d="M138.2 199.214C131.573 199.214 126.181 204.606 126.181 211.234V230.047C126.181 236.675 131.573 242.067 138.2 242.067H157.014C163.642 242.067 169.034 236.675 169.034 230.047V211.234C169.034 204.606 163.642 199.214 157.014 199.214H138.2Z" fill="#EEF1F7"/>
<path d="M150.676 47.3882C142.325 47.3882 135.531 54.1821 135.531 62.5334V86.239C135.531 94.5904 142.325 101.384 150.676 101.384H174.382C182.733 101.384 189.527 94.5904 189.527 86.239V62.5334C189.527 54.1821 182.733 47.3882 174.382 47.3882H150.676Z" fill="#29D093"/>
<path d="M228.721 113.635C220.37 113.635 213.576 120.429 213.576 128.781V152.486C213.576 160.838 220.37 167.632 228.721 167.632H252.427C260.778 167.632 267.572 160.838 267.572 152.486V128.781C267.572 120.429 260.778 113.635 252.427 113.635H228.721Z" fill="#29D093"/>
<path d="M194.791 352.242L189.976 352.201L187.844 333.193L194.951 333.253L194.791 352.242Z" fill="#6C5050"/>
<path d="M179.365 359.9C179.355 361.085 180.31 362.061 181.5 362.072L191.075 362.152L192.751 358.754L193.367 362.169L196.98 362.202L196.067 350.021L194.81 349.938L189.684 349.584L188.029 349.474L188 352.92L180.309 358.137C179.724 358.534 179.371 359.193 179.365 359.9Z" fill="#2E3E38"/>
<path d="M219.294 352.242L214.478 352.201L212.347 333.193L219.454 333.253L219.294 352.242Z" fill="#6C5050"/>
<path d="M203.868 359.9C203.858 361.085 204.813 362.061 206.003 362.072L215.578 362.152L217.254 358.754L217.87 362.169L221.483 362.202L220.57 350.021L219.313 349.938L214.186 349.584L212.532 349.474L212.503 352.92L204.812 358.137C204.227 358.534 203.874 359.193 203.868 359.9Z" fill="#2E3E38"/>
<path d="M175.893 198.559L195.414 199.175L213.908 203.285C213.908 203.285 212.058 205.545 218.223 211.71C218.223 211.71 226.442 226.094 220.688 240.066L218.223 295.958C218.223 295.958 225.412 335.358 219.919 347.897L212.659 348.351L200.374 296.413L194.387 240.477L191.51 295.547C191.51 295.547 202.515 333.346 195.566 348.351L187.703 347.897L174.249 295.547C174.249 295.547 168.496 235.135 169.318 223.628C170.14 212.121 175.893 198.559 175.893 198.559Z" fill="#2E3E38"/>
<path d="M241.449 110.242C238.781 110.933 237.178 113.656 237.869 116.325C238.185 117.547 238.931 118.542 239.901 119.199L239.9 119.206L239.522 128.376L246.539 131.623L247.099 117.513L247.05 117.514C247.658 116.43 247.869 115.121 247.532 113.822C246.841 111.154 244.118 109.551 241.449 110.242Z" fill="#6C5050"/>
<path d="M202.231 142.967C200.757 141.506 199.902 139.525 199.87 137.371C199.827 134.481 201.275 131.858 203.744 130.355C206.587 128.623 210.141 128.798 212.8 130.8L234.835 147.391L238.761 123.491L247.19 126.204L245.179 157.325C245.038 159.502 243.808 161.42 241.888 162.455C239.968 163.49 237.69 163.464 235.794 162.386L203.951 144.269C203.311 143.905 202.735 143.466 202.231 142.967Z" fill="#3B6556"/>
<path d="M168.633 96.8733C170.041 99.2428 169.262 102.306 166.893 103.714C165.807 104.36 164.577 104.541 163.426 104.325L163.421 104.33L157.234 111.108L149.965 108.474L159.501 98.0592L159.535 98.0947C159.866 96.8966 160.639 95.8186 161.792 95.1333C164.161 93.7247 167.224 94.5037 168.633 96.8733Z" fill="#6C5050"/>
<path d="M171.305 147.439L135.936 137.885C133.831 137.316 132.195 135.73 131.56 133.643C130.925 131.556 131.402 129.328 132.834 127.683L153.317 104.167L161.213 108.175L147.175 127.911L174.503 131.643C177.801 132.094 180.448 134.472 181.248 137.703C181.943 140.509 181.125 143.391 179.059 145.413C177.52 146.92 175.518 147.725 173.443 147.724C172.734 147.724 172.015 147.63 171.305 147.439Z" fill="#3B6556"/>
<path d="M221.729 206.781L172.27 209.05C170.912 206.987 171.28 203.886 173.182 200.002C180.365 185.336 174.91 157.593 171.24 143.147C170.211 139.094 172.975 135.064 177.136 134.648L181.799 134.182L186.11 121.023H201.207L207.47 128.178L218.099 134.635C216.164 154.564 207.921 182.705 219.665 196.817C222.233 199.904 222.962 203.241 221.729 206.781Z" fill="#3B6556"/>
<path d="M191.738 121.327C199.859 121.327 206.443 114.743 206.443 106.622C206.443 98.5007 199.859 91.9171 191.738 91.9171C183.617 91.9171 177.033 98.5007 177.033 106.622C177.033 114.743 183.617 121.327 191.738 121.327Z" fill="#6C5050"/>
<path d="M208.377 97.2094C210.423 89.7502 188.125 83.3538 183.792 89.3607C183.189 88.5067 180.963 87.988 179.941 88.25C178.919 88.5119 178.06 89.1668 177.222 89.8008C176.069 90.6863 174.874 91.6032 174.167 92.8764C173.455 94.1443 173.345 95.8733 174.303 96.9736C175.063 97.8485 176.398 102.498 177.54 102.729C178.337 102.891 179.007 103.022 179.584 103.116C180.097 102.367 181.406 101.426 181.312 100.52C182.088 101.033 181.804 101.936 181.648 102.86C181.127 105.934 169.399 129.733 176.116 122.72C176.782 123.113 177.604 123.48 178.552 123.815C180.161 121.389 181.481 118.528 182.351 115.537L182.357 115.592C182.657 118.192 184.557 120.325 187.07 121.053C197.154 123.975 205.311 119.688 208.116 111.958C207.089 109.873 206.642 110.099 206.734 110.037C208.016 109.173 209.778 109.738 210.329 111.183C210.492 111.609 210.64 111.973 210.768 112.246C212.229 107.017 213.968 107.772 208.377 97.2094Z" fill="#2E3E38"/>
<path d="M201.422 91.7974L200.392 86.5316C200.305 86.0889 200.223 85.6086 200.422 85.2042C200.679 84.6845 201.338 84.4691 201.912 84.5519C202.485 84.6347 202.914 85.1587 203.485 85.2596C205.469 85.6103 208.092 83.6505 208.803 88.6085C209.099 90.6757 212.398 90.894 213.499 92.6681C214.601 94.4422 214.736 97.003 213.233 98.4524C212.032 99.61 210.104 99.7436 208.544 99.1523C206.985 98.561 205.733 97.3666 204.64 96.107C203.547 94.8475 202.557 93.4845 201.296 92.3929" fill="#2E3E38"/>
<path d="M209.163 99.8068C205.139 99.2447 202.397 97.7813 201.011 95.4576C199.198 92.4159 200.413 89.0666 200.465 88.9255L201.316 89.2416C201.304 89.2724 200.203 92.3383 201.796 95.0008C203.035 97.0719 205.556 98.3866 209.289 98.9082L209.163 99.8068Z" fill="#29D093"/>
<path d="M228.045 42.9083C216.216 42.9083 206.591 33.2833 206.591 21.4542C206.591 9.62504 216.216 0 228.045 0C239.874 0 249.499 9.62504 249.499 21.4542C249.499 33.2833 239.874 42.9083 228.045 42.9083ZM228.045 8.58167C220.947 8.58167 215.172 14.3559 215.172 21.4542C215.172 28.5525 220.947 34.3267 228.045 34.3267C235.143 34.3267 240.917 28.5525 240.917 21.4542C240.917 14.3559 235.143 8.58167 228.045 8.58167Z" fill="#29D093"/>
<path d="M261.054 57.4884C260.003 57.4884 258.949 57.105 258.121 56.3277L237.985 37.4568C236.254 35.8372 236.166 33.1219 237.788 31.3935C239.405 29.6587 242.121 29.5728 243.851 31.1965L263.987 50.0674C265.718 51.6869 265.806 54.4022 264.184 56.1307C263.34 57.0337 262.198 57.4884 261.054 57.4884Z" fill="#29D093"/>
<path d="M352.06 351.76C353.519 351.851 354.325 350.039 353.222 348.982L353.112 348.546C353.126 348.511 353.141 348.476 353.155 348.441C354.631 344.923 359.631 344.947 361.094 348.471C362.392 351.598 364.045 354.73 364.452 358.036C364.635 359.496 364.553 360.983 364.229 362.415C367.271 355.769 368.872 348.513 368.872 341.215C368.872 339.382 368.771 337.548 368.566 335.719C368.397 334.223 368.165 332.736 367.864 331.263C366.236 323.299 362.71 315.714 357.624 309.379C355.18 308.043 353.141 305.954 351.909 303.45C351.467 302.547 351.12 301.575 350.956 300.585C351.234 300.622 352.005 296.385 351.795 296.125C352.183 295.536 352.877 295.244 353.3 294.67C355.406 291.814 358.308 292.313 359.823 296.193C363.059 297.826 363.09 300.535 361.104 303.14C359.841 304.797 359.668 307.039 358.559 308.814C358.673 308.959 358.792 309.101 358.906 309.247C360.997 311.929 362.805 314.811 364.33 317.84C363.899 314.474 364.535 310.419 365.62 307.806C366.854 304.827 369.168 302.319 371.206 299.745C373.653 296.652 378.672 298.002 379.104 301.922C379.108 301.96 379.112 301.998 379.116 302.036C378.813 302.207 378.517 302.388 378.227 302.58C376.575 303.672 377.146 306.233 379.104 306.535L379.148 306.542C379.038 307.632 378.851 308.713 378.578 309.776C381.192 319.885 375.548 323.567 367.49 323.733C367.312 323.824 367.139 323.915 366.961 324.002C367.777 326.301 368.429 328.659 368.913 331.049C369.346 333.16 369.647 335.295 369.816 337.439C370.026 340.143 370.008 342.862 369.779 345.562L369.793 345.466C370.372 342.492 371.987 339.715 374.331 337.79C377.824 334.921 382.758 333.864 386.526 331.558C388.339 330.448 390.663 331.883 390.347 333.986L390.331 334.086C389.77 334.314 389.223 334.579 388.694 334.875C388.391 335.046 388.095 335.227 387.805 335.419C386.153 336.512 386.724 339.073 388.682 339.375L388.726 339.382C388.758 339.386 388.785 339.391 388.817 339.395C387.855 341.68 386.514 343.801 384.835 345.63C383.201 354.455 376.181 355.293 368.671 352.723H368.667C367.846 356.299 366.646 359.792 365.104 363.122H352.379C352.333 362.98 352.292 362.834 352.251 362.693C353.428 362.766 354.614 362.698 355.773 362.483C354.828 361.325 353.884 360.157 352.94 358.999C352.917 358.976 352.899 358.953 352.881 358.93C352.402 358.337 351.918 357.749 351.44 357.156L351.439 357.155C351.409 355.335 351.628 353.521 352.06 351.76Z" fill="#EEF1F7"/>
<path d="M0 363.16C0 363.626 0.37429 364 0.840381 364H389.437C389.903 364 390.277 363.626 390.277 363.16C390.277 362.694 389.903 362.319 389.437 362.319H0.840381C0.37429 362.319 0 362.694 0 363.16Z" fill="#CCCCCC"/>
</g>
<defs>
<clipPath id="clip0_2387_2193">
<rect width="390.376" height="364" fill="white"/>
</clipPath>
</defs>
</svg>
