<svg width="161" height="160" viewBox="0 0 161 160" fill="none" xmlns="http://www.w3.org/2000/svg">
<path d="M111.638 139.35C111.263 133.075 109.15 126.637 105.313 120.037C101.825 114.025 97.7375 109.3 93.0625 105.862C92.025 105.1 90.95 104.4 89.85 103.762C87.9125 102.637 86.0625 101.825 84.3125 101.337C81.0125 100.362 78.025 100.475 75.375 101.675L74.375 102.175C72.9 103.012 71.6875 104.125 70.7375 105.5C68.9 108.112 67.9875 111.687 67.9875 116.237C67.9875 120.787 68.9 125.437 70.7375 130.162C71.7 132.65 72.9 135.15 74.375 137.675C78.6375 145.025 83.8 150.45 89.85 153.95C95.9 157.438 101.05 157.975 105.313 155.537C109.588 153.112 111.713 148.425 111.713 141.475C111.713 140.762 111.688 140.063 111.638 139.35ZM86.675 138.312L79.4375 125.812L77.825 123.037L82.4125 120.3L84.225 123.425L86.675 127.65L97.2875 121.862L101.875 129.775L86.675 138.312Z" stroke="#037A4E" stroke-width="0.75" stroke-linecap="round" stroke-linejoin="round"/>
<path d="M101.875 129.775L86.6752 138.312L79.4377 125.812L77.8252 123.037L82.4002 120.3L84.2252 123.425L86.6752 127.65L97.2877 121.862L101.875 129.775Z" stroke="#037A4E" stroke-width="0.75" stroke-linecap="round" stroke-linejoin="round"/>
<path d="M62.375 37.7248L49.25 30.1498L24.25 15.7123V111.062L30.8125 107.312L37.375 118.625L43.9375 114.887L50.4875 126.2L57.05 122.462L63.6125 133.775L64.2625 133.4C62.5875 129.513 61.3375 125.713 60.5 122.012C59.6625 118.3 59.2375 114.7 59.2375 111.187C59.2375 110.262 59.25 109.412 59.2875 108.637C59.325 107.875 59.425 107.1 59.5625 106.35L37.375 93.5373V83.4998L46.6875 88.8748L49.25 90.3623L62.1875 97.8373C62.9875 96.3748 63.925 95.1123 64.975 94.0498C66.0375 92.9873 67.1875 92.0998 68.425 91.3998L56 84.2248L49.25 80.3248L37.375 73.4623V63.4373L46.6875 68.8123L49.25 70.2873L62.375 77.8623L77.75 86.7373L80.825 88.5123L89.85 93.7248C90.0625 93.8498 90.275 93.9748 90.4875 94.1123C91.675 94.8123 92.85 95.5998 94.025 96.4623C94.875 97.0748 95.725 97.7248 96.575 98.4248C98.8 100.25 100.925 102.337 102.963 104.687V61.1623L62.375 37.7248ZM89.85 83.6873L88.7 83.0248L87.0625 82.0748L56 64.1498L49.25 60.2498L37.375 53.3998V43.3623L46.6875 48.7373L49.25 50.2248L62.375 57.7998L89.85 73.6623V83.6873Z" stroke="#037A4E" stroke-width="0.75" stroke-linecap="round" stroke-linejoin="round"/>
<path d="M46.675 48.7374L37.375 53.3999V43.3624L46.675 48.7374Z" stroke="#037A4E" stroke-width="0.75" stroke-linecap="round" stroke-linejoin="round"/>
<path d="M89.85 73.6621V83.6872L88.7 83.0246L87.0625 82.0746L55.9875 64.1497L49.25 60.2497L37.375 53.3996L46.675 48.7371L49.25 50.2246L62.375 57.7996L89.85 73.6621Z" stroke="#037A4E" stroke-width="0.75" stroke-linecap="round" stroke-linejoin="round"/>
<path d="M127.962 48.6621V92.1871L120.912 95.6996L102.962 104.687V61.1621L109.325 57.9746L127.962 48.6621Z" stroke="#037A4E" stroke-width="0.75" stroke-linecap="round" stroke-linejoin="round"/>
<path d="M127.963 48.6623L109.325 57.9748L102.963 61.1623L62.375 37.7248L49.25 30.1498L24.25 15.7123L49.25 3.21228L127.963 48.6623Z" stroke="#037A4E" stroke-width="0.75" stroke-linecap="round" stroke-linejoin="round"/>
<path d="M84.5625 93.8495C84.425 94.5995 84.325 95.3745 84.2875 96.137C84.2875 96.487 84.2625 96.862 84.25 97.237L74.375 102.174C72.9 103.012 71.6875 104.124 70.7375 105.499C68.9 108.112 67.9876 111.687 67.9876 116.237C67.9876 120.787 68.9 125.437 70.7375 130.162L64.2625 133.4C62.5875 129.512 61.3375 125.712 60.5 122.012C59.6625 118.299 59.2375 114.699 59.2375 111.187C59.2375 110.262 59.25 109.412 59.2875 108.637C59.325 107.874 59.425 107.099 59.5625 106.349L61.8501 105.212L84.5625 93.8495Z" stroke="#037A4E" stroke-width="0.75" stroke-linecap="round" stroke-linejoin="round"/>
<path d="M136.712 128.975C136.712 135.925 134.587 140.612 130.312 143.037L128.975 143.7L105.312 155.537C109.587 153.112 111.712 148.425 111.712 141.475C111.712 140.762 111.687 140.062 111.637 139.35C111.262 133.075 109.15 126.637 105.312 120.037C101.825 114.025 97.7373 109.3 93.0623 105.863C92.0248 105.1 90.9498 104.4 89.8498 103.763C87.9123 102.638 86.0623 101.825 84.3123 101.338C81.0123 100.363 78.0248 100.475 75.3748 101.675L84.2498 97.2375L90.4873 94.1125C91.6748 94.8125 92.8498 95.6 94.0248 96.4625C94.8748 97.075 95.7248 97.7251 96.5748 98.4251C98.7998 100.25 100.925 102.338 102.962 104.688L120.925 95.7001C124.425 98.8376 127.562 102.787 130.312 107.537C134.587 114.887 136.712 122.038 136.712 128.975Z" stroke="#037A4E" stroke-width="0.75" stroke-linecap="round" stroke-linejoin="round"/>
<path d="M46.6875 68.8125L37.375 73.4625V63.4375L46.6875 68.8125Z" stroke="#037A4E" stroke-width="0.75" stroke-linecap="round" stroke-linejoin="round"/>
<path d="M77.7375 86.7373L68.4125 91.3998L56 84.2248L49.25 80.3248L37.375 73.4623L46.6875 68.8123L49.25 70.2873L62.375 77.8623L77.7375 86.7373Z" stroke="#037A4E" stroke-width="0.75" stroke-linecap="round" stroke-linejoin="round"/>
<path d="M46.675 88.8748L37.375 93.5373V83.4998L46.675 88.8748Z" stroke="#037A4E" stroke-width="0.75" stroke-linecap="round" stroke-linejoin="round"/>
<path d="M84.5625 93.8495L61.8375 105.212L59.5625 106.35L37.375 93.537L46.675 88.8745L49.25 90.362L62.1875 97.837L77.8625 89.987L84.5625 93.8495Z" stroke="#037A4E" stroke-width="0.75" stroke-linecap="round" stroke-linejoin="round"/>
<path d="M80.8252 88.5121L77.8752 89.9871L62.1877 97.8371C62.9877 96.3746 63.9252 95.1121 64.9752 94.0496C66.0377 92.9871 67.1877 92.0996 68.4252 91.3996L77.7502 86.737L80.8252 88.5121Z" stroke="#037A4E" stroke-width="0.75" stroke-linecap="round" stroke-linejoin="round"/>
</svg>
