<svg width="161" height="160" viewBox="0 0 161 160" fill="none" xmlns="http://www.w3.org/2000/svg">
<path d="M111.638 139.35C111.263 133.075 109.151 126.638 105.313 120.037C101.826 114.025 97.7383 109.3 93.0633 105.862C92.0258 105.1 90.9508 104.4 89.8508 103.762C87.9133 102.637 86.0633 101.825 84.3133 101.337C81.0133 100.362 78.0258 100.475 75.3758 101.675L74.3758 102.175C72.9008 103.012 71.6883 104.125 70.7383 105.5C68.9008 108.112 67.9883 111.687 67.9883 116.237C67.9883 120.787 68.9008 125.438 70.7383 130.163C71.7008 132.65 72.9008 135.15 74.3758 137.675C78.6383 145.025 83.8008 150.45 89.8508 153.95C95.9008 157.438 101.051 157.975 105.313 155.538C109.588 153.113 111.713 148.425 111.713 141.475C111.713 140.763 111.688 140.063 111.638 139.35ZM86.6758 138.313L79.4383 125.813L77.8258 123.037L82.4133 120.3L84.2258 123.425L86.6758 127.65L97.2883 121.862L101.876 129.775L86.6758 138.313Z" stroke="#037A4E" stroke-width="0.75" stroke-linecap="round" stroke-linejoin="round"/>
<path d="M101.874 129.775L86.6742 138.313L79.4367 125.813L77.8242 123.037L82.3992 120.3L84.2242 123.425L86.6742 127.65L97.2867 121.862L101.874 129.775Z" stroke="#037A4E" stroke-width="0.75" stroke-linecap="round" stroke-linejoin="round"/>
<path d="M62.375 37.7248L49.25 30.1497L24.25 15.7122V111.062L30.8125 107.312L37.375 118.625L43.9375 114.887L50.4875 126.2L57.05 122.462L63.6125 133.775L64.2625 133.4C62.5875 129.512 61.3375 125.713 60.5 122.012C59.6625 118.3 59.2375 114.7 59.2375 111.187C59.2375 110.262 59.25 109.412 59.2875 108.637C59.325 107.875 59.425 107.1 59.5625 106.35L37.375 93.5373V83.4997L46.6875 88.8747L49.25 90.3623L62.1875 97.8372C62.9875 96.3747 63.925 95.1122 64.975 94.0497C66.0375 92.9872 67.1875 92.0997 68.425 91.3997L56 84.2247L49.25 80.3248L37.375 73.4622V63.4373L46.6875 68.8122L49.25 70.2872L62.375 77.8622L77.75 86.7372L80.825 88.5122L89.85 93.7247C90.0625 93.8497 90.275 93.9748 90.4875 94.1123C91.675 94.8123 92.85 95.5997 94.025 96.4622C94.875 97.0747 95.725 97.7247 96.575 98.4247C98.8 100.25 100.925 102.337 102.963 104.687V61.1622L62.375 37.7248ZM89.85 83.6872L88.7 83.0247L87.0625 82.0747L56 64.1497L49.25 60.2497L37.375 53.3997V43.3622L46.6875 48.7372L49.25 50.2247L62.375 57.7997L89.85 73.6622V83.6872Z" stroke="#037A4E" stroke-width="0.75" stroke-linecap="round" stroke-linejoin="round"/>
<path d="M46.675 48.7374L37.375 53.3999V43.3624L46.675 48.7374Z" stroke="#037A4E" stroke-width="0.75" stroke-linecap="round" stroke-linejoin="round"/>
<path d="M89.85 73.6621V83.6872L88.7 83.0246L87.0625 82.0746L55.9875 64.1497L49.25 60.2497L37.375 53.3996L46.675 48.7371L49.25 50.2246L62.375 57.7996L89.85 73.6621Z" stroke="#037A4E" stroke-width="0.75" stroke-linecap="round" stroke-linejoin="round"/>
<path d="M127.963 48.6621V92.1871L120.913 95.6996L102.963 104.687V61.1621L109.325 57.9746L127.963 48.6621Z" stroke="#037A4E" stroke-width="0.75" stroke-linecap="round" stroke-linejoin="round"/>
<path d="M127.963 48.6623L109.325 57.9748L102.963 61.1623L62.375 37.7248L49.25 30.1498L24.25 15.7123L49.25 3.21228L127.963 48.6623Z" stroke="#037A4E" stroke-width="0.75" stroke-linecap="round" stroke-linejoin="round"/>
<path d="M84.5633 93.8495C84.4258 94.5995 84.3258 95.3745 84.2883 96.137C84.2883 96.487 84.2633 96.862 84.2508 97.237L74.3758 102.175C72.9008 103.012 71.6883 104.125 70.7383 105.5C68.9008 108.112 67.9883 111.687 67.9883 116.237C67.9883 120.787 68.9008 125.438 70.7383 130.163L64.2633 133.4C62.5883 129.513 61.3383 125.713 60.5008 122.012C59.6633 118.3 59.2383 114.7 59.2383 111.187C59.2383 110.262 59.2508 109.412 59.2883 108.637C59.3258 107.875 59.4258 107.1 59.5633 106.35L61.8508 105.212L84.5633 93.8495Z" stroke="#037A4E" stroke-width="0.75" stroke-linecap="round" stroke-linejoin="round"/>
<path d="M136.713 128.975C136.713 135.925 134.588 140.612 130.313 143.037L128.975 143.7L105.313 155.537C109.588 153.112 111.713 148.425 111.713 141.475C111.713 140.762 111.687 140.062 111.637 139.35C111.262 133.075 109.15 126.637 105.313 120.037C101.825 114.025 97.7375 109.3 93.0625 105.863C92.025 105.1 90.95 104.4 89.85 103.763C87.9125 102.638 86.0625 101.825 84.3125 101.338C81.0125 100.363 78.025 100.475 75.375 101.675L84.25 97.2375L90.4875 94.1125C91.675 94.8125 92.85 95.6 94.025 96.4625C94.875 97.075 95.725 97.7251 96.575 98.4251C98.8 100.25 100.925 102.338 102.963 104.688L120.925 95.7001C124.425 98.8376 127.563 102.787 130.313 107.537C134.588 114.887 136.713 122.038 136.713 128.975Z" stroke="#037A4E" stroke-width="0.75" stroke-linecap="round" stroke-linejoin="round"/>
<path d="M46.6875 68.8125L37.375 73.4625V63.4375L46.6875 68.8125Z" stroke="#037A4E" stroke-width="0.75" stroke-linecap="round" stroke-linejoin="round"/>
<path d="M77.7375 86.7373L68.4125 91.3998L56 84.2248L49.25 80.3248L37.375 73.4623L46.6875 68.8123L49.25 70.2873L62.375 77.8623L77.7375 86.7373Z" stroke="#037A4E" stroke-width="0.75" stroke-linecap="round" stroke-linejoin="round"/>
<path d="M46.675 88.8747L37.375 93.5372V83.4997L46.675 88.8747Z" stroke="#037A4E" stroke-width="0.75" stroke-linecap="round" stroke-linejoin="round"/>
<path d="M84.5625 93.8495L61.8375 105.212L59.5625 106.349L37.375 93.537L46.675 88.8745L49.25 90.362L62.1875 97.837L77.8625 89.987L84.5625 93.8495Z" stroke="#037A4E" stroke-width="0.75" stroke-linecap="round" stroke-linejoin="round"/>
<path d="M80.825 88.5121L77.875 89.9871L62.1875 97.8371C62.9875 96.3746 63.925 95.1121 64.975 94.0496C66.0375 92.9871 67.1875 92.0996 68.425 91.3996L77.75 86.737L80.825 88.5121Z" stroke="#037A4E" stroke-width="0.75" stroke-linecap="round" stroke-linejoin="round"/>
</svg>
