<svg width="391" height="364" viewBox="0 0 391 364" fill="none" xmlns="http://www.w3.org/2000/svg">
<g clip-path="url(#clip0_14_1002)">
<path d="M263.141 258.044H123.103C111.332 258.044 101.755 248.468 101.755 236.697V96.6581C101.755 84.8871 111.332 75.3108 123.103 75.3108H263.141C274.912 75.3108 284.489 84.8871 284.489 96.6581V236.697C284.489 248.468 274.912 258.044 263.141 258.044ZM123.103 78.7264C113.199 78.7264 105.171 86.7547 105.171 96.6581V236.697C105.171 246.6 113.199 254.628 123.103 254.628H221.196C254.265 254.628 281.073 227.821 281.073 194.752V96.6581C281.073 86.7547 273.045 78.7264 263.141 78.7264L123.103 78.7264Z" fill="#EEF1F7"/>
<path d="M138.2 93.2889C131.572 93.2889 126.18 98.6808 126.18 105.309V124.122C126.18 130.75 131.572 136.142 138.2 136.142H157.013C163.641 136.142 169.033 130.75 169.033 124.122V105.309C169.033 98.6808 163.641 93.2889 157.013 93.2889H138.2Z" fill="#EEF1F7"/>
<path d="M138.2 146.251C131.572 146.251 126.18 151.643 126.18 158.271V177.085C126.18 183.713 131.572 189.105 138.2 189.105H157.013C163.641 189.105 169.033 183.713 169.033 177.085V158.271C169.033 151.643 163.641 146.251 157.013 146.251H138.2Z" fill="#EEF1F7"/>
<path d="M138.2 199.214C131.572 199.214 126.18 204.606 126.18 211.234V230.047C126.18 236.675 131.572 242.067 138.2 242.067H157.013C163.641 242.067 169.033 236.675 169.033 230.047V211.234C169.033 204.606 163.641 199.214 157.013 199.214H138.2Z" fill="#EEF1F7"/>
<path d="M150.676 47.3881C142.325 47.3881 135.531 54.1819 135.531 62.5333V86.2389C135.531 94.5903 142.325 101.384 150.676 101.384H174.382C182.733 101.384 189.527 94.5903 189.527 86.2389V62.5333C189.527 54.1819 182.733 47.3881 174.382 47.3881H150.676Z" fill="#04A1F7"/>
<path d="M228.72 113.635C220.369 113.635 213.575 120.429 213.575 128.781V152.486C213.575 160.838 220.369 167.631 228.72 167.631H252.426C260.777 167.631 267.571 160.838 267.571 152.486V128.781C267.571 120.429 260.777 113.635 252.426 113.635H228.72Z" fill="#04A1F7"/>
<path d="M194.79 352.242L189.975 352.201L187.843 333.193L194.95 333.253L194.79 352.242Z" fill="#6C5050"/>
<path d="M179.365 359.9C179.354 361.085 180.31 362.061 181.499 362.072L191.075 362.152L192.751 358.754L193.366 362.169L196.979 362.202L196.067 350.021L194.81 349.938L189.683 349.584L188.029 349.474L188 352.92L180.308 358.137C179.723 358.534 179.371 359.193 179.365 359.9Z" fill="#2E3141"/>
<path d="M219.293 352.242L214.477 352.201L212.345 333.193L219.453 333.253L219.293 352.242Z" fill="#6C5050"/>
<path d="M203.867 359.9C203.857 361.085 204.812 362.061 206.002 362.072L215.577 362.152L217.253 358.754L217.869 362.169L221.482 362.202L220.569 350.021L219.312 349.938L214.185 349.584L212.531 349.474L212.502 352.92L204.811 358.137C204.226 358.534 203.873 359.193 203.867 359.9Z" fill="#2E3141"/>
<path d="M175.893 198.559L195.414 199.175L213.907 203.285C213.907 203.285 212.058 205.545 218.222 211.71C218.222 211.71 226.441 226.094 220.688 240.066L218.222 295.958C218.222 295.958 225.412 335.358 219.919 347.897L212.659 348.351L200.374 296.412L194.386 240.477L191.509 295.547C191.509 295.547 202.515 333.346 195.565 348.351L187.702 347.897L174.249 295.547C174.249 295.547 168.495 235.135 169.317 223.628C170.139 212.121 175.893 198.559 175.893 198.559Z" fill="#2E3141"/>
<path d="M241.449 110.242C238.78 110.933 237.177 113.656 237.868 116.325C238.185 117.547 238.931 118.542 239.9 119.199L239.9 119.206L239.521 128.376L246.538 131.623L247.098 117.513L247.049 117.514C247.658 116.43 247.868 115.121 247.532 113.822C246.841 111.154 244.117 109.551 241.449 110.242Z" fill="#6C5050"/>
<path d="M202.231 142.967C200.757 141.506 199.902 139.525 199.87 137.371C199.827 134.481 201.275 131.858 203.743 130.355C206.586 128.623 210.141 128.798 212.8 130.8L234.834 147.391L238.761 123.491L247.19 126.204L245.179 157.325C245.038 159.502 243.808 161.42 241.887 162.455C239.967 163.49 237.689 163.464 235.793 162.386L203.95 144.269C203.31 143.905 202.734 143.466 202.231 142.967Z" fill="#35435E"/>
<path d="M168.632 96.8733C170.041 99.2428 169.262 102.306 166.892 103.714C165.806 104.36 164.576 104.541 163.425 104.325L163.421 104.33L157.234 111.108L149.964 108.474L159.501 98.0593L159.535 98.0948C159.866 96.8967 160.638 95.8187 161.791 95.1334C164.161 93.7248 167.223 94.5038 168.632 96.8733Z" fill="#6C5050"/>
<path d="M171.304 147.439L135.936 137.885C133.83 137.316 132.194 135.73 131.559 133.643C130.925 131.556 131.401 129.328 132.834 127.683L153.316 104.167L161.213 108.175L147.174 127.911L174.502 131.643C177.8 132.094 180.448 134.472 181.248 137.703C181.942 140.509 181.124 143.391 179.059 145.413C177.52 146.92 175.518 147.725 173.442 147.724C172.733 147.724 172.015 147.63 171.304 147.439Z" fill="#35435E"/>
<path d="M221.729 206.781L172.27 209.05C170.912 206.987 171.279 203.886 173.182 200.002C180.364 185.336 174.909 157.593 171.24 143.147C170.21 139.094 172.974 135.064 177.135 134.648L181.799 134.182L186.109 121.023H201.206L207.469 128.178L218.099 134.635C216.164 154.564 207.92 182.705 219.664 196.817C222.233 199.904 222.961 203.241 221.729 206.781Z" fill="#35435E"/>
<path d="M191.738 121.327C199.859 121.327 206.443 114.743 206.443 106.622C206.443 98.5006 199.859 91.917 191.738 91.917C183.616 91.917 177.033 98.5006 177.033 106.622C177.033 114.743 183.616 121.327 191.738 121.327Z" fill="#6C5050"/>
<path d="M208.377 97.2094C210.423 89.7502 188.125 83.3538 183.792 89.3607C183.189 88.5067 180.963 87.988 179.941 88.25C178.919 88.5119 178.06 89.1668 177.222 89.8008C176.069 90.6863 174.874 91.6032 174.167 92.8764C173.455 94.1443 173.345 95.8733 174.303 96.9736C175.063 97.8485 176.398 102.498 177.54 102.729C178.337 102.891 179.007 103.022 179.584 103.116C180.097 102.367 181.406 101.426 181.312 100.52C182.088 101.033 181.804 101.936 181.648 102.86C181.127 105.934 169.399 129.733 176.116 122.72C176.782 123.113 177.604 123.48 178.552 123.815C180.161 121.389 181.481 118.528 182.351 115.537L182.357 115.592C182.657 118.192 184.557 120.325 187.07 121.053C197.154 123.975 205.311 119.688 208.116 111.958C207.089 109.873 206.642 110.099 206.734 110.037C208.016 109.173 209.778 109.738 210.329 111.183C210.492 111.609 210.64 111.973 210.768 112.246C212.229 107.017 213.968 107.772 208.377 97.2094Z" fill="#2E3141"/>
<path d="M201.421 91.7973L200.391 86.5314C200.304 86.0888 200.222 85.6085 200.422 85.204C200.678 84.6843 201.338 84.469 201.911 84.5518C202.485 84.6346 202.914 85.1585 203.484 85.2594C205.469 85.6102 208.091 83.6504 208.802 88.6084C209.099 90.6755 212.397 90.8939 213.499 92.668C214.6 94.4421 214.736 97.0029 213.232 98.4523C212.032 99.6099 210.103 99.7435 208.544 99.1522C206.984 98.5608 205.733 97.3664 204.639 96.1069C203.546 94.8474 202.556 93.4844 201.295 92.3928" fill="#2E3141"/>
<path d="M209.163 99.8067C205.139 99.2447 202.396 97.7813 201.011 95.4576C199.198 92.4158 200.412 89.0665 200.465 88.9254L201.315 89.2416C201.304 89.2724 200.202 92.3383 201.795 95.0007C203.034 97.0719 205.555 98.3866 209.288 98.9081L209.163 99.8067Z" fill="#04A1F7"/>
<path d="M228.045 42.9083C216.216 42.9083 206.591 33.2833 206.591 21.4542C206.591 9.62504 216.216 0 228.045 0C239.874 0 249.499 9.62504 249.499 21.4542C249.499 33.2833 239.874 42.9083 228.045 42.9083ZM228.045 8.58167C220.947 8.58167 215.172 14.3559 215.172 21.4542C215.172 28.5525 220.947 34.3267 228.045 34.3267C235.143 34.3267 240.917 28.5525 240.917 21.4542C240.917 14.3559 235.143 8.58167 228.045 8.58167Z" fill="#04A1F7"/>
<path d="M261.054 57.4884C260.003 57.4884 258.949 57.105 258.121 56.3277L237.985 37.4568C236.254 35.8372 236.166 33.1219 237.788 31.3935C239.405 29.6587 242.121 29.5728 243.851 31.1965L263.987 50.0674C265.718 51.6869 265.806 54.4022 264.184 56.1307C263.34 57.0337 262.198 57.4884 261.054 57.4884Z" fill="#04A1F7"/>
<path d="M352.061 351.76C353.52 351.852 354.326 350.039 353.222 348.983L353.112 348.546C353.127 348.511 353.141 348.476 353.156 348.441C354.631 344.923 359.631 344.948 361.094 348.471C362.393 351.598 364.046 354.73 364.453 358.036C364.635 359.496 364.553 360.983 364.229 362.415C367.271 355.77 368.872 348.513 368.872 341.215C368.872 339.382 368.772 337.548 368.567 335.719C368.398 334.223 368.165 332.736 367.864 331.263C366.236 323.3 362.71 315.715 357.625 309.379C355.18 308.043 353.141 305.954 351.91 303.45C351.467 302.547 351.121 301.575 350.957 300.586C351.235 300.622 352.006 296.385 351.796 296.125C352.183 295.537 352.877 295.244 353.301 294.67C355.407 291.815 358.308 292.313 359.823 296.193C363.059 297.826 363.09 300.535 361.105 303.14C359.842 304.797 359.668 307.039 358.56 308.814C358.674 308.96 358.792 309.101 358.906 309.247C360.997 311.929 362.806 314.812 364.331 317.84C363.9 314.474 364.536 310.419 365.62 307.806C366.855 304.828 369.169 302.319 371.206 299.745C373.654 296.652 378.673 298.002 379.104 301.922C379.108 301.96 379.112 301.998 379.116 302.036C378.814 302.207 378.517 302.388 378.228 302.58C376.576 303.672 377.146 306.233 379.104 306.535L379.148 306.542C379.039 307.632 378.852 308.713 378.578 309.776C381.192 319.885 375.549 323.567 367.49 323.733C367.312 323.824 367.139 323.915 366.961 324.002C367.778 326.301 368.43 328.659 368.913 331.049C369.347 333.16 369.648 335.295 369.816 337.439C370.026 340.143 370.008 342.862 369.78 345.562L369.794 345.466C370.373 342.492 371.987 339.715 374.332 337.79C377.824 334.921 382.758 333.865 386.526 331.559C388.34 330.448 390.664 331.883 390.347 333.986L390.332 334.086C389.771 334.314 389.224 334.579 388.695 334.875C388.392 335.046 388.095 335.228 387.806 335.419C386.154 336.512 386.725 339.073 388.682 339.375L388.727 339.382C388.758 339.386 388.786 339.391 388.818 339.395C387.855 341.68 386.514 343.801 384.836 345.63C383.201 354.455 376.181 355.293 368.672 352.723H368.667C367.846 356.299 366.646 359.792 365.105 363.122H352.38C352.334 362.981 352.293 362.835 352.252 362.693C353.429 362.766 354.614 362.698 355.773 362.483C354.829 361.325 353.885 360.157 352.941 358.999C352.918 358.976 352.9 358.953 352.881 358.93C352.402 358.337 351.919 357.749 351.44 357.156L351.44 357.155C351.41 355.335 351.628 353.521 352.061 351.76Z" fill="#EEF1F7"/>
<path d="M0 363.16C0 363.626 0.37429 364 0.840381 364H389.437C389.903 364 390.277 363.626 390.277 363.16C390.277 362.694 389.903 362.319 389.437 362.319H0.840381C0.37429 362.319 0 362.694 0 363.16Z" fill="#CCCCCC"/>
</g>
<defs>
<clipPath id="clip0_14_1002">
<rect width="390.376" height="364" fill="white"/>
</clipPath>
</defs>
</svg>
