<svg width="421" height="261" viewBox="0 0 421 261" fill="none" xmlns="http://www.w3.org/2000/svg">
<g clip-path="url(#clip0_14_1071)">
<path d="M102.228 235.29L102.695 224.789C107.563 222.187 112.993 220.813 118.513 220.785C110.916 226.997 111.865 238.97 106.714 247.323C105.088 249.916 102.899 252.109 100.309 253.741C97.7199 255.373 94.7964 256.401 91.7556 256.75L85.3978 260.642C84.5255 255.779 84.7178 250.784 85.9616 246.002C87.2054 241.22 89.4711 236.765 92.6026 232.943C94.3807 230.816 96.4194 228.922 98.6708 227.305C100.193 231.32 102.228 235.29 102.228 235.29Z" fill="#F2F2F2"/>
<path d="M373.508 17.4103H77.5421C77.4178 17.4075 77.2996 17.3563 77.2127 17.2674C77.1258 17.1786 77.0771 17.0593 77.0771 16.935C77.0771 16.8108 77.1258 16.6914 77.2127 16.6026C77.2996 16.5138 77.4178 16.4625 77.5421 16.4598H373.508C373.632 16.4625 373.751 16.5138 373.837 16.6026C373.924 16.6914 373.973 16.8108 373.973 16.935C373.973 17.0593 373.924 17.1786 373.837 17.2674C373.751 17.3563 373.632 17.4075 373.508 17.4103Z" fill="#CACACA"/>
<path d="M88.0053 10.7568C90.8296 10.7568 93.1191 8.41631 93.1191 5.52914C93.1191 2.64197 90.8296 0.301453 88.0053 0.301453C85.1811 0.301453 82.8916 2.64197 82.8916 5.52914C82.8916 8.41631 85.1811 10.7568 88.0053 10.7568Z" fill="#35435E"/>
<path d="M105.671 10.7568C108.496 10.7568 110.785 8.41631 110.785 5.52914C110.785 2.64197 108.496 0.301453 105.671 0.301453C102.847 0.301453 100.558 2.64197 100.558 5.52914C100.558 8.41631 102.847 10.7568 105.671 10.7568Z" fill="#35435E"/>
<path d="M123.337 10.7568C126.161 10.7568 128.451 8.41631 128.451 5.52914C128.451 2.64197 126.161 0.301453 123.337 0.301453C120.513 0.301453 118.223 2.64197 118.223 5.52914C118.223 8.41631 120.513 10.7568 123.337 10.7568Z" fill="#35435E"/>
<path d="M362.922 1.5972H350.373C350.125 1.60214 349.888 1.70441 349.714 1.88207C349.539 2.05972 349.442 2.29858 349.442 2.54736C349.442 2.79614 349.539 3.03501 349.714 3.21266C349.888 3.39031 350.125 3.49259 350.373 3.49753H362.922C363.171 3.49259 363.408 3.39031 363.582 3.21266C363.756 3.03501 363.854 2.79614 363.854 2.54736C363.854 2.29858 363.756 2.05972 363.582 1.88207C363.408 1.70441 363.171 1.60214 362.922 1.5972Z" fill="#35435E"/>
<path d="M362.922 5.16382H350.373C350.125 5.16876 349.888 5.27103 349.714 5.44869C349.539 5.62634 349.442 5.8652 349.442 6.11398C349.442 6.36276 349.539 6.60163 349.714 6.77928C349.888 6.95693 350.125 7.05921 350.373 7.06415H362.922C363.171 7.05921 363.408 6.95693 363.582 6.77928C363.756 6.60163 363.854 6.36276 363.854 6.11398C363.854 5.8652 363.756 5.62634 363.582 5.44869C363.408 5.27103 363.171 5.16876 362.922 5.16382Z" fill="#35435E"/>
<path d="M362.922 8.72577H350.373C350.125 8.73071 349.888 8.83298 349.714 9.01063C349.539 9.18828 349.442 9.42715 349.442 9.67593C349.442 9.92472 349.539 10.1636 349.714 10.3412C349.888 10.5189 350.125 10.6212 350.373 10.6261H362.922C363.171 10.6212 363.408 10.5189 363.582 10.3412C363.756 10.1636 363.854 9.92472 363.854 9.67593C363.854 9.42715 363.756 9.18828 363.582 9.01063C363.408 8.83298 363.171 8.73071 362.922 8.72577Z" fill="#35435E"/>
<path d="M307.882 54.6628H104.739C103.738 54.6628 102.778 55.0602 102.069 55.7675C101.361 56.4749 100.963 57.4344 100.961 58.4354V154.327C100.963 155.329 101.361 156.289 102.069 156.997C102.777 157.705 103.737 158.103 104.739 158.104H307.882C308.883 158.102 309.842 157.703 310.549 156.995C311.256 156.287 311.654 155.328 311.655 154.327V58.4354C311.654 57.4351 311.256 56.4761 310.548 55.7689C309.841 55.0616 308.882 54.6638 307.882 54.6628Z" fill="#35435E"/>
<path d="M254.224 100.86C253.224 100.861 252.265 101.259 251.557 101.967C250.85 102.674 250.452 103.633 250.451 104.633V131.72C250.452 132.72 250.85 133.68 251.557 134.388C252.264 135.096 253.223 135.495 254.224 135.497H311.655V100.86H254.224Z" fill="#04A1F7"/>
<path opacity="0.5" d="M408.223 135.495H254.226C253.225 135.494 252.265 135.096 251.557 134.388C250.849 133.68 250.451 132.72 250.45 131.719V104.634C250.451 103.633 250.849 102.673 251.557 101.965C252.265 101.258 253.225 100.86 254.226 100.858H408.223C409.224 100.86 410.183 101.258 410.891 101.965C411.599 102.673 411.997 103.633 411.998 104.634V131.719C411.997 132.72 411.599 133.68 410.891 134.388C410.183 135.096 409.224 135.494 408.223 135.495Z" fill="#04A1F7"/>
<path d="M275.051 126.035C278.435 126.035 281.178 123.292 281.178 119.908C281.178 116.525 278.435 113.782 275.051 113.782C271.668 113.782 268.925 116.525 268.925 119.908C268.925 123.292 271.668 126.035 275.051 126.035Z" fill="white"/>
<path d="M403.451 118.128H292.748C292.264 118.128 291.8 117.936 291.458 117.594C291.116 117.252 290.923 116.788 290.923 116.304C290.923 115.82 291.116 115.356 291.458 115.014C291.8 114.672 292.264 114.479 292.748 114.479H403.451C403.935 114.479 404.399 114.672 404.741 115.014C405.083 115.356 405.275 115.82 405.275 116.304C405.275 116.788 405.083 117.252 404.741 117.594C404.399 117.936 403.935 118.128 403.451 118.128Z" fill="white"/>
<path d="M361.405 125.337H292.748C292.264 125.337 291.8 125.145 291.458 124.803C291.116 124.461 290.923 123.997 290.923 123.513C290.923 123.029 291.116 122.565 291.458 122.223C291.8 121.88 292.264 121.688 292.748 121.688H361.405C361.889 121.688 362.353 121.88 362.695 122.223C363.037 122.565 363.229 123.029 363.229 123.513C363.229 123.997 363.037 124.461 362.695 124.803C362.353 125.145 361.889 125.337 361.405 125.337Z" fill="white"/>
<path d="M71.3671 255.646L76.6693 255.646L79.1917 235.195H71.3662L71.3671 255.646Z" fill="#6C5050"/>
<path d="M70.0151 253.915L71.5075 253.915L77.3341 251.545L80.457 253.915C82.2218 253.915 83.9147 254.616 85.1626 255.864C86.4105 257.111 87.1117 258.804 87.1118 260.569V260.785L70.0155 260.786L70.0151 253.915Z" fill="#2E3141"/>
<path d="M23.459 248.753L28.2047 251.118L39.5851 233.939L32.5815 230.449L23.459 248.753Z" fill="#6C5050"/>
<path d="M23.0208 246.6L24.3565 247.266L30.6282 247.744L32.3663 251.258C33.9457 252.045 35.1481 253.428 35.7083 255.101C36.2684 256.775 36.1409 258.602 35.3538 260.182L35.2573 260.375L19.9561 252.749L23.0208 246.6Z" fill="#2E3141"/>
<path d="M73.7165 162.764L40.0039 163.643L40.5902 180.06C40.5902 180.06 40.0039 184.457 41.1765 185.63C42.3491 186.802 42.9354 186.802 42.3491 188.854C41.7628 190.907 40.2471 210.513 40.2471 210.513C40.2471 210.513 26.4105 234.979 26.9968 235.565C27.5831 236.151 28.1694 235.565 27.5831 237.031C26.9968 238.497 26.4105 237.91 26.9968 238.497C27.5161 239.057 28.0054 239.644 28.4625 240.256H38.0183C38.0183 240.256 38.5526 237.324 38.5526 237.031C38.5526 236.738 39.1389 234.979 39.1389 234.686C39.1389 234.393 55.8342 216.704 55.8342 216.704L59.352 187.389L67.8534 216.118C67.8534 216.118 67.8534 241.329 68.4397 241.915C69.026 242.501 69.026 242.208 68.7329 243.381C68.4397 244.554 67.2671 244.26 68.1466 245.14C69.026 246.019 69.3192 244.554 69.026 246.019L68.7329 247.485L79.9956 247.611C79.9956 247.611 81.1682 245.14 80.5819 244.26C79.9956 243.381 80.0308 243.621 80.746 242.182C81.4613 240.743 81.7545 240.449 81.4613 240.156C81.1682 239.863 81.1682 238.304 81.1682 238.304C81.1682 238.304 76.9412 180.646 76.9412 179.767C76.9191 179.314 77.0024 178.863 77.1847 178.448V177.254L76.0617 173.024L73.7165 162.764Z" fill="#2E3141"/>
<path d="M407.564 111.863C405.005 111.863 402.504 111.104 400.377 109.683C398.249 108.261 396.591 106.241 395.612 103.877C394.633 101.513 394.377 98.9122 394.876 96.4028C395.375 93.8934 396.607 91.5884 398.416 89.7792C400.226 87.97 402.531 86.738 405.04 86.2388C407.549 85.7397 410.15 85.9959 412.514 86.975C414.878 87.9541 416.898 89.6122 418.32 91.7395C419.741 93.8669 420.5 96.368 420.5 98.9265C420.5 102.357 419.137 105.648 416.711 108.074C414.285 110.5 410.995 111.863 407.564 111.863Z" fill="#04A1F7"/>
<path d="M412.668 97.6505H408.84V93.8222C408.84 93.4838 408.705 93.1592 408.466 92.9199C408.227 92.6806 407.902 92.5461 407.564 92.5461C407.225 92.5461 406.901 92.6806 406.661 92.9199C406.422 93.1592 406.287 93.4838 406.287 93.8222V97.6505H402.459C402.291 97.6502 402.125 97.683 401.97 97.7469C401.815 97.8109 401.674 97.9049 401.555 98.0234C401.437 98.1419 401.342 98.2827 401.278 98.4377C401.214 98.5927 401.181 98.7588 401.181 98.9266C401.181 99.0944 401.214 99.2605 401.278 99.4155C401.342 99.5705 401.437 99.7112 401.555 99.8298C401.674 99.9483 401.815 100.042 401.97 100.106C402.125 100.17 402.291 100.203 402.459 100.203H406.287V104.031C406.287 104.369 406.422 104.694 406.661 104.933C406.901 105.173 407.225 105.307 407.564 105.307C407.902 105.307 408.227 105.173 408.466 104.933C408.705 104.694 408.84 104.369 408.84 104.031V100.203H412.668C413.006 100.203 413.331 100.068 413.57 99.8289C413.81 99.5896 413.944 99.265 413.944 98.9266C413.944 98.5882 413.81 98.2636 413.57 98.0243C413.331 97.785 413.006 97.6505 412.668 97.6505Z" fill="white"/>
<path d="M210.137 135.67H160.986C159.984 135.671 159.024 136.07 158.316 136.778C157.608 137.486 157.21 138.446 157.208 139.447V158.104H213.909V139.447C213.909 138.447 213.511 137.487 212.804 136.779C212.097 136.071 211.138 135.672 210.137 135.67Z" fill="#04A1F7"/>
<path opacity="0.5" d="M210.135 188.093H160.984C159.983 188.092 159.023 187.694 158.316 186.986C157.608 186.278 157.21 185.318 157.208 184.317V139.446C157.21 138.445 157.608 137.485 158.316 136.777C159.023 136.069 159.983 135.671 160.984 135.67H210.135C211.136 135.671 212.096 136.069 212.804 136.777C213.511 137.485 213.91 138.445 213.911 139.446V184.317C213.91 185.318 213.511 186.278 212.804 186.986C212.096 187.694 211.136 188.092 210.135 188.093Z" fill="#04A1F7"/>
<path d="M175.465 156.939C178.849 156.939 181.592 154.196 181.592 150.813C181.592 147.429 178.849 144.686 175.465 144.686C172.081 144.686 169.338 147.429 169.338 150.813C169.338 154.196 172.081 156.939 175.465 156.939Z" fill="white"/>
<path d="M199.956 166.251H171.163C170.679 166.251 170.215 166.059 169.873 165.717C169.531 165.375 169.339 164.911 169.339 164.427C169.339 163.943 169.531 163.479 169.873 163.137C170.215 162.795 170.679 162.603 171.163 162.603H199.956C200.439 162.603 200.904 162.795 201.246 163.137C201.588 163.479 201.78 163.943 201.78 164.427C201.78 164.911 201.588 165.375 201.246 165.717C200.904 166.059 200.439 166.251 199.956 166.251Z" fill="white"/>
<path d="M185.057 173.46H171.163C170.679 173.46 170.215 173.268 169.873 172.926C169.531 172.584 169.338 172.12 169.338 171.636C169.338 171.152 169.531 170.688 169.873 170.346C170.215 170.004 170.679 169.811 171.163 169.811H185.057C185.541 169.811 186.005 170.004 186.347 170.346C186.689 170.688 186.881 171.152 186.881 171.636C186.881 172.12 186.689 172.584 186.347 172.926C186.005 173.268 185.541 173.46 185.057 173.46Z" fill="white"/>
<path d="M159.959 201.263C157.401 201.263 154.9 200.504 152.772 199.082C150.645 197.661 148.987 195.641 148.008 193.277C147.029 190.913 146.772 188.312 147.272 185.803C147.771 183.293 149.003 180.988 150.812 179.179C152.621 177.37 154.926 176.138 157.435 175.639C159.945 175.139 162.546 175.396 164.91 176.375C167.274 177.354 169.294 179.012 170.715 181.139C172.137 183.267 172.896 185.768 172.896 188.326C172.896 191.757 171.533 195.048 169.107 197.474C166.681 199.9 163.39 201.263 159.959 201.263Z" fill="#04A1F7"/>
<path d="M165.063 187.05H161.235V183.222C161.235 182.883 161.101 182.559 160.861 182.32C160.622 182.08 160.298 181.946 159.959 181.946C159.621 181.946 159.296 182.08 159.057 182.32C158.817 182.559 158.683 182.883 158.683 183.222V187.05H154.855C154.687 187.05 154.521 187.083 154.366 187.147C154.211 187.211 154.07 187.305 153.951 187.423C153.832 187.542 153.738 187.682 153.674 187.837C153.609 187.992 153.576 188.158 153.576 188.326C153.576 188.494 153.609 188.66 153.674 188.815C153.738 188.97 153.832 189.111 153.951 189.229C154.07 189.348 154.211 189.442 154.366 189.506C154.521 189.57 154.687 189.603 154.855 189.602H158.683V193.431C158.683 193.769 158.817 194.094 159.057 194.333C159.296 194.572 159.621 194.707 159.959 194.707C160.298 194.707 160.622 194.572 160.861 194.333C161.101 194.094 161.235 193.769 161.235 193.431V189.602H165.063C165.402 189.602 165.726 189.468 165.966 189.229C166.205 188.989 166.339 188.665 166.339 188.326C166.339 187.988 166.205 187.663 165.966 187.424C165.726 187.185 165.402 187.05 165.063 187.05Z" fill="white"/>
<path d="M153.971 107.144H104.82C103.819 107.143 102.859 106.745 102.152 106.037C101.444 105.329 101.046 104.37 101.044 103.369V58.4967C101.046 57.4957 101.444 56.5361 102.152 55.8283C102.859 55.1205 103.819 54.7224 104.82 54.7213H153.971C154.972 54.7224 155.932 55.1205 156.64 55.8283C157.347 56.5361 157.746 57.4957 157.747 58.4967V103.369C157.746 104.37 157.347 105.329 156.64 106.037C155.932 106.745 154.972 107.143 153.971 107.144Z" fill="#04A1F7"/>
<path d="M119.301 79.7349C122.685 79.7349 125.428 76.9919 125.428 73.6083C125.428 70.2246 122.685 67.4816 119.301 67.4816C115.918 67.4816 113.175 70.2246 113.175 73.6083C113.175 76.9919 115.918 79.7349 119.301 79.7349Z" fill="#04A1F7"/>
<path d="M143.792 87.1747H114.999C114.515 87.1747 114.051 86.9825 113.709 86.6404C113.367 86.2983 113.175 85.8342 113.175 85.3504C113.175 84.8665 113.367 84.4025 113.709 84.0603C114.051 83.7182 114.515 83.526 114.999 83.526H143.792C144.275 83.526 144.739 83.7182 145.082 84.0603C145.424 84.4025 145.616 84.8665 145.616 85.3504C145.616 85.8342 145.424 86.2983 145.082 86.6404C144.739 86.9825 144.275 87.1747 143.792 87.1747Z" fill="#04A1F7"/>
<path d="M128.893 94.3838H114.999C114.515 94.3838 114.051 94.1916 113.709 93.8494C113.367 93.5073 113.175 93.0432 113.175 92.5593C113.175 92.0755 113.367 91.6114 113.709 91.2692C114.051 90.9271 114.515 90.7349 114.999 90.7349H128.893C129.377 90.7349 129.841 90.9271 130.183 91.2692C130.525 91.6114 130.718 92.0755 130.718 92.5593C130.718 93.0432 130.525 93.5073 130.183 93.8494C129.841 94.1916 129.377 94.3838 128.893 94.3838Z" fill="#04A1F7"/>
<path opacity="0.5" d="M153.971 107.144H104.82C103.819 107.143 102.859 106.745 102.152 106.037C101.444 105.329 101.046 104.37 101.044 103.369V58.4967C101.046 57.4957 101.444 56.5361 102.152 55.8283C102.859 55.1205 103.819 54.7224 104.82 54.7213H153.971C154.972 54.7224 155.932 55.1205 156.64 55.8283C157.347 56.5361 157.746 57.4957 157.747 58.4967V103.369C157.746 104.37 157.347 105.329 156.64 106.037C155.932 106.745 154.972 107.143 153.971 107.144Z" fill="#04A1F7"/>
<path d="M119.301 79.7349C122.685 79.7349 125.428 76.9919 125.428 73.6083C125.428 70.2246 122.685 67.4816 119.301 67.4816C115.918 67.4816 113.175 70.2246 113.175 73.6083C113.175 76.9919 115.918 79.7349 119.301 79.7349Z" fill="white"/>
<path d="M143.792 87.1747H114.999C114.515 87.1747 114.051 86.9825 113.709 86.6404C113.367 86.2983 113.175 85.8342 113.175 85.3504C113.175 84.8665 113.367 84.4025 113.709 84.0603C114.051 83.7182 114.515 83.526 114.999 83.526H143.792C144.275 83.526 144.739 83.7182 145.082 84.0603C145.424 84.4025 145.616 84.8665 145.616 85.3504C145.616 85.8342 145.424 86.2983 145.082 86.6404C144.739 86.9825 144.275 87.1747 143.792 87.1747Z" fill="white"/>
<path d="M128.893 94.3838H114.999C114.515 94.3838 114.051 94.1916 113.709 93.8494C113.367 93.5073 113.175 93.0432 113.175 92.5593C113.175 92.0755 113.367 91.6114 113.709 91.2692C114.051 90.9271 114.515 90.7349 114.999 90.7349H128.893C129.377 90.7349 129.841 90.9271 130.183 91.2692C130.525 91.6114 130.718 92.0755 130.718 92.5593C130.718 93.0432 130.525 93.5073 130.183 93.8494C129.841 94.1916 129.377 94.3838 128.893 94.3838Z" fill="white"/>
<path d="M105.834 64.4031C111.263 64.4031 115.663 60.0024 115.663 54.5739C115.663 49.1453 111.263 44.7446 105.834 44.7446C100.406 44.7446 96.0049 49.1453 96.0049 54.5739C96.0049 60.0024 100.406 64.4031 105.834 64.4031Z" fill="#FF6584"/>
<path d="M132.807 260.443C132.807 260.516 132.793 260.589 132.765 260.656C132.737 260.724 132.696 260.786 132.644 260.837C132.592 260.889 132.531 260.93 132.463 260.958C132.396 260.986 132.323 261 132.25 261H1.05699C0.90927 261 0.767595 260.941 0.663139 260.837C0.558682 260.732 0.5 260.591 0.5 260.443C0.5 260.295 0.558682 260.154 0.663139 260.049C0.767595 259.945 0.90927 259.886 1.05699 259.886H132.25C132.323 259.886 132.396 259.9 132.463 259.928C132.531 259.956 132.592 259.997 132.644 260.049C132.696 260.1 132.737 260.162 132.765 260.23C132.793 260.297 132.807 260.37 132.807 260.443Z" fill="#CCCCCC"/>
<path d="M103.733 80.6096C104.137 81.7394 104.081 82.9827 103.577 84.0715C103.073 85.1603 102.161 86.0074 101.038 86.43C100.789 86.5228 100.533 86.5934 100.272 86.641L97.6764 102.536L91.5869 96.9134L94.9856 82.6812C94.8598 81.4819 95.2111 80.2813 95.9634 79.3389C96.7158 78.3965 97.8088 77.7881 99.0062 77.6451C100.014 77.5297 101.03 77.7602 101.889 78.2989C102.748 78.8376 103.399 79.6524 103.733 80.6096Z" fill="#6C5050"/>
<path d="M58.7925 116.626C58.7925 116.626 63.5187 110.381 80.6691 110.552L90.4038 107.016L92.6285 86.6221L100.415 88.4761L99.3028 113.69L82.6172 123.33L60.7405 127.78L58.7925 116.626Z" fill="#35435E"/>
<path d="M56.2812 103.617C61.903 103.617 66.4604 99.0593 66.4604 93.4376C66.4604 87.8158 61.903 83.2584 56.2812 83.2584C50.6594 83.2584 46.1021 87.8158 46.1021 93.4376C46.1021 99.0593 50.6594 103.617 56.2812 103.617Z" fill="#6C5050"/>
<path d="M39.0531 170.618C39.0351 170.619 39.0171 170.616 38.9997 170.611C38.8118 170.559 38.6633 170.517 39.3415 164.653L40.0735 160.018L39.3589 155.925L38.1569 154.723L40.0887 152.791L41.7098 148.186L38.9048 144.03L35.6867 127.031C35.1334 124.098 35.5633 121.065 36.9098 118.401C38.2562 115.737 40.444 113.591 43.1338 112.298L46.8585 111.209L48.2137 108.724C48.5943 108.026 49.1547 107.443 49.8367 107.034C50.5187 106.626 51.2975 106.407 52.0924 106.401L58.9133 106.35C59.6015 106.345 60.2815 106.5 60.9 106.801C61.5186 107.103 62.0588 107.544 62.4784 108.089L64.858 111.183L74.726 114.535L73.0898 149.79C73.3497 150.007 73.5617 150.276 73.7122 150.58C73.8628 150.884 73.9487 151.215 73.9645 151.554C73.9803 151.892 73.9256 152.23 73.804 152.547C73.6824 152.863 73.4964 153.151 73.2579 153.392C73.1553 153.495 73.0738 153.579 73.0236 153.635C72.8572 153.871 73.1693 155.636 73.5548 157.134L74.049 159.428C73.8904 159.542 73.757 159.687 73.6573 159.854C73.5576 160.022 73.4936 160.208 73.4695 160.401C73.4454 160.595 73.4617 160.791 73.5173 160.978C73.573 161.165 73.6667 161.338 73.7927 161.487L74.4229 162.231C74.5475 163.165 74.2968 164.11 73.7258 164.858C73.1548 165.607 72.3102 166.099 71.377 166.226C62.3587 167.454 39.1003 170.618 39.0531 170.618Z" fill="#35435E"/>
<path d="M53.6775 103.118C53.634 103.023 53.5906 102.926 53.5474 102.83C53.564 102.831 53.5805 102.833 53.5972 102.833L53.6775 103.118Z" fill="#2E3141"/>
<path d="M45.8193 83.7213C46.3026 83.2653 46.9308 82.9937 47.5941 82.9539C48.2523 82.9752 48.9198 83.5697 48.7834 84.214C49.9925 82.0733 51.9169 80.4268 54.2189 79.5636C56.5209 78.7005 59.0534 78.6757 61.3718 79.4936C63.0078 80.0708 64.6121 81.2255 64.9879 82.9191C65.0245 83.3638 65.1571 83.7952 65.3766 84.1836C65.5668 84.3913 65.8136 84.5388 66.0866 84.6079C66.3595 84.6771 66.6468 84.6649 66.9129 84.5728L66.929 84.5681C67.0201 84.537 67.1185 84.5339 67.2113 84.5593C67.3042 84.5847 67.3872 84.6374 67.4498 84.7105C67.5124 84.7836 67.5516 84.8738 67.5624 84.9695C67.5732 85.0651 67.555 85.1618 67.5102 85.247L67.0473 86.1103C67.6308 86.2404 68.2371 86.2275 68.8146 86.0727C68.9105 86.0476 69.0118 86.0527 69.1047 86.0874C69.1976 86.1222 69.2775 86.1848 69.3334 86.2667C69.3893 86.3486 69.4185 86.4458 69.4169 86.545C69.4154 86.6441 69.3832 86.7404 69.3248 86.8205C68.5556 87.873 67.5512 88.7314 66.3918 89.3273C65.2324 89.9233 63.9498 90.2404 62.6462 90.2534C60.7967 90.2422 58.9282 89.6047 57.1282 90.03C56.4319 90.1946 55.7812 90.5129 55.2239 90.9617C54.6667 91.4105 54.217 91.9784 53.9078 92.6237C53.5986 93.269 53.4378 93.9753 53.4372 94.6908C53.4366 95.4063 53.5963 96.1129 53.9044 96.7587C53.3514 96.1539 52.2825 96.297 51.7168 96.8901C51.4563 97.2075 51.2638 97.5751 51.1511 97.9699C51.0385 98.3648 51.008 98.7786 51.0618 99.1857C51.2126 100.433 51.5828 101.643 52.1553 102.761C49.9682 102.694 47.8544 101.957 46.0995 100.65C44.3446 99.3428 43.0331 97.5287 42.3422 95.4525C41.6513 93.3763 41.6143 91.1381 42.2361 89.0401C42.8579 86.9422 44.1086 85.0857 45.8193 83.7213Z" fill="#2E3141"/>
<path d="M43.0184 185.218C42.0452 184.516 41.3868 183.46 41.1852 182.277C40.9836 181.094 41.255 179.879 41.9408 178.895C42.0929 178.677 42.2639 178.474 42.4519 178.287L35.583 163.719L43.7866 164.901L49.0518 178.553C49.8351 179.47 50.2261 180.659 50.1402 181.861C50.0544 183.064 49.4987 184.185 48.5931 184.981C47.8286 185.647 46.8603 186.033 45.8472 186.076C44.8342 186.119 43.8366 185.817 43.0184 185.218Z" fill="#6C5050"/>
<path d="M40.9381 177.263L30.0079 152.698L29.8984 133.296L33.3439 122.816C33.8113 121.394 34.559 120.08 35.5429 118.952C36.5267 117.824 37.7266 116.905 39.0718 116.249C40.417 115.593 41.88 115.213 43.3745 115.131C44.869 115.05 46.3647 115.269 47.773 115.776L47.8489 115.804L47.8807 115.878C48.008 116.175 50.8978 123.323 42.3261 138.027L40.6011 148.089L46.6541 171.152L40.9381 177.263Z" fill="#35435E"/>
</g>
<defs>
<clipPath id="clip0_14_1071">
<rect width="420" height="260.699" fill="white" transform="translate(0.5 0.301453)"/>
</clipPath>
</defs>
</svg>
