<svg width="421" height="208" viewBox="0 0 421 208" fill="none" xmlns="http://www.w3.org/2000/svg">
<g clip-path="url(#clip0_14_1038)">
<path d="M339.892 207.12H51.3988C47.7995 207.12 44.8723 204.193 44.8723 200.594V6.70863C44.8723 3.10933 47.7995 0.182129 51.3988 0.182129H339.892C343.491 0.182129 346.418 3.10933 346.418 6.70863V200.589C346.418 204.188 343.491 207.116 339.892 207.116V207.12Z" fill="white"/>
<path d="M339.892 207.12H51.3988C47.7995 207.12 44.8723 204.193 44.8723 200.594V6.70863C44.8723 3.10933 47.7995 0.182129 51.3988 0.182129H339.892C343.491 0.182129 346.418 3.10933 346.418 6.70863V200.589C346.418 204.188 343.491 207.116 339.892 207.116V207.12ZM51.3988 2.83518C49.2631 2.83518 47.5254 4.57293 47.5254 6.70863V200.589C47.5254 202.725 49.2631 204.463 51.3988 204.463H339.892C342.027 204.463 343.765 202.725 343.765 200.589V6.70863C343.765 4.57293 342.027 2.83518 339.892 2.83518H51.3988Z" fill="#DFDFDF"/>
<path d="M345.091 6.70865V12.0678H46.1987V6.70865C46.1987 3.83451 48.529 1.50867 51.3987 1.50867H339.891C342.766 1.50867 345.091 3.83893 345.091 6.70865Z" fill="#DFDFDF"/>
<path d="M52.5616 8.25181C53.4041 8.25181 54.0871 7.56882 54.0871 6.72631C54.0871 5.8838 53.4041 5.20081 52.5616 5.20081C51.7191 5.20081 51.0361 5.8838 51.0361 6.72631C51.0361 7.56882 51.7191 8.25181 52.5616 8.25181Z" fill="white"/>
<path d="M57.6512 8.25181C58.4937 8.25181 59.1767 7.56882 59.1767 6.72631C59.1767 5.8838 58.4937 5.20081 57.6512 5.20081C56.8087 5.20081 56.1257 5.8838 56.1257 6.72631C56.1257 7.56882 56.8087 8.25181 57.6512 8.25181Z" fill="white"/>
<path d="M62.7406 8.25181C63.5831 8.25181 64.2661 7.56882 64.2661 6.72631C64.2661 5.8838 63.5831 5.20081 62.7406 5.20081C61.8981 5.20081 61.2151 5.8838 61.2151 6.72631C61.2151 7.56882 61.8981 8.25181 62.7406 8.25181Z" fill="white"/>
<path d="M312.136 17.6702H75.8465C73.6682 17.6702 71.9023 19.436 71.9023 21.6144C71.9023 23.7927 73.6682 25.5586 75.8465 25.5586H312.136C314.314 25.5586 316.08 23.7927 316.08 21.6144C316.08 19.436 314.314 17.6702 312.136 17.6702Z" fill="#DFDFDF"/>
<path d="M150.432 111.186H97.8313C94.6565 111.186 92.0742 108.603 92.0742 105.429V60.4595C92.0742 57.2846 94.6565 54.7023 97.8313 54.7023H150.432C153.607 54.7023 156.19 57.2846 156.19 60.4595V105.429C156.19 108.603 153.607 111.186 150.432 111.186ZM97.8313 56.471C95.6337 56.471 93.8429 58.2618 93.8429 60.4595V105.429C93.8429 107.626 95.6337 109.417 97.8313 109.417H150.432C152.63 109.417 154.421 107.626 154.421 105.429V60.4595C154.421 58.2618 152.63 56.471 150.432 56.471H97.8313Z" fill="#DFDFDF"/>
<path d="M221.946 111.186H169.345C166.17 111.186 163.587 108.603 163.587 105.429V60.4595C163.587 57.2846 166.17 54.7023 169.345 54.7023H221.946C225.12 54.7023 227.703 57.2846 227.703 60.4595V105.429C227.703 108.603 225.12 111.186 221.946 111.186ZM169.345 56.471C167.147 56.471 165.356 58.2618 165.356 60.4595V105.429C165.356 107.626 167.147 109.417 169.345 109.417H221.946C224.143 109.417 225.934 107.626 225.934 105.429V60.4595C225.934 58.2618 224.143 56.471 221.946 56.471H169.345Z" fill="#DFDFDF"/>
<path d="M293.459 111.186H240.858C237.683 111.186 235.101 108.603 235.101 105.429V60.4595C235.101 57.2846 237.683 54.7023 240.858 54.7023H293.459C296.634 54.7023 299.216 57.2846 299.216 60.4595V105.429C299.216 108.603 296.634 111.186 293.459 111.186ZM240.858 56.471C238.66 56.471 236.869 58.2618 236.869 60.4595V105.429C236.869 107.626 238.66 109.417 240.858 109.417H293.459C295.656 109.417 297.447 107.626 297.447 105.429V60.4595C297.447 58.2618 295.656 56.471 293.459 56.471H240.858Z" fill="#DFDFDF"/>
<path d="M150.432 181.492H97.8313C94.6565 181.492 92.0742 178.909 92.0742 175.735V130.765C92.0742 127.59 94.6565 125.008 97.8313 125.008H150.432C153.607 125.008 156.19 127.59 156.19 130.765V175.735C156.19 178.909 153.607 181.492 150.432 181.492ZM97.8313 126.777C95.6337 126.777 93.8429 128.568 93.8429 130.765V175.735C93.8429 177.932 95.6337 179.723 97.8313 179.723H150.432C152.63 179.723 154.421 177.932 154.421 175.735V130.765C154.421 128.568 152.63 126.777 150.432 126.777H97.8313Z" fill="#DFDFDF"/>
<path d="M221.946 181.492H169.345C166.17 181.492 163.587 178.909 163.587 175.735V130.765C163.587 127.59 166.17 125.008 169.345 125.008H221.946C225.12 125.008 227.703 127.59 227.703 130.765V175.735C227.703 178.909 225.12 181.492 221.946 181.492ZM169.345 126.777C167.147 126.777 165.356 128.568 165.356 130.765V175.735C165.356 177.932 167.147 179.723 169.345 179.723H221.946C224.143 179.723 225.934 177.932 225.934 175.735V130.765C225.934 128.568 224.143 126.777 221.946 126.777H169.345Z" fill="#DFDFDF"/>
<path d="M293.459 181.492H240.858C237.683 181.492 235.101 178.909 235.101 175.735V130.765C235.101 127.59 237.683 125.008 240.858 125.008H293.459C296.634 125.008 299.216 127.59 299.216 130.765V175.735C299.216 178.909 296.634 181.492 293.459 181.492Z" fill="#04A1F7"/>
<path d="M0.5 207.253C0.5 207.668 0.973127 208 1.56564 208H419.434C420.022 208 420.5 207.668 420.5 207.253C420.5 206.837 420.027 206.505 419.434 206.505H1.56564C0.977549 206.505 0.5 206.837 0.5 207.253Z" fill="#2E3141"/>
<path d="M311.115 39.7259L316.54 35.5031C316.54 35.5031 322.73 37.431 322.89 37.5106C323.049 37.5901 332.498 59.5044 332.498 59.5044C332.498 59.5044 308.293 71.8941 310.062 70.6825C311.831 69.4798 311.464 53.1503 309.819 51.0234C308.17 48.8921 309.576 43.5418 309.576 43.5418L311.101 39.7214H311.11L311.115 39.7259Z" fill="#2E3141"/>
<path d="M326.113 49.5996H318.755V61.273L326.869 58.6067L326.113 49.5996Z" fill="#6C5050"/>
<path d="M302.077 124.88C302.267 123.814 302.192 122.713 301.856 121.67L304.42 110.646L298.95 109.501L296.943 120.808C296.289 121.674 295.864 122.691 295.705 123.761C295.263 126.436 296.337 128.86 298.097 129.165C299.857 129.474 301.639 127.555 302.081 124.88H302.077Z" fill="#6C5050"/>
<path d="M323.818 189.3H316.222V200.076H323.818V189.3Z" fill="#6C5050"/>
<path d="M308.829 206.598C312.163 206.598 317.031 206.249 317.067 206.245C318.371 206.36 324.871 206.872 325.194 205.387C325.49 204.02 325.052 202.592 324.99 202.393C324.362 196.181 324.133 196.105 323.991 196.066C323.77 195.999 323.124 196.309 322.076 196.985L322.01 197.03L321.997 197.105C321.979 197.198 321.515 199.479 319.313 199.134C317.805 198.896 317.314 198.56 317.159 198.396C317.288 198.338 317.447 198.237 317.557 198.064C317.721 197.812 317.748 197.485 317.641 197.092C317.358 196.061 316.509 194.536 316.474 194.469L316.377 194.297L307.746 200.12L302.413 201.646C302.01 201.756 301.688 202.048 301.524 202.433C301.299 202.968 301.436 203.596 301.873 203.985C302.842 204.856 304.77 206.346 306.786 206.532C307.321 206.581 308.033 206.603 308.833 206.603L308.829 206.598Z" fill="#2E3141"/>
<path d="M345.45 180.831L339.004 184.851L344.706 193.994L351.152 189.974L345.45 180.831Z" fill="#6C5050"/>
<path d="M336.885 205.126C337.946 205.126 339.118 204.976 340.104 204.476C342.593 203.225 348.646 198.825 348.682 198.794C349.845 198.206 355.633 195.199 355.12 193.766C354.647 192.449 353.519 191.467 353.364 191.334C349.544 186.391 349.314 186.453 349.173 186.493C348.947 186.555 348.567 187.156 348.032 188.283L348.001 188.354L348.032 188.425C348.067 188.518 348.881 190.698 346.829 191.564C345.423 192.161 344.83 192.139 344.614 192.077C344.693 191.958 344.773 191.79 344.777 191.582C344.786 191.281 344.636 190.985 344.335 190.711C343.548 189.986 342.023 189.141 341.956 189.106L341.784 189.013L337.539 198.524L333.82 202.636C333.537 202.946 333.418 203.362 333.484 203.777C333.577 204.352 334.028 204.808 334.603 204.909C335.187 205.011 336.005 205.121 336.898 205.121L336.885 205.126Z" fill="#2E3141"/>
<path d="M329.412 99.1763C329.412 99.1763 331.875 99.1763 335.735 106.897C339.595 114.621 334.683 145.618 334.683 145.618L348.434 181.204L338.786 187.961L321.174 149.845L325.516 192.064H314.661L306.215 118.964L308.143 99.1807H329.412V99.1763Z" fill="#2E3141"/>
<path d="M331.066 56.7186H316.35L303.081 100.383H339.989L331.066 56.7186Z" fill="#04A1F7"/>
<path d="M318.676 56.7186L303.717 118.72H296.235C296.235 118.72 307.573 61.304 308.541 58.8897C309.505 56.4754 318.671 56.7186 318.671 56.7186H318.676Z" fill="#04A1F7"/>
<path d="M319.764 52.8275C324.228 52.8275 327.847 49.2086 327.847 44.7445C327.847 40.2804 324.228 36.6616 319.764 36.6616C315.3 36.6616 311.681 40.2804 311.681 44.7445C311.681 49.2086 315.3 52.8275 319.764 52.8275Z" fill="#6C5050"/>
<path d="M309.696 43.2721L311.676 43.6081C313.525 36.2061 317.712 38.6248 318.11 38.5408C318.508 38.4568 324.46 44.97 323.978 51.5673C323.496 58.1601 332.021 61.2509 332.021 61.2509C332.021 61.2509 335.001 66.8489 332.344 76.9791C329.686 87.1093 335.32 90.5096 335.32 90.5096C346.418 89.5678 339.746 74.0828 337.977 71.2706C336.208 68.454 337.416 63.5502 337.416 63.5502C340.153 61.136 336.934 55.8299 336.934 55.8299C336.934 55.8299 337.5 48.7506 335.81 47.3843C334.121 46.018 334.042 42.6398 334.042 42.6398C331.061 29.6929 321.334 32.1867 321.334 32.1867C308.869 30.8204 309.7 43.2677 309.7 43.2677L309.696 43.2721Z" fill="#2E3141"/>
<path d="M346.29 123.584C346.087 122.519 345.627 121.515 344.941 120.662L343.42 109.444L337.897 110.319L340.033 121.603C339.737 122.647 339.702 123.744 339.927 124.805C340.462 127.462 342.324 129.341 344.079 129.005C345.835 128.669 346.825 126.242 346.286 123.584H346.29Z" fill="#6C5050"/>
<path d="M338.498 117.991H345.98C345.98 117.991 334.643 60.5744 333.674 58.1601C332.71 55.7458 324.636 56.7717 324.636 56.7717L338.498 117.991Z" fill="#04A1F7"/>
</g>
<defs>
<clipPath id="clip0_14_1038">
<rect width="420" height="207.818" fill="white" transform="translate(0.5 0.182129)"/>
</clipPath>
</defs>
</svg>
