<svg width="421" height="331" viewBox="0 0 421 331" fill="none" xmlns="http://www.w3.org/2000/svg">
<g clip-path="url(#clip0_14_1122)">
<path d="M101.334 179.541C97.9823 161.601 103.26 141.191 117.928 130.332C117.096 150.162 123.306 169.646 135.457 185.338C140.166 191.373 146.031 197.594 145.849 205.246C145.735 210.008 143.16 214.443 139.767 217.785C136.374 221.127 132.193 223.536 128.063 225.908L127.42 226.908C115.313 213.251 104.686 197.481 101.334 179.541Z" fill="#F0F0F0"/>
<path d="M118.195 130.606C112.032 144.398 110.372 159.782 113.45 174.571C114.056 177.766 115.162 180.847 116.728 183.698C118.342 186.426 120.658 188.672 123.434 190.202C125.993 191.681 128.783 192.898 130.939 194.974C132.026 196.052 132.874 197.349 133.425 198.778C133.977 200.207 134.22 201.737 134.138 203.267C134.035 207.084 132.567 210.636 131.01 214.06C129.281 217.862 127.425 221.783 127.538 226.057C127.551 226.575 126.747 226.566 126.733 226.049C126.538 218.612 131.914 212.64 133.112 205.505C133.671 202.176 133.23 198.658 130.889 196.077C128.842 193.82 125.967 192.563 123.362 191.088C120.632 189.634 118.299 187.535 116.568 184.972C114.863 182.21 113.64 179.177 112.952 176.005C111.289 168.887 110.756 161.552 111.371 154.269C112.028 145.953 114.102 137.81 117.505 130.193C117.715 129.722 118.404 130.138 118.195 130.606Z" fill="white"/>
<path d="M112.179 169.867C109.627 170.047 107.095 169.314 105.034 167.798C102.974 166.283 101.519 164.085 100.929 161.596C100.811 161.092 101.589 160.886 101.707 161.391C102.252 163.709 103.607 165.757 105.529 167.164C107.451 168.571 109.812 169.244 112.187 169.063C112.703 169.024 112.692 169.829 112.179 169.867Z" fill="white"/>
<path d="M122.037 189.623C125.501 185.707 127.361 180.628 127.247 175.401C127.235 174.883 128.039 174.892 128.051 175.41C128.16 180.849 126.213 186.13 122.6 190.198C122.255 190.586 121.694 190.009 122.037 189.623Z" fill="white"/>
<path d="M112.97 146.452C113.972 146.588 114.992 146.474 115.938 146.118C116.885 145.763 117.728 145.178 118.393 144.417C118.732 144.025 119.293 144.602 118.955 144.991C118.217 145.829 117.285 146.474 116.24 146.869C115.196 147.264 114.07 147.397 112.962 147.257C112.856 147.252 112.756 147.208 112.683 147.132C112.609 147.057 112.566 146.956 112.564 146.85C112.566 146.744 112.609 146.642 112.685 146.568C112.761 146.493 112.864 146.452 112.97 146.452Z" fill="white"/>
<path d="M177.912 145.171C177.706 145.422 177.501 145.672 177.298 145.93C174.558 149.313 172.098 152.913 169.941 156.695C169.77 156.985 169.6 157.281 169.438 157.575C164.339 166.742 160.986 176.776 159.55 187.166C158.982 191.301 158.73 195.474 158.796 199.647C158.886 205.411 159.443 211.653 157.676 216.954C157.498 217.509 157.286 218.053 157.04 218.582L128.69 227.614C128.615 227.603 128.542 227.597 128.467 227.586L127.352 227.998C127.333 227.783 127.319 227.56 127.3 227.345C127.289 227.22 127.284 227.093 127.273 226.969C127.267 226.885 127.262 226.801 127.253 226.726C127.251 226.698 127.249 226.67 127.249 226.648C127.239 226.573 127.238 226.502 127.231 226.433C127.146 225.185 127.068 223.934 127.004 222.68C127.002 222.673 127.002 222.673 127.006 222.665C126.519 213.108 126.826 203.428 128.593 194.101C128.646 193.821 128.697 193.534 128.763 193.249C129.583 189.049 130.744 184.924 132.236 180.913C133.06 178.72 133.994 176.57 135.035 174.471C137.736 169.053 141.273 164.094 145.515 159.775C153.973 151.167 165.089 145.359 177.001 145.176C177.306 145.172 177.605 145.169 177.912 145.171Z" fill="#F0F0F0"/>
<path d="M177.963 145.551C164.739 152.853 154.151 164.136 147.705 177.798C146.265 180.714 145.293 183.84 144.827 187.058C144.473 190.209 144.97 193.396 146.265 196.29C147.418 199.012 148.913 201.663 149.385 204.618C149.604 206.134 149.499 207.679 149.079 209.152C148.659 210.625 147.932 211.993 146.946 213.166C144.566 216.151 141.254 218.103 137.95 219.9C134.281 221.894 130.438 223.908 127.955 227.388C127.654 227.81 127.017 227.318 127.317 226.897C131.639 220.842 139.527 219.311 144.779 214.335C147.23 212.013 148.996 208.939 148.681 205.469C148.405 202.434 146.866 199.7 145.675 196.953C144.37 194.149 143.772 191.068 143.932 187.98C144.233 184.748 145.083 181.59 146.444 178.643C149.401 171.959 153.391 165.781 158.268 160.336C163.799 154.092 170.358 148.839 177.66 144.806C178.113 144.556 178.412 145.304 177.963 145.551Z" fill="white"/>
<path d="M149.521 173.277C147.376 171.884 145.796 169.774 145.062 167.324C144.329 164.873 144.491 162.242 145.519 159.9C145.728 159.427 146.473 159.73 146.264 160.204C145.302 162.383 145.152 164.834 145.84 167.115C146.527 169.395 148.007 171.355 150.012 172.64C150.448 172.919 149.954 173.555 149.521 173.277Z" fill="white"/>
<path d="M145.498 194.986C150.622 193.944 155.164 191.01 158.22 186.767C158.523 186.346 159.159 186.838 158.857 187.258C155.669 191.667 150.936 194.711 145.601 195.784C145.093 195.886 144.992 195.088 145.498 194.986Z" fill="white"/>
<path d="M164.251 155.058C164.969 155.77 165.852 156.292 166.822 156.578C167.791 156.864 168.817 156.905 169.806 156.697C170.313 156.589 170.413 157.387 169.909 157.495C168.815 157.72 167.683 157.673 166.611 157.359C165.539 157.046 164.56 156.474 163.76 155.695C163.678 155.628 163.625 155.532 163.612 155.427C163.598 155.323 163.625 155.217 163.687 155.131C163.752 155.047 163.848 154.992 163.954 154.978C164.059 154.965 164.166 154.993 164.251 155.058Z" fill="white"/>
<path d="M222.445 47.0686C222.54 47.4862 222.602 47.9105 222.63 48.3378L255.87 67.514L263.95 62.8628L272.563 74.1387L259.06 83.7629C257.969 84.5404 256.655 84.943 255.316 84.9104C253.977 84.8778 252.685 84.4116 251.633 83.5819L217.356 56.541C215.81 57.1136 214.125 57.2017 212.527 56.7935C210.929 56.3854 209.493 55.5003 208.41 54.2561C207.327 53.0119 206.648 51.4675 206.465 49.8283C206.281 48.1891 206.601 46.5328 207.381 45.0797C208.162 43.6266 209.366 42.4456 210.834 41.6937C212.302 40.9419 213.965 40.6548 215.6 40.8707C217.235 41.0867 218.766 41.7953 219.989 42.9025C221.211 44.0096 222.068 45.4628 222.445 47.0686Z" fill="#6C5050"/>
<path d="M256.331 65.3967C256.437 64.9076 256.646 64.4469 256.946 64.0462C257.246 63.6455 257.628 63.3142 258.068 63.0749L273.414 54.7133C275.458 53.1708 278.03 52.5018 280.566 52.8529C283.102 53.2041 285.396 54.5466 286.944 56.5863C288.491 58.6259 289.167 61.1961 288.822 63.7332C288.478 66.2704 287.141 68.5673 285.106 70.1204L272.806 82.6155C272.455 82.9721 272.031 83.2488 271.564 83.4269C271.096 83.6049 270.595 83.68 270.096 83.6472C269.597 83.6144 269.11 83.4743 268.67 83.2365C268.23 82.9988 267.846 82.6689 267.545 82.2694L256.955 68.2288C256.653 67.8294 256.441 67.3696 256.334 66.8808C256.226 66.3921 256.225 65.8859 256.331 65.3967Z" fill="#35435E"/>
<path d="M283.749 16.7856C285.957 9.74863 290.978 3.29459 297.922 0.915713C304.866 -1.46316 315.035 2.16064 320.256 7.36373C329.806 16.8812 332.136 49.5773 325.575 59.9096C324.27 59.8405 319.767 59.7895 318.446 59.74L316.578 53.5124V59.6786C306.268 59.36 295.535 59.5595 284.796 59.7658C283.833 52.4504 281.54 23.8225 283.749 16.7856Z" fill="#2E3141"/>
<path d="M280.794 312.16H271.391L266.917 275.89L280.796 275.891L280.794 312.16Z" fill="#6C5050"/>
<path d="M363.11 306.313L354.011 308.684L340.533 274.716L353.963 271.216L363.11 306.313Z" fill="#6C5050"/>
<path d="M311.29 89.3957L313.421 94.9353L312.995 100.475L271.296 114.918L273.365 90.674L278.052 85.1337L311.29 89.3957Z" fill="#6C5050"/>
<path d="M298.106 39.544C306.331 39.544 312.999 32.876 312.999 24.6507C312.999 16.4253 306.331 9.75739 298.106 9.75739C289.88 9.75739 283.212 16.4253 283.212 24.6507C283.212 32.876 289.88 39.544 298.106 39.544Z" fill="#6C5050"/>
<path d="M287.872 5.25697C290.734 3.5124 294.011 2.56869 297.363 2.52451C300.714 2.48033 304.015 3.3373 306.922 5.00582C309.829 6.67435 312.234 9.09314 313.886 12.0093C315.538 14.9254 316.376 18.2318 316.312 21.5827C308.194 23.6577 299.543 24.5256 290.375 22.0825L288.279 16.9534L287.043 22.0863C284.239 24.0592 281.532 24.0557 278.922 22.0756C278.811 18.7341 279.58 15.4222 281.15 12.4707C282.721 9.51932 285.039 7.03185 287.872 5.25697Z" fill="#2E3141"/>
<path d="M285 330.015H278.328L277.137 323.715L274.087 330.015H256.39C255.542 330.015 254.716 329.744 254.032 329.241C253.349 328.738 252.844 328.03 252.592 327.221C252.339 326.411 252.352 325.541 252.629 324.739C252.906 323.938 253.431 323.245 254.129 322.763L268.262 313.003V306.634L283.126 307.521L285 330.015Z" fill="#2E3141"/>
<path d="M372.508 322.314L366.051 323.997L363.31 318.202L361.947 325.067L344.823 329.531C344.002 329.745 343.134 329.691 342.346 329.377C341.558 329.063 340.891 328.505 340.442 327.785C339.994 327.065 339.787 326.221 339.853 325.375C339.918 324.529 340.252 323.726 340.806 323.084L352.019 310.075L350.413 303.912L365.021 301.021L372.508 322.314Z" fill="#2E3141"/>
<path d="M361.956 283.504L334.393 226.854L325.74 157.903C331.706 146.824 320.627 124.28 320.627 124.28V114.814L277.708 122.911C268.93 146.854 264.673 172.218 265.154 197.714L266.884 289.368H266.341C265.441 289.368 264.578 289.726 263.941 290.363C263.304 290.999 262.947 291.862 262.947 292.763C262.947 293.663 263.304 294.526 263.941 295.163C264.578 295.799 265.441 296.157 266.341 296.157H283.313C284.213 296.157 285.076 295.799 285.713 295.163C286.35 294.526 286.707 293.663 286.707 292.763C286.707 291.862 286.35 290.999 285.713 290.363C285.076 289.726 284.213 289.368 283.313 289.368H282.875L295.059 172.768L309.226 230.307L343.461 283.286C342.587 283.354 341.775 283.758 341.193 284.413C340.611 285.067 340.306 285.922 340.341 286.797C340.376 287.673 340.749 288.5 341.381 289.106C342.014 289.712 342.856 290.049 343.732 290.047H360.704C361.493 290.048 362.258 289.773 362.867 289.271C363.476 288.768 363.89 288.069 364.038 287.293C364.186 286.518 364.059 285.715 363.679 285.024C363.299 284.332 362.69 283.794 361.956 283.504Z" fill="#2E3141"/>
<path d="M324.507 130.083C324.366 129.529 324.053 129.034 323.613 128.669C323.174 128.304 322.63 128.087 322.059 128.05C321.494 121.582 317.756 80.1021 317.614 78.8852L317.608 78.8338L316.526 55.713C316.486 54.8733 316.139 54.0775 315.55 53.4776C314.961 52.8778 314.172 52.5158 313.333 52.461L307.617 52.0873C307.538 52.0847 307.464 52.0517 307.409 51.9953C307.355 51.9389 307.324 51.8635 307.324 51.785C307.324 51.1537 307.2 50.5286 306.958 49.9453C306.717 49.3621 306.363 48.8321 305.916 48.3857C305.47 47.9393 304.94 47.5852 304.357 47.3436C303.773 47.102 303.148 46.9777 302.517 46.9777H285.592C284.496 46.9781 283.437 47.3787 282.615 48.1041C281.794 48.8295 281.265 49.83 281.128 50.9177C281.121 50.9926 281.085 51.0619 281.029 51.1117C280.972 51.1616 280.899 51.1883 280.824 51.1866L280.822 51.1866C278.899 51.147 277.025 51.7981 275.541 53.0218C274.057 54.2454 273.06 55.9606 272.733 57.856C270.419 71.3187 265.782 101.874 268.074 118.861C268.873 124.774 268.51 133.668 268.208 138.616C268.178 139.094 268.243 139.573 268.398 140.026C268.554 140.479 268.797 140.897 269.115 141.256C268.44 141.451 267.867 141.9 267.516 142.509C267.166 143.118 267.066 143.839 267.237 144.52C267.413 145.218 267.859 145.818 268.477 146.187C269.096 146.557 269.835 146.665 270.534 146.489L322.537 133.38C323.236 133.204 323.836 132.758 324.205 132.139C324.574 131.521 324.683 130.781 324.507 130.083Z" fill="#35435E"/>
<path d="M238.558 227.286C238.549 225.767 238.001 224.301 237.014 223.148C236.027 221.995 234.663 221.228 233.164 220.985L140.964 205.844C140.08 205.698 139.175 205.738 138.307 205.962L116.699 211.549L104.302 214.759L81.4219 220.673C80.0407 221.032 78.8176 221.839 77.9444 222.968C77.0713 224.096 76.5973 225.483 76.5969 226.91V323.523C76.6038 324.996 77.1127 326.422 78.0397 327.567C78.9667 328.711 80.2563 329.505 81.6956 329.818L175.608 328.755C176.049 328.85 176.499 328.896 176.95 328.894C177.607 328.896 178.26 328.796 178.887 328.599L234.683 329.988C236 329.577 237.149 328.752 237.96 327.636C238.771 326.521 239.201 325.173 239.186 323.794L238.558 227.286Z" fill="white"/>
<path d="M238.558 227.286C238.549 225.767 238.001 224.301 237.014 223.148C236.027 221.995 234.663 221.228 233.164 220.985L140.964 205.844C140.08 205.698 139.175 205.738 138.307 205.962L116.699 211.549L104.302 214.759L81.4219 220.673C80.0407 221.032 78.8176 221.839 77.9444 222.968C77.0713 224.096 76.5973 225.483 76.5969 226.91V323.523C76.6038 324.996 77.1127 326.422 78.0397 327.567C78.9667 328.711 80.2563 329.505 81.6956 329.818L175.608 328.755C176.049 328.85 176.499 328.896 176.95 328.894C177.607 328.896 178.26 328.796 178.887 328.599L234.683 329.988C236 329.577 237.149 328.752 237.96 327.636C238.771 326.521 239.201 325.173 239.186 323.794L238.558 227.286ZM234.2 328.452L178.404 329.78C177.608 330.028 176.762 330.068 175.946 329.898L82.0284 328.246C80.9493 328.01 79.9826 327.414 79.2879 326.556C78.5932 325.697 78.2119 324.627 78.207 323.523V226.91C78.2077 225.921 78.5117 224.956 79.0779 224.145C79.6441 223.334 80.4454 222.716 81.3736 222.375C81.521 222.319 81.6715 222.273 81.8244 222.235L106.03 215.977L120.344 212.274L138.71 207.524C139.104 207.419 139.51 207.367 139.917 207.368C140.18 207.368 140.442 207.39 140.701 207.433L232.901 222.573C233.643 222.695 234.347 222.988 234.956 223.428C235.565 223.869 236.063 224.445 236.411 225.112C236.76 225.788 236.944 226.536 236.948 227.296L237.576 323.805C237.588 324.839 237.266 325.85 236.657 326.687C236.049 327.525 235.188 328.144 234.2 328.452Z" fill="#CCCCCC"/>
<path d="M236.411 225.112C236.349 225.153 236.28 225.184 236.208 225.203L209.088 232.534L200.645 234.815L176.633 241.304C176.565 241.321 176.495 241.33 176.424 241.331C176.376 241.33 176.327 241.327 176.279 241.32L79.4577 223.668L79.1357 223.609C78.9259 223.57 78.7403 223.449 78.6194 223.273C78.4985 223.097 78.4521 222.881 78.4904 222.671C78.5287 222.461 78.6486 222.274 78.8238 222.153C78.999 222.031 79.2154 221.983 79.4255 222.02L81.3738 222.375L176.392 239.699L197.087 234.107L208.664 230.978L235.365 223.759L235.789 223.647C235.972 223.598 236.167 223.616 236.338 223.696C236.51 223.777 236.648 223.915 236.728 224.087C236.749 224.128 236.765 224.171 236.776 224.216C236.821 224.384 236.809 224.563 236.743 224.724C236.677 224.886 236.561 225.022 236.411 225.112Z" fill="#CCCCCC"/>
<path d="M177.229 329.082C176.787 329.082 176.428 328.727 176.424 331L175.619 243.249C175.614 240.089 175.972 239.725 176.416 239.721H176.424C176.865 239.721 177.225 240.076 177.229 243.234L178.034 330.985C178.038 328.714 177.681 329.078 177.236 329.082H177.229Z" fill="#CCCCCC"/>
<path d="M209.316 330.101L200.645 330.192L197.087 234.107L106.293 216.042C106.204 216.026 106.116 216.004 106.03 215.977C105.333 215.779 104.723 215.349 104.302 214.759L116.7 211.549L120.344 212.274L206.496 229.411C206.949 229.5 207.377 229.687 207.751 229.957C208.125 230.228 208.437 230.576 208.664 230.978C208.932 231.445 209.311 329.542 209.316 330.101Z" fill="#CCCCCC"/>
<path d="M278.766 51.4173C278.759 50.2731 278.347 49.1684 277.603 48.2991C276.858 47.4299 275.831 46.8522 274.701 46.6686L205.214 35.258C204.548 35.1477 203.866 35.178 203.212 35.347L186.927 39.5577L177.583 41.9765L160.34 46.434C159.299 46.7044 158.377 47.3125 157.719 48.1631C157.061 49.0137 156.704 50.0587 156.704 51.1342V108.086C156.709 109.196 157.092 110.271 157.791 111.134C158.49 111.997 159.462 112.595 160.546 112.831L231.324 127.89C231.656 127.961 231.995 127.997 232.335 127.995C232.83 127.996 233.323 127.921 233.795 127.773L275.846 114.493C276.838 114.184 277.704 113.562 278.316 112.721C278.927 111.881 279.251 110.865 279.239 109.826L278.766 51.4173Z" fill="white"/>
<path d="M204.427 39.4403C204.376 39.4402 204.326 39.4468 204.277 39.4597L161.405 50.5468C161.275 50.5804 161.16 50.6563 161.077 50.7625C160.995 50.8687 160.951 50.9991 160.951 51.1334V108.085C160.951 108.223 160.999 108.358 161.086 108.465C161.173 108.573 161.295 108.648 161.43 108.677L232.208 123.736C232.31 123.758 232.417 123.753 232.517 123.721L274.568 110.442C274.692 110.404 274.8 110.326 274.876 110.221C274.953 110.116 274.993 109.989 274.991 109.859L274.52 51.4513C274.519 51.3084 274.467 51.1705 274.374 51.062C274.281 50.9535 274.153 50.8814 274.012 50.8584L204.525 39.4482C204.493 39.443 204.46 39.4404 204.427 39.4403Z" fill="#04A1F7"/>
<path d="M278.766 51.4173C278.759 50.2731 278.347 49.1684 277.603 48.2991C276.858 47.4299 275.831 46.8522 274.701 46.6686L205.214 35.258C204.548 35.1477 203.866 35.178 203.212 35.347L186.927 39.5577L177.583 41.9765L160.34 46.434C159.299 46.7044 158.377 47.3125 157.719 48.1631C157.061 49.0137 156.704 50.0587 156.704 51.1342V108.086C156.709 109.196 157.092 110.271 157.791 111.134C158.49 111.997 159.462 112.595 160.546 112.831L231.324 127.89C231.656 127.961 231.995 127.997 232.335 127.995C232.83 127.996 233.323 127.921 233.795 127.773L275.846 114.493C276.838 114.184 277.704 113.562 278.316 112.721C278.927 111.881 279.251 110.865 279.239 109.826L278.766 51.4173ZM275.482 113.336L233.431 126.616C232.831 126.803 232.194 126.833 231.579 126.705L160.797 111.646C159.984 111.468 159.255 111.019 158.732 110.372C158.208 109.725 157.921 108.919 157.917 108.086V51.1342C157.918 50.3888 158.147 49.6615 158.573 49.0504C159 48.4392 159.604 47.9736 160.304 47.7162C160.415 47.6746 160.528 47.6394 160.643 47.6111L178.886 42.8948L189.674 40.1038L203.515 36.5241C203.812 36.4449 204.118 36.4054 204.425 36.4068C204.623 36.4067 204.821 36.4229 205.016 36.4553L274.503 47.866C275.062 47.9577 275.592 48.1783 276.051 48.5104C276.51 48.8425 276.886 49.2769 277.148 49.7792C277.411 50.2885 277.549 50.8525 277.553 51.4254L278.026 109.834C278.035 110.613 277.792 111.375 277.334 112.006C276.875 112.637 276.226 113.104 275.482 113.336Z" fill="#35435E"/>
<path d="M277.148 49.7792C277.101 49.8102 277.049 49.8335 276.995 49.848L256.556 55.3733L250.193 57.0924L232.096 61.9826C232.045 61.9953 231.992 62.0021 231.939 62.0029C231.902 62.0022 231.866 61.9995 231.829 61.9948L158.86 48.6911L158.617 48.6466C158.459 48.6171 158.319 48.526 158.227 48.3934C158.136 48.2609 158.101 48.0976 158.13 47.9393C158.159 47.7809 158.249 47.6405 158.381 47.5487C158.514 47.4569 158.677 47.4212 158.835 47.4494L160.304 47.7163L231.914 60.7732L247.511 56.5584L256.236 54.2002L276.359 48.7599L276.679 48.675C276.817 48.6385 276.964 48.6518 277.093 48.7124C277.222 48.773 277.326 48.8771 277.387 49.0066C277.403 49.0375 277.415 49.0701 277.423 49.1037C277.457 49.2309 277.448 49.3655 277.398 49.4872C277.349 49.609 277.261 49.7115 277.148 49.7792Z" fill="#35435E"/>
<path d="M232.545 128.137C232.385 128.137 232.232 128.074 232.118 127.961C232.004 127.848 231.94 127.696 231.938 127.536L231.332 61.4016C231.33 61.2407 231.393 61.0859 231.505 60.971C231.618 60.8562 231.772 60.7909 231.933 60.7894H231.938C232.098 60.7894 232.252 60.8525 232.365 60.9651C232.479 61.0777 232.544 61.2306 232.545 61.3906L233.152 127.525C233.153 127.685 233.091 127.84 232.978 127.955C232.865 128.07 232.711 128.135 232.551 128.137H232.545Z" fill="#35435E"/>
<path d="M256.555 120.092L250.193 121.811L247.511 56.5584L179.084 42.9433C179.017 42.9315 178.95 42.9153 178.886 42.8948C178.36 42.7451 177.901 42.4214 177.583 41.9766L186.927 39.5578L189.673 40.1039L254.602 53.0192C254.943 53.0866 255.266 53.2271 255.548 53.4309C255.83 53.6348 256.065 53.8972 256.236 54.2003C256.438 54.5522 256.551 119.671 256.555 120.092Z" fill="#35435E"/>
<path d="M253.705 82.8874C254.031 83.1657 254.333 83.4693 254.611 83.7952L292.727 79.3437L296.434 70.7897L310.075 74.6968L304.984 90.4778C304.573 91.7527 303.759 92.8598 302.665 93.6328C301.571 94.4059 300.256 94.8032 298.917 94.7652L255.276 93.5245C254.376 94.9072 253.077 95.9832 251.551 96.6096C250.025 97.2359 248.345 97.3828 246.733 97.0307C245.122 96.6787 243.656 95.8444 242.53 94.6387C241.404 93.4331 240.672 91.9134 240.431 90.2816C240.19 88.6498 240.452 86.9834 241.181 85.5039C241.911 84.0244 243.073 82.802 244.514 81.9993C245.955 81.1966 247.606 80.8517 249.248 81.0103C250.89 81.1689 252.445 81.8237 253.705 82.8874Z" fill="#6C5050"/>
<path d="M291.834 77.3695C291.627 76.914 291.52 76.4193 291.521 75.9189C291.523 75.4185 291.632 74.9243 291.842 74.47L299.165 58.6019C299.885 56.1448 301.549 54.0732 303.794 52.8415C306.038 51.6097 308.679 51.3183 311.139 52.0311C313.598 52.7439 315.674 54.4028 316.911 56.644C318.149 58.8852 318.448 61.5257 317.741 63.9867L315.33 81.3532C315.261 81.8488 315.086 82.3238 314.817 82.7457C314.548 83.1677 314.191 83.5267 313.771 83.7983C313.351 84.07 312.877 84.2478 312.382 84.3198C311.886 84.3918 311.382 84.3563 310.901 84.2156L294.025 79.2697C293.544 79.1292 293.1 78.8867 292.722 78.5588C292.344 78.2308 292.041 77.8251 291.834 77.3695Z" fill="#35435E"/>
<path d="M419.692 330.807H1.30841C1.09444 330.807 0.889435 330.721 0.738351 330.57C0.587267 330.418 0.502441 330.213 0.502441 329.999C0.502441 329.785 0.587267 329.58 0.738351 329.428C0.889435 329.277 1.09444 329.191 1.30841 329.191H419.692C419.906 329.191 420.112 329.276 420.263 329.427C420.415 329.579 420.5 329.785 420.5 329.999C420.5 330.213 420.415 330.419 420.263 330.571C420.112 330.722 419.906 330.807 419.692 330.807Z" fill="#CACACA"/>
<path d="M82.0408 244.918C95.4674 244.918 106.352 234.034 106.352 220.607C106.352 207.181 95.4674 196.296 82.0408 196.296C68.6142 196.296 57.7297 207.181 57.7297 220.607C57.7297 234.034 68.6142 244.918 82.0408 244.918Z" fill="#04A1F7"/>
<path d="M78.7243 233.26C78.3045 233.26 77.8905 233.162 77.515 232.975C77.1395 232.787 76.813 232.514 76.5612 232.178L69.9287 223.335C69.4984 222.761 69.3137 222.04 69.4151 221.33C69.5166 220.62 69.8959 219.979 70.4697 219.549C71.0435 219.119 71.7647 218.934 72.4747 219.035C73.1847 219.137 73.8253 219.516 74.2556 220.09L78.5947 225.875L89.7393 209.158C89.9357 208.862 90.1888 208.607 90.484 208.408C90.7792 208.209 91.1108 208.071 91.4596 208.001C91.8084 207.93 92.1677 207.929 92.5168 207.998C92.8659 208.067 93.1981 208.204 93.4942 208.401C93.7902 208.599 94.0444 208.853 94.2422 209.149C94.44 209.444 94.5774 209.776 94.6467 210.125C94.7159 210.474 94.7156 210.834 94.6457 211.183C94.5759 211.532 94.4378 211.863 94.2395 212.159L80.9747 232.056C80.7347 232.416 80.412 232.713 80.0335 232.922C79.6551 233.132 79.2319 233.247 78.7996 233.259C78.7745 233.26 78.7494 233.26 78.7243 233.26Z" fill="white"/>
<path d="M185.556 91.4781C185.481 91.478 185.405 91.4696 185.332 91.4529L164.287 86.7008C164.023 86.6411 163.795 86.4793 163.651 86.2511C163.507 86.0229 163.459 85.7468 163.519 85.4836C163.578 85.2203 163.739 84.9914 163.967 84.8471C164.196 84.7028 164.471 84.6549 164.735 84.7139L185.78 89.466C186.024 89.5212 186.24 89.6645 186.385 89.8685C186.53 90.0726 186.595 90.323 186.568 90.5719C186.54 90.8209 186.422 91.0509 186.235 91.2181C186.048 91.3853 185.807 91.4778 185.556 91.4781Z" fill="white"/>
<path d="M104.563 282.74C104.489 282.755 104.413 282.762 104.338 282.761L82.766 282.398C82.4963 282.393 82.2396 282.281 82.0523 282.087C81.865 281.893 81.7623 281.632 81.7667 281.363C81.7712 281.093 81.8825 280.836 82.0762 280.648C82.2699 280.461 82.5301 280.358 82.7998 280.361L104.372 280.725C104.622 280.729 104.862 280.825 105.046 280.995C105.23 281.166 105.345 281.397 105.368 281.647C105.392 281.896 105.323 282.146 105.174 282.347C105.026 282.549 104.808 282.689 104.563 282.74Z" fill="#E6E6E6"/>
<path d="M112.03 294.281C111.956 294.296 111.881 294.303 111.805 294.302L90.2333 293.939C89.9636 293.934 89.7069 293.822 89.5196 293.628C89.3322 293.434 89.2295 293.173 89.234 292.904C89.2385 292.634 89.3498 292.377 89.5435 292.189C89.7372 292.001 89.9974 291.898 90.2671 291.902L111.839 292.265C112.089 292.27 112.329 292.366 112.513 292.536C112.697 292.706 112.812 292.938 112.836 293.188C112.859 293.437 112.79 293.686 112.642 293.888C112.493 294.09 112.275 294.229 112.03 294.281Z" fill="#E6E6E6"/>
</g>
<defs>
<clipPath id="clip0_14_1122">
<rect width="420" height="330.83" fill="white" transform="translate(0.5 0.1698)"/>
</clipPath>
</defs>
</svg>
