<svg width="421" height="301" viewBox="0 0 421 301" fill="none" xmlns="http://www.w3.org/2000/svg">
<g clip-path="url(#clip0_14_1168)">
<path d="M408.083 88.4145H178.253C175.018 88.4174 171.916 89.7039 169.629 91.9915C167.341 94.279 166.055 97.3808 166.052 100.616V137.863C166.055 141.098 167.341 144.199 169.629 146.487C171.916 148.775 175.018 150.061 178.253 150.064H408.083C411.318 150.061 414.42 148.775 416.707 146.487C418.995 144.199 420.281 141.098 420.284 137.863V100.616C420.281 97.3808 418.995 94.279 416.707 91.9915C414.419 89.7039 411.318 88.4174 408.083 88.4145Z" fill="#F2F2F2"/>
<path d="M92.6677 301H1.23149C1.03749 301 0.851418 300.923 0.714237 300.786C0.577056 300.649 0.5 300.463 0.5 300.269C0.5 300.075 0.577056 299.889 0.714237 299.751C0.851418 299.614 1.03749 299.537 1.23149 299.537H92.6677C92.8617 299.537 93.0478 299.614 93.1849 299.751C93.3221 299.889 93.3992 300.075 93.3992 300.269C93.3992 300.463 93.3221 300.649 93.1849 300.786C93.0478 300.923 92.8617 301 92.6677 301Z" fill="#35435E"/>
<path d="M79.2423 71.9661C78.3944 72.5013 77.6741 73.216 77.1322 74.0597C76.5903 74.9035 76.24 75.8557 76.1059 76.8495C75.9719 77.8433 76.0574 78.8543 76.3563 79.8115C76.6553 80.7686 77.1605 81.6486 77.8364 82.3894L71.189 96.5844L78.83 102.728L87.9358 82.55C89.1051 81.3321 89.7869 79.7277 89.8523 78.0407C89.9176 76.3536 89.3618 74.7012 88.2902 73.3966C87.2186 72.092 85.7057 71.2258 84.0381 70.9621C82.3705 70.6985 80.6641 71.0557 79.2423 71.9661Z" fill="#6C5050"/>
<path d="M41.0426 77.7265C43.1464 76.4629 45.6558 76.0574 48.0505 76.5942C50.4452 77.131 52.5414 78.569 53.9043 80.6098L67.5062 100.976L72.2283 90.566C72.5232 89.9159 73.0455 89.3961 73.6969 89.1043C74.3484 88.8126 75.084 88.769 75.7654 88.9818L82.8925 91.2082C83.2648 91.3245 83.6102 91.5141 83.9082 91.7658C84.2062 92.0175 84.4509 92.3263 84.6278 92.6739C84.8047 93.0216 84.9103 93.4011 84.9384 93.7902C84.9665 94.1793 84.9166 94.5701 84.7914 94.9396L79.9127 109.346C79.2955 111.168 78.2644 112.823 76.9002 114.179C75.5361 115.536 73.876 116.558 72.0504 117.165C70.2247 117.773 68.2831 117.949 66.3781 117.679C64.4731 117.41 62.6564 116.702 61.0706 115.613C60.3297 115.104 59.646 114.516 59.0317 113.859L38.987 92.4417C38.0137 91.4017 37.2852 90.1571 36.8551 88.7991C36.4249 87.4411 36.304 86.0041 36.501 84.5933C36.6981 83.1825 37.2082 81.8337 37.994 80.6455C38.7798 79.4574 39.8215 78.46 41.0426 77.7265Z" fill="#CCCCCC"/>
<path d="M85.0439 56.6829C85.409 56.692 85.7555 56.8457 86.0073 57.1103C86.259 57.3748 86.3954 57.7286 86.3863 58.0937L86.2689 62.821L86.5059 62.8426L86.4208 66.0534L86.1893 66.0245L85.7686 82.9603C85.7542 83.5399 85.5294 84.0946 85.1362 84.5206C84.7429 84.9467 84.2081 85.2151 83.6314 85.2759L72.8625 86.4096C72.6004 86.4372 72.3353 86.4071 72.086 86.3214C71.8366 86.2358 71.6091 86.0966 71.4192 85.9137C71.2293 85.7308 71.0818 85.5085 70.9869 85.2626C70.892 85.0166 70.852 84.7528 70.8699 84.4898L72.5031 60.3745C72.5374 59.868 72.743 59.3882 73.0862 59.014C73.4293 58.6399 73.8895 58.3936 74.3912 58.3156L84.787 56.7006C84.8719 56.6867 84.9579 56.6808 85.0439 56.6829Z" fill="#35435E"/>
<path d="M76.7099 59.1928L82.1751 58.3438C82.2734 58.3285 82.364 58.2812 82.4328 58.2092C82.5016 58.1373 82.5448 58.0446 82.5556 57.9457C82.5678 57.8336 82.6167 57.7287 82.6946 57.6471C82.7725 57.5656 82.8751 57.5121 82.9865 57.4948L84.1377 57.3159C84.2948 57.2915 84.4553 57.3019 84.608 57.3463C84.7606 57.3907 84.9016 57.4681 85.0211 57.5729C85.1406 57.6778 85.2356 57.8076 85.2994 57.9532C85.3633 58.0988 85.3944 58.2566 85.3905 58.4155L84.7988 82.9695C84.7915 83.2742 84.6722 83.5656 84.4638 83.7879C84.2553 84.0103 83.9723 84.1481 83.6687 84.1751L72.9078 85.1318C72.7705 85.144 72.6322 85.1265 72.5023 85.0803C72.3725 85.0342 72.2541 84.9606 72.1553 84.8645C72.0565 84.7684 71.9796 84.6522 71.9298 84.5236C71.8801 84.3951 71.8586 84.2574 71.867 84.1198L73.3189 60.2273C73.3403 59.8753 73.4815 59.5412 73.719 59.2804C73.9564 59.0197 74.2759 58.8479 74.6244 58.7938L75.838 58.6053C75.8826 58.795 75.9971 58.961 76.1588 59.0699C76.3204 59.1788 76.5172 59.2227 76.7099 59.1928Z" fill="white"/>
<path d="M51.3545 292.121L59.7169 292.12L63.694 259.864L51.3516 259.866L51.3545 292.121Z" fill="#6C5050"/>
<path d="M75.8452 299.884L49.563 299.887L49.5621 289.732L65.6898 289.731C67.0233 289.73 68.3438 289.993 69.5758 290.503C70.8079 291.013 71.9274 291.761 72.8704 292.704C73.8134 293.647 74.5615 294.766 75.0719 295.998C75.5823 297.23 75.8451 298.551 75.8452 299.884Z" fill="#2E3141"/>
<path d="M25.6528 292.121L34.0152 292.12L37.9923 259.864L25.6499 259.866L25.6528 292.121Z" fill="#6C5050"/>
<path d="M50.144 299.884L23.8618 299.887L23.8609 289.732L39.9886 289.731C42.6818 289.73 45.2647 290.8 47.1692 292.704C49.0737 294.608 50.1438 297.191 50.144 299.884Z" fill="#2E3141"/>
<path d="M50.1439 66.764C60.0663 66.764 68.11 58.7203 68.11 48.7979C68.11 38.8754 60.0663 30.8317 50.1439 30.8317C40.2214 30.8317 32.1777 38.8754 32.1777 48.7979C32.1777 58.7203 40.2214 66.764 50.1439 66.764Z" fill="#6C5050"/>
<path d="M59.3904 96.8659C59.2437 92.2468 57.9433 87.7379 55.6078 83.75C53.2723 79.7622 49.9759 76.4222 46.0191 74.0345C41.3775 71.2994 36.297 70.2327 32.255 74.2747C29.828 76.7626 27.8843 79.6798 26.5231 82.8778C22.7841 91.5926 22.5395 101.411 25.8399 110.302L35.4601 136.88L57.7261 139.292C58.1443 139.337 58.5674 139.292 58.9664 139.159C59.3655 139.026 59.7312 138.808 60.0386 138.521C60.346 138.234 60.5879 137.884 60.7477 137.494C60.9076 137.105 60.9816 136.686 60.9648 136.266L59.3904 96.8659Z" fill="#2E3141"/>
<path d="M36.8718 133.607C36.8718 133.607 20.2368 139.817 24.586 166.113C28.4887 189.71 25.3873 268.031 24.7094 283.863C24.6771 284.618 24.9382 285.356 25.4379 285.922C25.9375 286.489 26.637 286.84 27.3898 286.902L37.1003 287.711C37.8609 287.774 38.6161 287.538 39.2049 287.052C39.7937 286.567 40.1695 285.87 40.2521 285.112L45.2671 239.047C45.2868 238.866 45.3731 238.699 45.5092 238.579C45.6453 238.458 45.8214 238.393 46.0032 238.395C46.185 238.397 46.3595 238.467 46.4926 238.591C46.6257 238.715 46.708 238.884 46.7232 239.065L50.4602 283.39C50.5231 284.136 50.8703 284.831 51.43 285.329C51.9897 285.827 52.7193 286.092 53.4683 286.068L61.6246 285.81C62.0089 285.798 62.3871 285.71 62.7375 285.552C63.0879 285.393 63.4036 285.167 63.6667 284.887C63.9297 284.606 64.1348 284.277 64.2703 283.917C64.4058 283.557 64.4691 283.174 64.4564 282.79L59.6519 136.678L36.8718 133.607Z" fill="#2E3141"/>
<path d="M53.7496 47.6141C59.7583 50.0785 67.4317 47.1998 70.3368 41.3914C73.2419 35.583 70.9428 27.7164 65.3669 24.3867C59.791 21.057 51.7751 22.7637 48.0393 28.076C45.0004 22.6011 37.0392 21.2053 31.5732 24.2602C26.1072 27.3152 23.1299 33.714 22.7768 39.9658C22.4237 46.2176 24.3244 52.3765 26.643 58.1931C30.3934 67.602 42.4673 72.6681 51.8086 68.7524C47.5321 62.3831 48.3763 53.0624 53.7496 47.6141Z" fill="#2E3141"/>
<path d="M77.9628 74.1444C77.8029 74.1447 77.6473 74.0929 77.5193 73.997L77.5114 73.991L75.841 72.7132C75.7636 72.6539 75.6987 72.5799 75.6499 72.4955C75.6011 72.4111 75.5695 72.318 75.5567 72.2213C75.5439 72.1247 75.5503 72.0265 75.5755 71.9323C75.6007 71.8381 75.6442 71.7498 75.7035 71.6725C75.7628 71.5951 75.8368 71.5302 75.9212 71.4814C76.0056 71.4326 76.0988 71.4009 76.1954 71.3882C76.2921 71.3754 76.3903 71.3818 76.4844 71.407C76.5786 71.4322 76.6669 71.4757 76.7443 71.535L77.8262 72.3647L80.383 69.0291C80.4423 68.9518 80.5162 68.8868 80.6006 68.8381C80.6849 68.7893 80.7781 68.7577 80.8747 68.7449C80.9713 68.7322 81.0695 68.7386 81.1636 68.7637C81.2577 68.7889 81.346 68.8324 81.4233 68.8917C81.5793 69.0116 81.682 69.1886 81.7078 69.3837C81.7335 69.5788 81.6808 69.7761 81.5612 69.9324L78.5539 73.854C78.4843 73.9443 78.3949 74.0175 78.2925 74.0677C78.1901 74.1179 78.0775 74.1438 77.9635 74.1435L77.9628 74.1444Z" fill="#04A1F7"/>
<path d="M408.298 0.295898H178.469C175.234 0.298829 172.132 1.58529 169.845 3.87287C167.557 6.16046 166.271 9.26223 166.268 12.4974V49.7439C166.271 52.9791 167.557 56.0809 169.845 58.3685C172.132 60.656 175.234 61.9425 178.469 61.9454H408.298C411.534 61.9425 414.635 60.656 416.923 58.3685C419.211 56.0809 420.497 52.9791 420.5 49.7439V12.4974C420.497 9.26223 419.211 6.16044 416.923 3.87286C414.635 1.58528 411.534 0.298829 408.298 0.295898ZM419.216 49.7439C419.211 52.6381 418.06 55.4125 416.013 57.459C413.967 59.5054 411.193 60.6569 408.298 60.661H178.469C175.575 60.6569 172.8 59.5054 170.754 57.459C168.708 55.4125 167.556 52.6381 167.552 49.7439V12.4974C167.556 9.60323 168.708 6.8288 170.754 4.78233C172.8 2.73587 175.575 1.58435 178.469 1.58026H408.298C411.193 1.58435 413.967 2.73587 416.013 4.78233C418.06 6.8288 419.211 9.60323 419.216 12.4974V49.7439Z" fill="#35435E"/>
<path d="M225.24 52.3574C221.04 52.3574 216.934 51.112 213.441 48.7785C209.949 46.4449 207.227 43.1282 205.62 39.2477C204.012 35.3672 203.592 31.0972 204.411 26.9777C205.23 22.8581 207.253 19.0741 210.223 16.104C213.193 13.134 216.977 11.1114 221.097 10.2919C225.216 9.47249 229.486 9.89304 233.367 11.5004C237.247 13.1078 240.564 15.8297 242.897 19.3221C245.231 22.8145 246.476 26.9204 246.476 31.1206C246.47 36.751 244.231 42.1489 240.249 46.1302C236.268 50.1115 230.87 52.351 225.24 52.3574Z" fill="#04A1F7"/>
<path d="M376.94 48.4596H266.557C265.194 48.4596 263.888 47.9184 262.924 46.9549C261.961 45.9914 261.419 44.6847 261.419 43.3222C261.419 41.9596 261.961 40.6529 262.924 39.6894C263.888 38.726 265.194 38.1847 266.557 38.1847H376.94C378.303 38.1847 379.61 38.726 380.573 39.6894C381.537 40.6529 382.078 41.9596 382.078 43.3222C382.078 44.6847 381.537 45.9914 380.573 46.9549C379.61 47.9184 378.303 48.4596 376.94 48.4596Z" fill="#CCCCCC"/>
<path d="M303.089 26.6253H266.557C265.194 26.6253 263.888 26.0841 262.924 25.1206C261.961 24.1571 261.419 22.8504 261.419 21.4879C261.419 20.1253 261.961 18.8186 262.924 17.8551C263.888 16.8917 265.194 16.3504 266.557 16.3504H303.089C304.452 16.3504 305.759 16.8917 306.722 17.8551C307.686 18.8186 308.227 20.1253 308.227 21.4879C308.227 22.8504 307.686 24.1571 306.722 25.1206C305.759 26.0841 304.452 26.6253 303.089 26.6253Z" fill="#CCCCCC"/>
<path d="M224.155 38.5906C223.628 38.5915 223.115 38.4211 222.694 38.105L222.667 38.0854L217.163 33.8747C216.908 33.6795 216.693 33.4358 216.532 33.1576C216.371 32.8794 216.266 32.5722 216.223 32.2534C216.181 31.9347 216.202 31.6107 216.285 31.3C216.368 30.9894 216.511 30.6981 216.707 30.4429C216.903 30.1877 217.147 29.9736 217.425 29.8128C217.704 29.652 218.011 29.5477 218.33 29.5059C218.649 29.464 218.973 29.4855 219.283 29.5689C219.594 29.6524 219.885 29.7963 220.14 29.9923L223.705 32.7263L232.13 21.7352C232.325 21.4803 232.569 21.2665 232.847 21.1058C233.125 20.9452 233.432 20.8408 233.75 20.7988C234.068 20.7567 234.392 20.7778 234.702 20.8608C235.012 20.9437 235.303 21.087 235.558 21.2824L235.558 21.2829L235.506 21.3555L235.56 21.2829C236.074 21.678 236.41 22.2609 236.495 22.9037C236.58 23.5465 236.406 24.1967 236.012 24.7116L226.103 37.6338C225.873 37.9316 225.579 38.1725 225.241 38.3379C224.904 38.5034 224.533 38.5888 224.157 38.5878L224.155 38.5906Z" fill="white"/>
<path d="M309.547 100.51H79.7181C76.4829 100.513 73.3811 101.799 71.0936 104.087C68.806 106.375 67.5195 109.476 67.5166 112.711V149.958C67.5195 153.193 68.806 156.295 71.0936 158.583C73.3811 160.87 76.4829 162.157 79.7181 162.16H309.547C312.783 162.157 315.884 160.87 318.172 158.583C320.46 156.295 321.746 153.193 321.749 149.958V112.711C321.746 109.476 320.46 106.375 318.172 104.087C315.884 101.799 312.783 100.513 309.547 100.51Z" fill="white"/>
<path d="M309.547 100.51H79.7181C76.4829 100.513 73.3811 101.799 71.0936 104.087C68.806 106.375 67.5195 109.476 67.5166 112.711V149.958C67.5195 153.193 68.806 156.295 71.0936 158.583C73.3811 160.87 76.4829 162.157 79.7181 162.16H309.547C312.783 162.157 315.884 160.87 318.172 158.583C320.46 156.295 321.746 153.193 321.749 149.958V112.711C321.746 109.476 320.46 106.375 318.172 104.087C315.884 101.799 312.783 100.513 309.547 100.51ZM320.465 149.958C320.46 152.852 319.309 155.627 317.262 157.673C315.216 159.72 312.442 160.871 309.547 160.875H79.7181C76.8239 160.871 74.0495 159.72 72.003 157.673C69.9566 155.627 68.805 152.852 68.8009 149.958V112.711C68.805 109.817 69.9565 107.043 72.003 104.996C74.0495 102.95 76.8239 101.798 79.718 101.794H309.547C312.442 101.798 315.216 102.95 317.262 104.996C319.309 107.043 320.46 109.817 320.465 112.711V149.958Z" fill="#35435E"/>
<path d="M126.489 152.571C122.289 152.571 118.183 151.326 114.69 148.993C111.198 146.659 108.476 143.342 106.869 139.462C105.261 135.581 104.841 131.311 105.66 127.192C106.479 123.072 108.502 119.288 111.472 116.318C114.442 113.348 118.226 111.325 122.346 110.506C126.465 109.687 130.735 110.107 134.616 111.714C138.496 113.322 141.813 116.044 144.146 119.536C146.48 123.029 147.726 127.134 147.726 131.335C147.719 136.965 145.48 142.363 141.498 146.344C137.517 150.326 132.119 152.565 126.489 152.571Z" fill="#04A1F7"/>
<path d="M278.189 148.674H167.806C166.443 148.674 165.137 148.132 164.173 147.169C163.21 146.206 162.668 144.899 162.668 143.536C162.668 142.174 163.21 140.867 164.173 139.904C165.137 138.94 166.443 138.399 167.806 138.399H278.189C279.552 138.399 280.859 138.94 281.822 139.904C282.786 140.867 283.327 142.174 283.327 143.536C283.327 144.899 282.786 146.206 281.822 147.169C280.859 148.132 279.552 148.674 278.189 148.674Z" fill="#CCCCCC"/>
<path d="M204.338 126.839H167.806C167.131 126.839 166.463 126.707 165.84 126.448C165.217 126.19 164.65 125.812 164.173 125.335C163.696 124.858 163.318 124.291 163.06 123.668C162.801 123.045 162.668 122.377 162.668 121.702C162.668 121.027 162.801 120.359 163.06 119.736C163.318 119.113 163.696 118.546 164.173 118.069C164.65 117.592 165.217 117.214 165.84 116.956C166.463 116.697 167.131 116.565 167.806 116.565H204.338C205.701 116.565 207.008 117.106 207.971 118.069C208.935 119.033 209.476 120.339 209.476 121.702C209.476 123.065 208.935 124.371 207.971 125.335C207.008 126.298 205.701 126.839 204.338 126.839Z" fill="#CCCCCC"/>
<path d="M125.404 138.805C124.877 138.806 124.364 138.635 123.943 138.319L123.916 138.299L118.412 134.089C118.157 133.894 117.942 133.65 117.781 133.372C117.62 133.094 117.515 132.786 117.472 132.468C117.43 132.149 117.451 131.825 117.534 131.514C117.617 131.203 117.76 130.912 117.956 130.657C118.152 130.402 118.396 130.188 118.674 130.027C118.953 129.866 119.26 129.762 119.579 129.72C119.898 129.678 120.222 129.7 120.532 129.783C120.843 129.866 121.134 130.01 121.389 130.206L124.954 132.94L133.379 121.949C133.574 121.694 133.818 121.481 134.096 121.32C134.374 121.159 134.681 121.055 134.999 121.013C135.317 120.971 135.641 120.992 135.951 121.075C136.261 121.158 136.552 121.301 136.807 121.496L136.807 121.497L136.755 121.57L136.809 121.497C137.323 121.892 137.659 122.475 137.744 123.118C137.829 123.761 137.655 124.411 137.261 124.926L127.352 137.848C127.122 138.146 126.828 138.387 126.49 138.552C126.153 138.717 125.782 138.803 125.406 138.802L125.404 138.805Z" fill="white"/>
<path d="M72.2655 108.912C71.342 108.521 70.344 108.338 69.3419 108.375C68.3398 108.412 67.358 108.668 66.4656 109.125C65.5732 109.582 64.7919 110.23 64.1767 111.022C63.5616 111.814 63.1275 112.731 62.9052 113.709L47.4559 116.355L46.7744 126.136L68.5393 122.092C70.2067 122.357 71.9133 122 73.3356 121.091C74.7579 120.181 75.7972 118.782 76.2565 117.157C76.7158 115.532 76.5633 113.796 75.8277 112.276C75.0921 110.757 73.8247 109.56 72.2655 108.912Z" fill="#6C5050"/>
<path d="M45.7269 80.8385C47.9655 81.8443 49.7311 83.673 50.6575 85.9456C51.5839 88.2181 51.6001 90.76 50.7028 93.0442L41.7474 115.839L52.9901 113.772C53.6921 113.643 54.4171 113.776 55.0286 114.144C55.6401 114.512 56.0958 115.091 56.3101 115.772L58.5513 122.894C58.6684 123.267 58.7098 123.658 58.6733 124.047C58.6368 124.435 58.523 124.812 58.3385 125.156C58.1541 125.5 57.9028 125.803 57.5994 126.048C57.296 126.294 56.9467 126.476 56.5719 126.584L41.9589 130.803C40.1104 131.337 38.1634 131.435 36.2706 131.089C34.3779 130.744 32.591 129.965 31.0501 128.812C29.5093 127.66 28.2564 126.167 27.39 124.449C26.5235 122.731 26.0671 120.836 26.0563 118.912C26.0513 118.013 26.1437 117.116 26.3319 116.236L32.472 87.552C32.7702 86.1591 33.3762 84.8505 34.2455 83.722C35.1149 82.5936 36.2256 81.6738 37.4964 81.0302C38.7672 80.3865 40.1658 80.0353 41.5899 80.0021C43.0141 79.9689 44.4275 80.2547 45.7269 80.8385Z" fill="#CCCCCC"/>
</g>
<defs>
<clipPath id="clip0_14_1168">
<rect width="420" height="300.704" fill="white" transform="translate(0.5 0.295898)"/>
</clipPath>
</defs>
</svg>
