<svg width="1512" height="379" viewBox="0 0 1512 379" fill="none" xmlns="http://www.w3.org/2000/svg">
<path opacity="0.4" fill-rule="evenodd" clip-rule="evenodd" d="M698.832 97.0599C750.99 22.6859 856.126 -6.57857 939.983 1.22206C953.156 2.44748 972.025 5.61997 988.592 12.7823C1004.85 19.8109 1021.56 31.9219 1025.12 52.3749C1028.19 69.9918 1022.28 84.7719 1013.65 96.8079C1005.4 108.327 994.111 118.072 984.85 126.068L984.297 126.546C931.653 172.011 858.63 201.519 793.46 218.842C783.11 221.594 772.776 224.365 762.451 227.133C747.18 231.228 731.927 235.318 716.657 239.335C735.948 273.195 767.66 297.055 805.795 312.656C877.368 341.936 961.187 360.93 1037.79 357.684C1150.03 352.928 1264.87 308.768 1369.6 265.954C1452.1 232.232 1533.62 191.703 1614.18 151.655C1621.68 147.928 1629.17 144.204 1636.65 140.491C1648.41 134.652 1660.28 128.274 1672.33 121.805C1700.81 106.504 1730.24 90.6938 1761.41 80.305C1766.74 78.5291 1772.49 81.4084 1774.27 86.7362C1776.05 92.064 1773.17 97.8226 1767.84 99.5986C1738.39 109.415 1711.48 123.878 1683.73 138.797C1671.32 145.467 1658.74 152.229 1645.69 158.707C1638.19 162.43 1630.67 166.166 1623.14 169.91C1542.71 209.899 1460.52 250.759 1377.3 284.779C1272.89 327.458 1154.94 373.075 1038.65 378.003C958.417 381.402 871.644 361.567 798.095 331.479C755.186 313.925 718.09 285.903 696.36 244.622C643.926 258.129 591.134 270.417 536.683 278.715C461.549 290.164 384.43 288.784 309.522 287.444C303.976 287.345 298.442 287.246 292.922 287.152C218.904 285.898 148.337 276.118 77.9589 251.44C76.816 251.039 75.6635 250.635 74.5019 250.228C39.1363 237.836 -4.72581 222.467 -43.8775 200.731C-84.2283 178.33 -121.1 148.359 -138.246 106.273C-140.365 101.072 -137.866 95.1379 -132.665 93.019C-127.464 90.9002 -121.531 93.3986 -119.412 98.5995C-104.836 134.375 -72.7447 161.445 -34.0062 182.951C3.60127 203.829 46.0382 218.702 81.7316 231.212C82.7225 231.559 83.7082 231.905 84.6884 232.248C152.547 256.043 220.869 265.591 293.267 266.818C298.683 266.91 304.101 267.006 309.52 267.103C384.801 268.443 460.266 269.787 533.619 258.61C586.076 250.616 636.963 238.864 687.897 225.797C687.405 224.494 686.926 223.179 686.462 221.853C680.321 204.306 678.134 180.95 679.909 158.541C681.675 136.256 687.492 113.229 698.832 97.0599ZM707.712 220.655C724.142 216.347 740.598 211.935 757.136 207.501C767.467 204.732 777.829 201.954 788.236 199.188C852.037 182.228 921.689 153.745 971.004 111.155C980.756 102.733 990.364 94.392 997.121 84.9622C1003.67 75.8193 1006.93 66.4862 1005.08 55.8595C1003.31 45.6502 994.638 37.5525 980.522 31.4497C966.714 25.4806 950.218 22.5991 938.099 21.4718C858.624 14.0787 762.014 42.3863 715.482 108.737C707.096 120.695 701.811 139.599 700.183 160.147C698.565 180.571 700.692 200.948 705.658 215.135C706.31 216.999 706.995 218.839 707.712 220.655Z" fill="black" fill-opacity="0.1"/>
</svg>
